<?xml version="1.0" encoding="UTF-8" standalone="no"?>
<!DOCTYPE svg PUBLIC "-//W3C//DTD SVG 1.1//EN"
 "http://www.w3.org/Graphics/SVG/1.1/DTD/svg11.dtd">
<!-- Generated by graphviz version 2.36.0 (20140111.2315)
 -->
<!-- Title: IControls.h Pages: 1 -->
<svg width="1235pt" height="476pt"
 viewBox="0.00 0.00 1235.00 476.00" xmlns="http://www.w3.org/2000/svg" xmlns:xlink="http://www.w3.org/1999/xlink">
<g id="graph0" class="graph" transform="scale(1 1) rotate(0) translate(4 472)">
<title>IControls.h</title>
<polygon fill="white" stroke="none" points="-4,4 -4,-472 1231,-472 1231,4 -4,4"/>
<!-- Node1 -->
<g id="node1" class="node"><title>Node1</title>
<polygon fill="#bfbfbf" stroke="black" points="968.5,-448.5 968.5,-467.5 1033.5,-467.5 1033.5,-448.5 968.5,-448.5"/>
<text text-anchor="middle" x="1001" y="-455.5" font-family="Helvetica,sans-Serif" font-size="10.00">IControls.h</text>
</g>
<!-- Node2 -->
<g id="node2" class="node"><title>Node2</title>
<g id="a_node2"><a xlink:href="_i_control_8h.html" target="_top" xlink:title="The lowest level base class of an IGraphics control. ">
<polygon fill="white" stroke="black" points="971.5,-392.5 971.5,-411.5 1030.5,-411.5 1030.5,-392.5 971.5,-392.5"/>
<text text-anchor="middle" x="1001" y="-399.5" font-family="Helvetica,sans-Serif" font-size="10.00">IControl.h</text>
</a>
</g>
</g>
<!-- Node1&#45;&gt;Node2 -->
<g id="edge1" class="edge"><title>Node1&#45;&gt;Node2</title>
<path fill="none" stroke="midnightblue" d="M1001,-448.083C1001,-441.006 1001,-430.861 1001,-421.986"/>
<polygon fill="midnightblue" stroke="midnightblue" points="1004.5,-421.751 1001,-411.751 997.5,-421.751 1004.5,-421.751"/>
</g>
<!-- Node3 -->
<g id="node3" class="node"><title>Node3</title>
<polygon fill="white" stroke="#bfbfbf" points="868,-0.5 868,-19.5 914,-19.5 914,-0.5 868,-0.5"/>
<text text-anchor="middle" x="891" y="-7.5" font-family="Helvetica,sans-Serif" font-size="10.00">cstring</text>
</g>
<!-- Node2&#45;&gt;Node3 -->
<g id="edge2" class="edge"><title>Node2&#45;&gt;Node3</title>
<path fill="none" stroke="midnightblue" d="M1006.28,-392.231C1016.73,-374.043 1039,-330.601 1039,-291 1039,-291 1039,-291 1039,-121 1039,-90.2048 1036.84,-77.7147 1015,-56 990.521,-31.6573 951.876,-20.3795 924.235,-15.2208"/>
<polygon fill="midnightblue" stroke="midnightblue" points="924.677,-11.7459 914.233,-13.5288 923.509,-18.6478 924.677,-11.7459"/>
</g>
<!-- Node4 -->
<g id="node4" class="node"><title>Node4</title>
<polygon fill="white" stroke="#bfbfbf" points="-0.5,-0.5 -0.5,-19.5 44.5,-19.5 44.5,-0.5 -0.5,-0.5"/>
<text text-anchor="middle" x="22" y="-7.5" font-family="Helvetica,sans-Serif" font-size="10.00">cstdlib</text>
</g>
<!-- Node2&#45;&gt;Node4 -->
<g id="edge3" class="edge"><title>Node2&#45;&gt;Node4</title>
<path fill="none" stroke="midnightblue" d="M971.343,-400.931C805.56,-400.162 1,-391.265 1,-291 1,-291 1,-291 1,-121 1,-88.3843 10.0179,-51.2785 16.2347,-29.5732"/>
<polygon fill="midnightblue" stroke="midnightblue" points="19.6657,-30.3151 19.1678,-19.7319 12.9573,-28.3156 19.6657,-30.3151"/>
</g>
<!-- Node5 -->
<g id="node5" class="node"><title>Node5</title>
<polygon fill="white" stroke="#bfbfbf" points="723,-56.5 723,-75.5 787,-75.5 787,-56.5 723,-56.5"/>
<text text-anchor="middle" x="755" y="-63.5" font-family="Helvetica,sans-Serif" font-size="10.00">wdlstring.h</text>
</g>
<!-- Node2&#45;&gt;Node5 -->
<g id="edge4" class="edge"><title>Node2&#45;&gt;Node5</title>
<path fill="none" stroke="midnightblue" d="M994.672,-392.408C961.91,-347.927 811.389,-143.56 767.218,-83.5883"/>
<polygon fill="midnightblue" stroke="midnightblue" points="770.035,-81.5112 761.286,-75.5351 764.399,-85.6625 770.035,-81.5112"/>
</g>
<!-- Node6 -->
<g id="node6" class="node"><title>Node6</title>
<polygon fill="white" stroke="#bfbfbf" points="1067,-336.5 1067,-355.5 1123,-355.5 1123,-336.5 1067,-336.5"/>
<text text-anchor="middle" x="1095" y="-343.5" font-family="Helvetica,sans-Serif" font-size="10.00">dirscan.h</text>
</g>
<!-- Node2&#45;&gt;Node6 -->
<g id="edge5" class="edge"><title>Node2&#45;&gt;Node6</title>
<path fill="none" stroke="midnightblue" d="M1016.1,-392.324C1030.9,-383.822 1053.69,-370.729 1070.98,-360.797"/>
<polygon fill="midnightblue" stroke="midnightblue" points="1073.01,-363.671 1079.93,-355.655 1069.52,-357.601 1073.01,-363.671"/>
</g>
<!-- Node7 -->
<g id="node7" class="node"><title>Node7</title>
<polygon fill="white" stroke="#bfbfbf" points="957.5,-56.5 957.5,-75.5 1006.5,-75.5 1006.5,-56.5 957.5,-56.5"/>
<text text-anchor="middle" x="982" y="-63.5" font-family="Helvetica,sans-Serif" font-size="10.00">ptrlist.h</text>
</g>
<!-- Node2&#45;&gt;Node7 -->
<g id="edge6" class="edge"><title>Node2&#45;&gt;Node7</title>
<path fill="none" stroke="midnightblue" d="M1001,-392.442C1001,-373.936 1001,-328.812 1001,-291 1001,-291 1001,-291 1001,-177 1001,-144.489 992.841,-107.35 987.216,-85.6103"/>
<polygon fill="midnightblue" stroke="midnightblue" points="990.541,-84.498 984.562,-75.7514 983.782,-86.3175 990.541,-84.498"/>
</g>
<!-- Node8 -->
<g id="node8" class="node"><title>Node8</title>
<g id="a_node8"><a xlink:href="_i_graphics_8h.html" target="_top" xlink:title="The lowest level base class of an IGraphics context. ">
<polygon fill="white" stroke="black" points="703.5,-336.5 703.5,-355.5 770.5,-355.5 770.5,-336.5 703.5,-336.5"/>
<text text-anchor="middle" x="737" y="-343.5" font-family="Helvetica,sans-Serif" font-size="10.00">IGraphics.h</text>
</a>
</g>
</g>
<!-- Node2&#45;&gt;Node8 -->
<g id="edge7" class="edge"><title>Node2&#45;&gt;Node8</title>
<path fill="none" stroke="midnightblue" d="M971.484,-394.963C925.094,-385.474 834.852,-367.015 780.853,-355.97"/>
<polygon fill="midnightblue" stroke="midnightblue" points="781.385,-352.506 770.886,-353.931 779.982,-359.364 781.385,-352.506"/>
</g>
<!-- Node29 -->
<g id="node29" class="node"><title>Node29</title>
<g id="a_node29"><a xlink:href="_i_plug_delegate_8h_source.html" target="_top" xlink:title="IPlugDelegate.h">
<polygon fill="white" stroke="black" points="1141,-336.5 1141,-355.5 1227,-355.5 1227,-336.5 1141,-336.5"/>
<text text-anchor="middle" x="1184" y="-343.5" font-family="Helvetica,sans-Serif" font-size="10.00">IPlugDelegate.h</text>
</a>
</g>
</g>
<!-- Node2&#45;&gt;Node29 -->
<g id="edge51" class="edge"><title>Node2&#45;&gt;Node29</title>
<path fill="none" stroke="midnightblue" d="M1030,-392.444C1061.18,-383.241 1110.93,-368.562 1145.41,-358.388"/>
<polygon fill="midnightblue" stroke="midnightblue" points="1146.54,-361.704 1155.14,-355.516 1144.56,-354.99 1146.54,-361.704"/>
</g>
<!-- Node9 -->
<g id="node9" class="node"><title>Node9</title>
<g id="a_node9"><a xlink:href="_i_graphics_constants_8h_source.html" target="_top" xlink:title="IGraphicsConstants.h">
<polygon fill="white" stroke="black" points="164,-224.5 164,-243.5 276,-243.5 276,-224.5 164,-224.5"/>
<text text-anchor="middle" x="220" y="-231.5" font-family="Helvetica,sans-Serif" font-size="10.00">IGraphicsConstants.h</text>
</a>
</g>
</g>
<!-- Node8&#45;&gt;Node9 -->
<g id="edge8" class="edge"><title>Node8&#45;&gt;Node9</title>
<path fill="none" stroke="midnightblue" d="M703.477,-337.867C615.017,-319.046 374.915,-267.961 270.089,-245.657"/>
<polygon fill="midnightblue" stroke="midnightblue" points="270.587,-242.185 260.077,-243.527 269.13,-249.032 270.587,-242.185"/>
</g>
<!-- Node23 -->
<g id="node23" class="node"><title>Node23</title>
<g id="a_node23"><a xlink:href="_i_graphics_structs_8h_source.html" target="_top" xlink:title="IGraphicsStructs.h">
<polygon fill="white" stroke="black" points="543,-280.5 543,-299.5 641,-299.5 641,-280.5 543,-280.5"/>
<text text-anchor="middle" x="592" y="-287.5" font-family="Helvetica,sans-Serif" font-size="10.00">IGraphicsStructs.h</text>
</a>
</g>
</g>
<!-- Node8&#45;&gt;Node23 -->
<g id="edge32" class="edge"><title>Node8&#45;&gt;Node23</title>
<path fill="none" stroke="midnightblue" d="M714.024,-336.444C689.843,-327.438 651.582,-313.189 624.354,-303.049"/>
<polygon fill="midnightblue" stroke="midnightblue" points="625.461,-299.727 614.868,-299.516 623.018,-306.286 625.461,-299.727"/>
</g>
<!-- Node27 -->
<g id="node27" class="node"><title>Node27</title>
<g id="a_node27"><a xlink:href="_i_graphics_utilites_8h_source.html" target="_top" xlink:title="IGraphicsUtilites.h">
<polygon fill="white" stroke="black" points="688,-280.5 688,-299.5 786,-299.5 786,-280.5 688,-280.5"/>
<text text-anchor="middle" x="737" y="-287.5" font-family="Helvetica,sans-Serif" font-size="10.00">IGraphicsUtilites.h</text>
</a>
</g>
</g>
<!-- Node8&#45;&gt;Node27 -->
<g id="edge43" class="edge"><title>Node8&#45;&gt;Node27</title>
<path fill="none" stroke="midnightblue" d="M737,-336.083C737,-329.006 737,-318.861 737,-309.986"/>
<polygon fill="midnightblue" stroke="midnightblue" points="740.5,-309.751 737,-299.751 733.5,-309.751 740.5,-309.751"/>
</g>
<!-- Node28 -->
<g id="node28" class="node"><title>Node28</title>
<g id="a_node28"><a xlink:href="_i_popup_menu_8h.html" target="_top" xlink:title="A class for setting the contents of a pop up menu. ">
<polygon fill="white" stroke="black" points="817,-112.5 817,-131.5 897,-131.5 897,-112.5 817,-112.5"/>
<text text-anchor="middle" x="857" y="-119.5" font-family="Helvetica,sans-Serif" font-size="10.00">IPopupMenu.h</text>
</a>
</g>
</g>
<!-- Node8&#45;&gt;Node28 -->
<g id="edge44" class="edge"><title>Node8&#45;&gt;Node28</title>
<path fill="none" stroke="midnightblue" d="M752.048,-336.464C764.83,-328.517 782.83,-315.572 794,-300 830.381,-249.279 847.575,-175.482 853.937,-141.451"/>
<polygon fill="midnightblue" stroke="midnightblue" points="857.398,-141.982 855.692,-131.525 850.505,-140.763 857.398,-141.982"/>
</g>
<!-- Node10 -->
<g id="node10" class="node"><title>Node10</title>
<g id="a_node10"><a xlink:href="_i_plug_platform_8h.html" target="_top" xlink:title="Include to get consistently named preprocessor macros for different platforms and logging functionali...">
<polygon fill="white" stroke="black" points="375,-168.5 375,-187.5 459,-187.5 459,-168.5 375,-168.5"/>
<text text-anchor="middle" x="417" y="-175.5" font-family="Helvetica,sans-Serif" font-size="10.00">IPlugPlatform.h</text>
</a>
</g>
</g>
<!-- Node9&#45;&gt;Node10 -->
<g id="edge9" class="edge"><title>Node9&#45;&gt;Node10</title>
<path fill="none" stroke="midnightblue" d="M251.215,-224.444C284.933,-215.201 338.8,-200.436 375.932,-190.257"/>
<polygon fill="midnightblue" stroke="midnightblue" points="377.212,-193.536 385.931,-187.516 375.361,-186.785 377.212,-193.536"/>
</g>
<!-- Node10&#45;&gt;Node3 -->
<g id="edge10" class="edge"><title>Node10&#45;&gt;Node3</title>
<path fill="none" stroke="midnightblue" d="M459.385,-176.293C572.71,-173.967 876.159,-164.713 906,-132 931.817,-103.698 913.636,-54.9401 900.762,-28.7929"/>
<polygon fill="midnightblue" stroke="midnightblue" points="903.743,-26.9402 896.031,-19.6763 897.53,-30.1645 903.743,-26.9402"/>
</g>
<!-- Node10&#45;&gt;Node4 -->
<g id="edge11" class="edge"><title>Node10&#45;&gt;Node4</title>
<path fill="none" stroke="midnightblue" d="M384.082,-168.459C329.017,-153.546 215.458,-120.094 126,-76 95.5558,-60.994 62.7005,-39.4726 42.2417,-25.3686"/>
<polygon fill="midnightblue" stroke="midnightblue" points="44.2268,-22.4859 34.0214,-19.6396 40.2243,-28.2288 44.2268,-22.4859"/>
</g>
<!-- Node11 -->
<g id="node11" class="node"><title>Node11</title>
<g id="a_node11"><a xlink:href="_i_plug_logger_8h.html" target="_top" xlink:title="IPlug logging a.k.a tracing functionailty. ">
<polygon fill="white" stroke="black" points="379.5,-112.5 379.5,-131.5 456.5,-131.5 456.5,-112.5 379.5,-112.5"/>
<text text-anchor="middle" x="418" y="-119.5" font-family="Helvetica,sans-Serif" font-size="10.00">IPlugLogger.h</text>
</a>
</g>
</g>
<!-- Node10&#45;&gt;Node11 -->
<g id="edge12" class="edge"><title>Node10&#45;&gt;Node11</title>
<path fill="none" stroke="midnightblue" d="M417.165,-168.083C417.296,-161.006 417.484,-150.861 417.648,-141.986"/>
<polygon fill="midnightblue" stroke="midnightblue" points="421.152,-141.814 417.838,-131.751 414.153,-141.685 421.152,-141.814"/>
</g>
<!-- Node11&#45;&gt;Node3 -->
<g id="edge17" class="edge"><title>Node11&#45;&gt;Node3</title>
<path fill="none" stroke="midnightblue" d="M446.819,-112.409C499.079,-96.8937 607.624,-64.9728 646,-56 721.167,-38.4251 810.625,-23.4809 857.901,-16.0433"/>
<polygon fill="midnightblue" stroke="midnightblue" points="858.538,-19.4864 867.879,-14.4867 857.459,-12.57 858.538,-19.4864"/>
</g>
<!-- Node11&#45;&gt;Node5 -->
<g id="edge20" class="edge"><title>Node11&#45;&gt;Node5</title>
<path fill="none" stroke="midnightblue" d="M456.78,-115.837C513.297,-108.142 621.528,-92.7618 713,-76 713.101,-75.9815 713.202,-75.963 713.303,-75.9444"/>
<polygon fill="midnightblue" stroke="midnightblue" points="713.785,-79.4163 722.936,-74.077 712.452,-72.5442 713.785,-79.4163"/>
</g>
<!-- Node12 -->
<g id="node12" class="node"><title>Node12</title>
<polygon fill="white" stroke="#bfbfbf" points="461.5,-0.5 461.5,-19.5 504.5,-19.5 504.5,-0.5 461.5,-0.5"/>
<text text-anchor="middle" x="483" y="-7.5" font-family="Helvetica,sans-Serif" font-size="10.00">cstdio</text>
</g>
<!-- Node11&#45;&gt;Node12 -->
<g id="edge13" class="edge"><title>Node11&#45;&gt;Node12</title>
<path fill="none" stroke="midnightblue" d="M427.96,-112.214C437.083,-103.716 450.434,-90.0877 459,-76 467.789,-61.5459 474.164,-43.3579 478.125,-29.8997"/>
<polygon fill="midnightblue" stroke="midnightblue" points="481.6,-30.4637 480.885,-19.893 474.852,-28.6026 481.6,-30.4637"/>
</g>
<!-- Node13 -->
<g id="node13" class="node"><title>Node13</title>
<polygon fill="white" stroke="#bfbfbf" points="322,-0.5 322,-19.5 368,-19.5 368,-0.5 322,-0.5"/>
<text text-anchor="middle" x="345" y="-7.5" font-family="Helvetica,sans-Serif" font-size="10.00">cctype</text>
</g>
<!-- Node11&#45;&gt;Node13 -->
<g id="edge14" class="edge"><title>Node11&#45;&gt;Node13</title>
<path fill="none" stroke="midnightblue" d="M422.249,-112.317C428.023,-99.1639 436.494,-73.8348 426,-56 415.537,-38.2183 395.228,-26.9591 377.565,-20.1499"/>
<polygon fill="midnightblue" stroke="midnightblue" points="378.698,-16.8383 368.103,-16.8116 376.369,-23.4395 378.698,-16.8383"/>
</g>
<!-- Node14 -->
<g id="node14" class="node"><title>Node14</title>
<polygon fill="white" stroke="#bfbfbf" points="511.5,-56.5 511.5,-75.5 560.5,-75.5 560.5,-56.5 511.5,-56.5"/>
<text text-anchor="middle" x="536" y="-63.5" font-family="Helvetica,sans-Serif" font-size="10.00">cstdarg</text>
</g>
<!-- Node11&#45;&gt;Node14 -->
<g id="edge15" class="edge"><title>Node11&#45;&gt;Node14</title>
<path fill="none" stroke="midnightblue" d="M436.697,-112.444C455.944,-103.636 486.152,-89.8116 508.2,-79.722"/>
<polygon fill="midnightblue" stroke="midnightblue" points="509.753,-82.8603 517.39,-75.5164 506.84,-76.4951 509.753,-82.8603"/>
</g>
<!-- Node15 -->
<g id="node15" class="node"><title>Node15</title>
<polygon fill="white" stroke="#bfbfbf" points="241,-56.5 241,-75.5 287,-75.5 287,-56.5 241,-56.5"/>
<text text-anchor="middle" x="264" y="-63.5" font-family="Helvetica,sans-Serif" font-size="10.00">cstdint</text>
</g>
<!-- Node11&#45;&gt;Node15 -->
<g id="edge16" class="edge"><title>Node11&#45;&gt;Node15</title>
<path fill="none" stroke="midnightblue" d="M393.598,-112.444C367.5,-103.292 325.959,-88.726 296.966,-78.5594"/>
<polygon fill="midnightblue" stroke="midnightblue" points="297.874,-75.1691 287.28,-75.1629 295.558,-81.7748 297.874,-75.1691"/>
</g>
<!-- Node16 -->
<g id="node16" class="node"><title>Node16</title>
<polygon fill="white" stroke="#bfbfbf" points="305.5,-56.5 305.5,-75.5 346.5,-75.5 346.5,-56.5 305.5,-56.5"/>
<text text-anchor="middle" x="326" y="-63.5" font-family="Helvetica,sans-Serif" font-size="10.00">ctime</text>
</g>
<!-- Node11&#45;&gt;Node16 -->
<g id="edge18" class="edge"><title>Node11&#45;&gt;Node16</title>
<path fill="none" stroke="midnightblue" d="M403.219,-112.324C388.733,-103.822 366.427,-90.7288 349.507,-80.7975"/>
<polygon fill="midnightblue" stroke="midnightblue" points="351.141,-77.6981 340.745,-75.6545 347.597,-83.735 351.141,-77.6981"/>
</g>
<!-- Node17 -->
<g id="node17" class="node"><title>Node17</title>
<polygon fill="white" stroke="#bfbfbf" points="655.5,-56.5 655.5,-75.5 704.5,-75.5 704.5,-56.5 655.5,-56.5"/>
<text text-anchor="middle" x="680" y="-63.5" font-family="Helvetica,sans-Serif" font-size="10.00">cassert</text>
</g>
<!-- Node11&#45;&gt;Node17 -->
<g id="edge19" class="edge"><title>Node11&#45;&gt;Node17</title>
<path fill="none" stroke="midnightblue" d="M456.659,-113.032C507.582,-102.536 596.383,-84.2341 645.267,-74.1588"/>
<polygon fill="midnightblue" stroke="midnightblue" points="646.264,-77.5269 655.352,-72.0802 644.851,-70.671 646.264,-77.5269"/>
</g>
<!-- Node18 -->
<g id="node18" class="node"><title>Node18</title>
<polygon fill="white" stroke="#bfbfbf" points="365,-56.5 365,-75.5 417,-75.5 417,-56.5 365,-56.5"/>
<text text-anchor="middle" x="391" y="-63.5" font-family="Helvetica,sans-Serif" font-size="10.00">mutex.h</text>
</g>
<!-- Node11&#45;&gt;Node18 -->
<g id="edge21" class="edge"><title>Node11&#45;&gt;Node18</title>
<path fill="none" stroke="midnightblue" d="M413.541,-112.083C409.846,-104.691 404.477,-93.9533 399.906,-84.8111"/>
<polygon fill="midnightblue" stroke="midnightblue" points="402.978,-83.1301 395.376,-75.7511 396.717,-86.2606 402.978,-83.1301"/>
</g>
<!-- Node19 -->
<g id="node19" class="node"><title>Node19</title>
<g id="a_node19"><a xlink:href="_i_plug_constants_8h.html" target="_top" xlink:title="Constant definitions, Types, magic numbers. ">
<polygon fill="white" stroke="black" points="137,-0.5 137,-19.5 229,-19.5 229,-0.5 137,-0.5"/>
<text text-anchor="middle" x="183" y="-7.5" font-family="Helvetica,sans-Serif" font-size="10.00">IPlugConstants.h</text>
</a>
</g>
</g>
<!-- Node11&#45;&gt;Node19 -->
<g id="edge22" class="edge"><title>Node11&#45;&gt;Node19</title>
<path fill="none" stroke="midnightblue" d="M379.461,-120.802C309.311,-119.534 165.123,-112.443 134,-76 119.674,-59.2256 141.036,-38.7413 159.891,-25.3077"/>
<polygon fill="midnightblue" stroke="midnightblue" points="161.911,-28.1669 168.24,-19.6703 157.994,-22.3654 161.911,-28.1669"/>
</g>
<!-- Node20 -->
<g id="node20" class="node"><title>Node20</title>
<g id="a_node20"><a xlink:href="_i_plug_utilities_8h.html" target="_top" xlink:title="Utility functions and macros. ">
<polygon fill="white" stroke="black" points="143,-56.5 143,-75.5 223,-75.5 223,-56.5 143,-56.5"/>
<text text-anchor="middle" x="183" y="-63.5" font-family="Helvetica,sans-Serif" font-size="10.00">IPlugUtilities.h</text>
</a>
</g>
</g>
<!-- Node11&#45;&gt;Node20 -->
<g id="edge23" class="edge"><title>Node11&#45;&gt;Node20</title>
<path fill="none" stroke="midnightblue" d="M380.764,-112.444C339.94,-103.063 274.357,-87.9926 230.016,-77.8036"/>
<polygon fill="midnightblue" stroke="midnightblue" points="230.592,-74.3449 220.062,-75.5164 229.024,-81.1671 230.592,-74.3449"/>
</g>
<!-- Node20&#45;&gt;Node3 -->
<g id="edge28" class="edge"><title>Node20&#45;&gt;Node3</title>
<path fill="none" stroke="midnightblue" d="M223.054,-57.2607C226.075,-56.7942 229.082,-56.3664 232,-56 470.809,-26.0132 760.994,-14.9488 857.796,-11.9355"/>
<polygon fill="midnightblue" stroke="midnightblue" points="857.965,-15.4321 867.854,-11.63 857.752,-8.43531 857.965,-15.4321"/>
</g>
<!-- Node20&#45;&gt;Node4 -->
<g id="edge27" class="edge"><title>Node20&#45;&gt;Node4</title>
<path fill="none" stroke="midnightblue" d="M157.489,-56.4435C129.528,-47.0652 84.6114,-32.0001 54.2333,-21.8112"/>
<polygon fill="midnightblue" stroke="midnightblue" points="55.1279,-18.4197 44.534,-18.558 52.9019,-25.0563 55.1279,-18.4197"/>
</g>
<!-- Node20&#45;&gt;Node10 -->
<g id="edge31" class="edge"><title>Node20&#45;&gt;Node10</title>
<path fill="none" stroke="midnightblue" d="M201.276,-75.5914C242.119,-94.791 340.996,-141.272 389.391,-164.021"/>
<polygon fill="midnightblue" stroke="midnightblue" points="388.099,-167.282 398.638,-168.368 391.077,-160.947 388.099,-167.282"/>
</g>
<!-- Node20&#45;&gt;Node12 -->
<g id="edge26" class="edge"><title>Node20&#45;&gt;Node12</title>
<path fill="none" stroke="midnightblue" d="M223.109,-57.6187C226.117,-57.0695 229.107,-56.5251 232,-56 310.766,-41.7057 403.49,-25.1533 451.155,-16.6645"/>
<polygon fill="midnightblue" stroke="midnightblue" points="451.94,-20.08 461.171,-14.8813 450.713,-13.1883 451.94,-20.08"/>
</g>
<!-- Node20&#45;&gt;Node13 -->
<g id="edge29" class="edge"><title>Node20&#45;&gt;Node13</title>
<path fill="none" stroke="midnightblue" d="M208.669,-56.4435C236.644,-47.1186 281.485,-32.1716 312.043,-21.9858"/>
<polygon fill="midnightblue" stroke="midnightblue" points="313.433,-25.2118 321.813,-18.729 311.219,-18.571 313.433,-25.2118"/>
</g>
<!-- Node20&#45;&gt;Node19 -->
<g id="edge30" class="edge"><title>Node20&#45;&gt;Node19</title>
<path fill="none" stroke="midnightblue" d="M183,-56.083C183,-49.0059 183,-38.8611 183,-29.9865"/>
<polygon fill="midnightblue" stroke="midnightblue" points="186.5,-29.751 183,-19.7511 179.5,-29.7511 186.5,-29.751"/>
</g>
<!-- Node21 -->
<g id="node21" class="node"><title>Node21</title>
<polygon fill="white" stroke="#bfbfbf" points="63,-0.5 63,-19.5 119,-19.5 119,-0.5 63,-0.5"/>
<text text-anchor="middle" x="91" y="-7.5" font-family="Helvetica,sans-Serif" font-size="10.00">algorithm</text>
</g>
<!-- Node20&#45;&gt;Node21 -->
<g id="edge24" class="edge"><title>Node20&#45;&gt;Node21</title>
<path fill="none" stroke="midnightblue" d="M168.219,-56.324C153.733,-47.8215 131.427,-34.7288 114.507,-24.7975"/>
<polygon fill="midnightblue" stroke="midnightblue" points="116.141,-21.6981 105.745,-19.6545 112.597,-27.735 116.141,-21.6981"/>
</g>
<!-- Node22 -->
<g id="node22" class="node"><title>Node22</title>
<polygon fill="white" stroke="#bfbfbf" points="605,-0.5 605,-19.5 649,-19.5 649,-0.5 605,-0.5"/>
<text text-anchor="middle" x="627" y="-7.5" font-family="Helvetica,sans-Serif" font-size="10.00">cmath</text>
</g>
<!-- Node20&#45;&gt;Node22 -->
<g id="edge25" class="edge"><title>Node20&#45;&gt;Node22</title>
<path fill="none" stroke="midnightblue" d="M223.074,-57.4094C226.091,-56.9085 229.091,-56.4323 232,-56 366.143,-36.0634 527.065,-20.221 594.634,-13.9327"/>
<polygon fill="midnightblue" stroke="midnightblue" points="595.023,-17.4118 604.658,-13.0064 594.378,-10.4415 595.023,-17.4118"/>
</g>
<!-- Node23&#45;&gt;Node5 -->
<g id="edge37" class="edge"><title>Node23&#45;&gt;Node5</title>
<path fill="none" stroke="midnightblue" d="M641.287,-283.69C689.711,-277.337 758.651,-264.857 775,-244 794.008,-219.751 771.308,-126.012 760.312,-85.6538"/>
<polygon fill="midnightblue" stroke="midnightblue" points="763.62,-84.4834 757.566,-75.7885 756.876,-86.3609 763.62,-84.4834"/>
</g>
<!-- Node23&#45;&gt;Node7 -->
<g id="edge38" class="edge"><title>Node23&#45;&gt;Node7</title>
<path fill="none" stroke="midnightblue" d="M641.041,-284.555C682.927,-279.251 743.859,-267.887 792,-244 872.041,-204.283 942.034,-119.967 969.559,-83.9189"/>
<polygon fill="midnightblue" stroke="midnightblue" points="972.412,-85.9477 975.622,-75.8507 966.816,-81.7424 972.412,-85.9477"/>
</g>
<!-- Node23&#45;&gt;Node9 -->
<g id="edge42" class="edge"><title>Node23&#45;&gt;Node9</title>
<path fill="none" stroke="midnightblue" d="M542.985,-281.885C477.129,-272.325 359.86,-255.302 286.208,-244.611"/>
<polygon fill="midnightblue" stroke="midnightblue" points="286.514,-241.119 276.115,-243.146 285.508,-248.046 286.514,-241.119"/>
</g>
<!-- Node23&#45;&gt;Node10 -->
<g id="edge41" class="edge"><title>Node23&#45;&gt;Node10</title>
<path fill="none" stroke="midnightblue" d="M562.419,-280.455C539.335,-272.972 507.084,-260.682 482,-244 461.751,-230.534 442.579,-210.07 430.375,-195.71"/>
<polygon fill="midnightblue" stroke="midnightblue" points="432.8,-193.15 423.73,-187.674 427.406,-197.611 432.8,-193.15"/>
</g>
<!-- Node23&#45;&gt;Node17 -->
<g id="edge34" class="edge"><title>Node23&#45;&gt;Node17</title>
<path fill="none" stroke="midnightblue" d="M581.01,-280.365C571.547,-272.171 558.564,-258.917 553,-244 549.893,-235.672 550.035,-232.38 553,-224 574.606,-162.935 631.178,-108.235 660.989,-82.5205"/>
<polygon fill="midnightblue" stroke="midnightblue" points="663.595,-84.9011 668.976,-75.7745 659.078,-79.5534 663.595,-84.9011"/>
</g>
<!-- Node23&#45;&gt;Node21 -->
<g id="edge36" class="edge"><title>Node23&#45;&gt;Node21</title>
<path fill="none" stroke="midnightblue" d="M561.579,-280.482C533.487,-272.272 490.82,-258.923 455,-244 303.443,-180.86 243.355,-190.821 126,-76 112.568,-62.8575 103.04,-43.4468 97.3515,-29.2595"/>
<polygon fill="midnightblue" stroke="midnightblue" points="100.528,-27.7606 93.7482,-19.6189 93.9709,-30.2114 100.528,-27.7606"/>
</g>
<!-- Node23&#45;&gt;Node22 -->
<g id="edge33" class="edge"><title>Node23&#45;&gt;Node22</title>
<path fill="none" stroke="midnightblue" d="M578.936,-280.436C568.086,-272.471 553.427,-259.515 547,-244 543.598,-235.788 545.414,-232.746 547,-224 560.728,-148.296 599.876,-64.4896 617.816,-28.7324"/>
<polygon fill="midnightblue" stroke="midnightblue" points="621.047,-30.1015 622.465,-19.602 614.809,-26.9258 621.047,-30.1015"/>
</g>
<!-- Node24 -->
<g id="node24" class="node"><title>Node24</title>
<polygon fill="white" stroke="#bfbfbf" points="562.5,-224.5 562.5,-243.5 621.5,-243.5 621.5,-224.5 562.5,-224.5"/>
<text text-anchor="middle" x="592" y="-231.5" font-family="Helvetica,sans-Serif" font-size="10.00">functional</text>
</g>
<!-- Node23&#45;&gt;Node24 -->
<g id="edge35" class="edge"><title>Node23&#45;&gt;Node24</title>
<path fill="none" stroke="midnightblue" d="M592,-280.083C592,-273.006 592,-262.861 592,-253.986"/>
<polygon fill="midnightblue" stroke="midnightblue" points="595.5,-253.751 592,-243.751 588.5,-253.751 595.5,-253.751"/>
</g>
<!-- Node25 -->
<g id="node25" class="node"><title>Node25</title>
<polygon fill="white" stroke="#bfbfbf" points="639.5,-224.5 639.5,-243.5 686.5,-243.5 686.5,-224.5 639.5,-224.5"/>
<text text-anchor="middle" x="663" y="-231.5" font-family="Helvetica,sans-Serif" font-size="10.00">swell.h</text>
</g>
<!-- Node23&#45;&gt;Node25 -->
<g id="edge39" class="edge"><title>Node23&#45;&gt;Node25</title>
<path fill="none" stroke="midnightblue" d="M603.407,-280.324C614.109,-272.185 630.341,-259.839 643.163,-250.087"/>
<polygon fill="midnightblue" stroke="midnightblue" points="645.544,-252.673 651.385,-243.834 641.307,-247.102 645.544,-252.673"/>
</g>
<!-- Node26 -->
<g id="node26" class="node"><title>Node26</title>
<polygon fill="white" stroke="#bfbfbf" points="705,-224.5 705,-243.5 767,-243.5 767,-224.5 705,-224.5"/>
<text text-anchor="middle" x="736" y="-231.5" font-family="Helvetica,sans-Serif" font-size="10.00">nanosvg.h</text>
</g>
<!-- Node23&#45;&gt;Node26 -->
<g id="edge40" class="edge"><title>Node23&#45;&gt;Node26</title>
<path fill="none" stroke="midnightblue" d="M614.817,-280.444C638.832,-271.438 676.829,-257.189 703.869,-247.049"/>
<polygon fill="midnightblue" stroke="midnightblue" points="705.155,-250.305 713.29,-243.516 702.697,-243.751 705.155,-250.305"/>
</g>
<!-- Node28&#45;&gt;Node3 -->
<g id="edge46" class="edge"><title>Node28&#45;&gt;Node3</title>
<path fill="none" stroke="midnightblue" d="M859.668,-112.368C865.18,-94.5366 877.927,-53.2953 885.352,-29.2717"/>
<polygon fill="midnightblue" stroke="midnightblue" points="888.735,-30.179 888.344,-19.5914 882.047,-28.1119 888.735,-30.179"/>
</g>
<!-- Node28&#45;&gt;Node5 -->
<g id="edge49" class="edge"><title>Node28&#45;&gt;Node5</title>
<path fill="none" stroke="midnightblue" d="M840.612,-112.324C824.329,-103.703 799.133,-90.3643 780.284,-80.3855"/>
<polygon fill="midnightblue" stroke="midnightblue" points="781.823,-77.2402 771.347,-75.6545 778.548,-83.4267 781.823,-77.2402"/>
</g>
<!-- Node28&#45;&gt;Node7 -->
<g id="edge50" class="edge"><title>Node28&#45;&gt;Node7</title>
<path fill="none" stroke="midnightblue" d="M876.807,-112.444C897.287,-103.596 929.483,-89.6875 952.865,-79.5865"/>
<polygon fill="midnightblue" stroke="midnightblue" points="954.494,-82.6953 962.286,-75.5164 951.718,-76.2692 954.494,-82.6953"/>
</g>
<!-- Node28&#45;&gt;Node12 -->
<g id="edge47" class="edge"><title>Node28&#45;&gt;Node12</title>
<path fill="none" stroke="midnightblue" d="M851.539,-112.059C842.165,-97.5817 821.533,-69.2913 796,-56 771.343,-43.1644 589.78,-22.4714 515.023,-14.3885"/>
<polygon fill="midnightblue" stroke="midnightblue" points="515.117,-10.8785 504.8,-13.2898 514.369,-17.8384 515.117,-10.8785"/>
</g>
<!-- Node28&#45;&gt;Node17 -->
<g id="edge48" class="edge"><title>Node28&#45;&gt;Node17</title>
<path fill="none" stroke="midnightblue" d="M828.954,-112.444C797.946,-102.984 747.973,-87.7377 714.569,-77.5465"/>
<polygon fill="midnightblue" stroke="midnightblue" points="715.36,-74.1285 704.773,-74.558 713.317,-80.8238 715.36,-74.1285"/>
</g>
<!-- Node28&#45;&gt;Node22 -->
<g id="edge45" class="edge"><title>Node28&#45;&gt;Node22</title>
<path fill="none" stroke="midnightblue" d="M855.813,-112.347C853.407,-98.2844 846.603,-70.5761 829,-56 803.423,-34.8205 709.461,-20.7647 659.209,-14.5878"/>
<polygon fill="midnightblue" stroke="midnightblue" points="659.534,-11.1018 649.189,-13.3895 658.703,-18.0523 659.534,-11.1018"/>
</g>
</g>
</svg>
