<?xml version="1.0" encoding="UTF-8" standalone="no"?>
<!DOCTYPE svg PUBLIC "-//W3C//DTD SVG 1.1//EN"
 "http://www.w3.org/Graphics/SVG/1.1/DTD/svg11.dtd">
<!-- Generated by graphviz version 2.36.0 (20140111.2315)
 -->
<!-- Title: IGraphics.h Pages: 1 -->
<svg width="1015pt" height="364pt"
 viewBox="0.00 0.00 1015.03 364.00" xmlns="http://www.w3.org/2000/svg" xmlns:xlink="http://www.w3.org/1999/xlink">
<g id="graph0" class="graph" transform="scale(1 1) rotate(0) translate(4 360)">
<title>IGraphics.h</title>
<polygon fill="white" stroke="none" points="-4,4 -4,-360 1011.03,-360 1011.03,4 -4,4"/>
<!-- Node1 -->
<g id="node1" class="node"><title>Node1</title>
<polygon fill="#bfbfbf" stroke="black" points="381.533,-336.5 381.533,-355.5 448.533,-355.5 448.533,-336.5 381.533,-336.5"/>
<text text-anchor="middle" x="415.033" y="-343.5" font-family="Helvetica,sans-Serif" font-size="10.00">IGraphics.h</text>
</g>
<!-- Node2 -->
<g id="node2" class="node"><title>Node2</title>
<g id="a_node2"><a xlink:href="_i_graphics_constants_8h_source.html" target="_top" xlink:title="IGraphicsConstants.h">
<polygon fill="white" stroke="black" points="739.033,-224.5 739.033,-243.5 851.033,-243.5 851.033,-224.5 739.033,-224.5"/>
<text text-anchor="middle" x="795.033" y="-231.5" font-family="Helvetica,sans-Serif" font-size="10.00">IGraphicsConstants.h</text>
</a>
</g>
</g>
<!-- Node1&#45;&gt;Node2 -->
<g id="edge1" class="edge"><title>Node1&#45;&gt;Node2</title>
<path fill="none" stroke="midnightblue" d="M420.106,-336.051C428.846,-321.561 448.22,-293.253 473.033,-280 478.642,-277.004 635.975,-255.92 728.602,-243.703"/>
<polygon fill="midnightblue" stroke="midnightblue" points="729.277,-247.144 738.734,-242.368 728.363,-240.204 729.277,-247.144"/>
</g>
<!-- Node19 -->
<g id="node19" class="node"><title>Node19</title>
<g id="a_node19"><a xlink:href="_i_graphics_structs_8h_source.html" target="_top" xlink:title="IGraphicsStructs.h">
<polygon fill="white" stroke="black" points="328.033,-280.5 328.033,-299.5 426.033,-299.5 426.033,-280.5 328.033,-280.5"/>
<text text-anchor="middle" x="377.033" y="-287.5" font-family="Helvetica,sans-Serif" font-size="10.00">IGraphicsStructs.h</text>
</a>
</g>
</g>
<!-- Node1&#45;&gt;Node19 -->
<g id="edge25" class="edge"><title>Node1&#45;&gt;Node19</title>
<path fill="none" stroke="midnightblue" d="M408.758,-336.083C403.391,-328.455 395.516,-317.264 388.955,-307.941"/>
<polygon fill="midnightblue" stroke="midnightblue" points="391.809,-305.915 383.191,-299.751 386.084,-309.943 391.809,-305.915"/>
</g>
<!-- Node24 -->
<g id="node24" class="node"><title>Node24</title>
<g id="a_node24"><a xlink:href="_i_graphics_utilites_8h_source.html" target="_top" xlink:title="IGraphicsUtilites.h">
<polygon fill="white" stroke="black" points="482.033,-280.5 482.033,-299.5 580.033,-299.5 580.033,-280.5 482.033,-280.5"/>
<text text-anchor="middle" x="531.033" y="-287.5" font-family="Helvetica,sans-Serif" font-size="10.00">IGraphicsUtilites.h</text>
</a>
</g>
</g>
<!-- Node1&#45;&gt;Node24 -->
<g id="edge36" class="edge"><title>Node1&#45;&gt;Node24</title>
<path fill="none" stroke="midnightblue" d="M433.414,-336.444C452.25,-327.675 481.765,-313.935 503.413,-303.858"/>
<polygon fill="midnightblue" stroke="midnightblue" points="505.15,-306.91 512.739,-299.516 502.196,-300.564 505.15,-306.91"/>
</g>
<!-- Node25 -->
<g id="node25" class="node"><title>Node25</title>
<g id="a_node25"><a xlink:href="_i_popup_menu_8h.html" target="_top" xlink:title="A class for setting the contents of a pop up menu. ">
<polygon fill="white" stroke="black" points="104.033,-112.5 104.033,-131.5 184.033,-131.5 184.033,-112.5 104.033,-112.5"/>
<text text-anchor="middle" x="144.033" y="-119.5" font-family="Helvetica,sans-Serif" font-size="10.00">IPopupMenu.h</text>
</a>
</g>
</g>
<!-- Node1&#45;&gt;Node25 -->
<g id="edge37" class="edge"><title>Node1&#45;&gt;Node25</title>
<path fill="none" stroke="midnightblue" d="M386.637,-336.414C345.103,-322.664 267.279,-292.238 217.033,-244 185.442,-213.671 162.415,-166.809 151.368,-141.215"/>
<polygon fill="midnightblue" stroke="midnightblue" points="154.46,-139.538 147.377,-131.659 148.001,-142.235 154.46,-139.538"/>
</g>
<!-- Node3 -->
<g id="node3" class="node"><title>Node3</title>
<g id="a_node3"><a xlink:href="_i_plug_platform_8h.html" target="_top" xlink:title="Include to get consistently named preprocessor macros for different platforms and logging functionali...">
<polygon fill="white" stroke="black" points="576.033,-168.5 576.033,-187.5 660.033,-187.5 660.033,-168.5 576.033,-168.5"/>
<text text-anchor="middle" x="618.033" y="-175.5" font-family="Helvetica,sans-Serif" font-size="10.00">IPlugPlatform.h</text>
</a>
</g>
</g>
<!-- Node2&#45;&gt;Node3 -->
<g id="edge2" class="edge"><title>Node2&#45;&gt;Node3</title>
<path fill="none" stroke="midnightblue" d="M766.987,-224.444C736.951,-215.28 689.12,-200.688 655.791,-190.519"/>
<polygon fill="midnightblue" stroke="midnightblue" points="656.534,-187.087 645.948,-187.516 654.492,-193.782 656.534,-187.087"/>
</g>
<!-- Node4 -->
<g id="node4" class="node"><title>Node4</title>
<polygon fill="white" stroke="#bfbfbf" points="353.033,-0.5 353.033,-19.5 399.033,-19.5 399.033,-0.5 353.033,-0.5"/>
<text text-anchor="middle" x="376.033" y="-7.5" font-family="Helvetica,sans-Serif" font-size="10.00">cstring</text>
</g>
<!-- Node3&#45;&gt;Node4 -->
<g id="edge3" class="edge"><title>Node3&#45;&gt;Node4</title>
<path fill="none" stroke="midnightblue" d="M591.824,-168.453C551.391,-154.28 472.951,-122.761 420.033,-76 404.914,-62.6396 392.565,-42.9905 384.84,-28.7963"/>
<polygon fill="midnightblue" stroke="midnightblue" points="387.774,-26.8529 380.058,-19.5926 381.563,-30.0801 387.774,-26.8529"/>
</g>
<!-- Node5 -->
<g id="node5" class="node"><title>Node5</title>
<polygon fill="white" stroke="#bfbfbf" points="887.533,-0.5 887.533,-19.5 932.533,-19.5 932.533,-0.5 887.533,-0.5"/>
<text text-anchor="middle" x="910.033" y="-7.5" font-family="Helvetica,sans-Serif" font-size="10.00">cstdlib</text>
</g>
<!-- Node3&#45;&gt;Node5 -->
<g id="edge4" class="edge"><title>Node3&#45;&gt;Node5</title>
<path fill="none" stroke="midnightblue" d="M660.195,-170.606C716.474,-160.071 816.319,-134.133 879.033,-76 892.478,-63.538 900.691,-44.0282 905.255,-29.6321"/>
<polygon fill="midnightblue" stroke="midnightblue" points="908.676,-30.3984 908.06,-19.8215 901.946,-28.4741 908.676,-30.3984"/>
</g>
<!-- Node6 -->
<g id="node6" class="node"><title>Node6</title>
<g id="a_node6"><a xlink:href="_i_plug_logger_8h.html" target="_top" xlink:title="IPlug logging a.k.a tracing functionailty. ">
<polygon fill="white" stroke="black" points="545.533,-112.5 545.533,-131.5 622.533,-131.5 622.533,-112.5 545.533,-112.5"/>
<text text-anchor="middle" x="584.033" y="-119.5" font-family="Helvetica,sans-Serif" font-size="10.00">IPlugLogger.h</text>
</a>
</g>
</g>
<!-- Node3&#45;&gt;Node6 -->
<g id="edge5" class="edge"><title>Node3&#45;&gt;Node6</title>
<path fill="none" stroke="midnightblue" d="M612.419,-168.083C607.666,-160.534 600.715,-149.495 594.882,-140.23"/>
<polygon fill="midnightblue" stroke="midnightblue" points="597.833,-138.349 589.543,-131.751 591.91,-142.078 597.833,-138.349"/>
</g>
<!-- Node6&#45;&gt;Node4 -->
<g id="edge10" class="edge"><title>Node6&#45;&gt;Node4</title>
<path fill="none" stroke="midnightblue" d="M545.654,-112.444C517.893,-105.246 480.127,-93.3254 450.033,-76 427.026,-62.7548 404.709,-41.6692 390.706,-27.1239"/>
<polygon fill="midnightblue" stroke="midnightblue" points="393.229,-24.6979 383.831,-19.8075 388.128,-29.4916 393.229,-24.6979"/>
</g>
<!-- Node7 -->
<g id="node7" class="node"><title>Node7</title>
<polygon fill="white" stroke="#bfbfbf" points="424.533,-0.5 424.533,-19.5 467.533,-19.5 467.533,-0.5 424.533,-0.5"/>
<text text-anchor="middle" x="446.033" y="-7.5" font-family="Helvetica,sans-Serif" font-size="10.00">cstdio</text>
</g>
<!-- Node6&#45;&gt;Node7 -->
<g id="edge6" class="edge"><title>Node6&#45;&gt;Node7</title>
<path fill="none" stroke="midnightblue" d="M545.253,-115.512C519.18,-109.861 485.889,-98.5304 465.033,-76 453.438,-63.4735 448.883,-44.2485 447.113,-29.9521"/>
<polygon fill="midnightblue" stroke="midnightblue" points="450.58,-29.4168 446.209,-19.7654 443.607,-30.0357 450.58,-29.4168"/>
</g>
<!-- Node8 -->
<g id="node8" class="node"><title>Node8</title>
<polygon fill="white" stroke="#bfbfbf" points="713.033,-0.5 713.033,-19.5 759.033,-19.5 759.033,-0.5 713.033,-0.5"/>
<text text-anchor="middle" x="736.033" y="-7.5" font-family="Helvetica,sans-Serif" font-size="10.00">cctype</text>
</g>
<!-- Node6&#45;&gt;Node8 -->
<g id="edge7" class="edge"><title>Node6&#45;&gt;Node8</title>
<path fill="none" stroke="midnightblue" d="M622.691,-119.745C655.57,-116.479 701.411,-106.312 727.033,-76 737.711,-63.368 739.172,-44.1572 738.436,-29.8928"/>
<polygon fill="midnightblue" stroke="midnightblue" points="741.904,-29.3742 737.509,-19.7337 734.933,-30.0104 741.904,-29.3742"/>
</g>
<!-- Node9 -->
<g id="node9" class="node"><title>Node9</title>
<polygon fill="white" stroke="#bfbfbf" points="474.533,-56.5 474.533,-75.5 523.533,-75.5 523.533,-56.5 474.533,-56.5"/>
<text text-anchor="middle" x="499.033" y="-63.5" font-family="Helvetica,sans-Serif" font-size="10.00">cstdarg</text>
</g>
<!-- Node6&#45;&gt;Node9 -->
<g id="edge8" class="edge"><title>Node6&#45;&gt;Node9</title>
<path fill="none" stroke="midnightblue" d="M570.377,-112.324C557.117,-103.9 536.765,-90.9709 521.187,-81.0741"/>
<polygon fill="midnightblue" stroke="midnightblue" points="522.974,-78.0626 512.656,-75.6545 519.22,-83.9711 522.974,-78.0626"/>
</g>
<!-- Node10 -->
<g id="node10" class="node"><title>Node10</title>
<polygon fill="white" stroke="#bfbfbf" points="542.033,-56.5 542.033,-75.5 588.033,-75.5 588.033,-56.5 542.033,-56.5"/>
<text text-anchor="middle" x="565.033" y="-63.5" font-family="Helvetica,sans-Serif" font-size="10.00">cstdint</text>
</g>
<!-- Node6&#45;&gt;Node10 -->
<g id="edge9" class="edge"><title>Node6&#45;&gt;Node10</title>
<path fill="none" stroke="midnightblue" d="M580.896,-112.083C578.35,-104.849 574.677,-94.4087 571.506,-85.3968"/>
<polygon fill="midnightblue" stroke="midnightblue" points="574.733,-84.0225 568.112,-75.7511 568.13,-86.3459 574.733,-84.0225"/>
</g>
<!-- Node11 -->
<g id="node11" class="node"><title>Node11</title>
<polygon fill="white" stroke="#bfbfbf" points="606.533,-56.5 606.533,-75.5 647.533,-75.5 647.533,-56.5 606.533,-56.5"/>
<text text-anchor="middle" x="627.033" y="-63.5" font-family="Helvetica,sans-Serif" font-size="10.00">ctime</text>
</g>
<!-- Node6&#45;&gt;Node11 -->
<g id="edge11" class="edge"><title>Node6&#45;&gt;Node11</title>
<path fill="none" stroke="midnightblue" d="M591.134,-112.083C597.27,-104.377 606.303,-93.0333 613.773,-83.6531"/>
<polygon fill="midnightblue" stroke="midnightblue" points="616.574,-85.7542 620.065,-75.7511 611.098,-81.3936 616.574,-85.7542"/>
</g>
<!-- Node12 -->
<g id="node12" class="node"><title>Node12</title>
<polygon fill="white" stroke="#bfbfbf" points="210.533,-56.5 210.533,-75.5 259.533,-75.5 259.533,-56.5 210.533,-56.5"/>
<text text-anchor="middle" x="235.033" y="-63.5" font-family="Helvetica,sans-Serif" font-size="10.00">cassert</text>
</g>
<!-- Node6&#45;&gt;Node12 -->
<g id="edge12" class="edge"><title>Node6&#45;&gt;Node12</title>
<path fill="none" stroke="midnightblue" d="M545.479,-116.963C487.659,-110.589 374.927,-96.9228 269.671,-75.9131"/>
<polygon fill="midnightblue" stroke="midnightblue" points="270.332,-72.4761 259.837,-73.9239 268.944,-79.3371 270.332,-72.4761"/>
</g>
<!-- Node13 -->
<g id="node13" class="node"><title>Node13</title>
<polygon fill="white" stroke="#bfbfbf" points="278.033,-56.5 278.033,-75.5 342.033,-75.5 342.033,-56.5 278.033,-56.5"/>
<text text-anchor="middle" x="310.033" y="-63.5" font-family="Helvetica,sans-Serif" font-size="10.00">wdlstring.h</text>
</g>
<!-- Node6&#45;&gt;Node13 -->
<g id="edge13" class="edge"><title>Node6&#45;&gt;Node13</title>
<path fill="none" stroke="midnightblue" d="M545.357,-113.378C494.326,-103.32 404.825,-85.6816 352.136,-75.2976"/>
<polygon fill="midnightblue" stroke="midnightblue" points="352.599,-71.8217 342.111,-73.3219 351.246,-78.6896 352.599,-71.8217"/>
</g>
<!-- Node14 -->
<g id="node14" class="node"><title>Node14</title>
<polygon fill="white" stroke="#bfbfbf" points="666.033,-56.5 666.033,-75.5 718.033,-75.5 718.033,-56.5 666.033,-56.5"/>
<text text-anchor="middle" x="692.033" y="-63.5" font-family="Helvetica,sans-Serif" font-size="10.00">mutex.h</text>
</g>
<!-- Node6&#45;&gt;Node14 -->
<g id="edge14" class="edge"><title>Node6&#45;&gt;Node14</title>
<path fill="none" stroke="midnightblue" d="M601.385,-112.324C618.705,-103.664 645.549,-90.2424 665.535,-80.249"/>
<polygon fill="midnightblue" stroke="midnightblue" points="667.345,-83.2572 674.724,-75.6545 664.215,-76.9962 667.345,-83.2572"/>
</g>
<!-- Node15 -->
<g id="node15" class="node"><title>Node15</title>
<g id="a_node15"><a xlink:href="_i_plug_constants_8h.html" target="_top" xlink:title="Constant definitions, Types, magic numbers. ">
<polygon fill="white" stroke="black" points="777.033,-0.5 777.033,-19.5 869.033,-19.5 869.033,-0.5 777.033,-0.5"/>
<text text-anchor="middle" x="823.033" y="-7.5" font-family="Helvetica,sans-Serif" font-size="10.00">IPlugConstants.h</text>
</a>
</g>
</g>
<!-- Node6&#45;&gt;Node15 -->
<g id="edge15" class="edge"><title>Node6&#45;&gt;Node15</title>
<path fill="none" stroke="midnightblue" d="M622.712,-120.675C691.931,-119.184 832.614,-111.719 863.033,-76 876.348,-60.3655 858.88,-39.8378 843.022,-26.072"/>
<polygon fill="midnightblue" stroke="midnightblue" points="845.004,-23.1719 835.047,-19.5515 840.573,-28.591 845.004,-23.1719"/>
</g>
<!-- Node16 -->
<g id="node16" class="node"><title>Node16</title>
<g id="a_node16"><a xlink:href="_i_plug_utilities_8h.html" target="_top" xlink:title="Utility functions and macros. ">
<polygon fill="white" stroke="black" points="774.033,-56.5 774.033,-75.5 854.033,-75.5 854.033,-56.5 774.033,-56.5"/>
<text text-anchor="middle" x="814.033" y="-63.5" font-family="Helvetica,sans-Serif" font-size="10.00">IPlugUtilities.h</text>
</a>
</g>
</g>
<!-- Node6&#45;&gt;Node16 -->
<g id="edge16" class="edge"><title>Node6&#45;&gt;Node16</title>
<path fill="none" stroke="midnightblue" d="M620.477,-112.444C660.432,-103.063 724.62,-87.9926 768.018,-77.8036"/>
<polygon fill="midnightblue" stroke="midnightblue" points="768.824,-81.2095 777.76,-75.5164 767.224,-74.3948 768.824,-81.2095"/>
</g>
<!-- Node16&#45;&gt;Node3 -->
<g id="edge24" class="edge"><title>Node16&#45;&gt;Node3</title>
<path fill="none" stroke="midnightblue" d="M798.725,-75.5914C764.8,-94.6307 683.074,-140.497 642.183,-163.446"/>
<polygon fill="midnightblue" stroke="midnightblue" points="640.421,-160.422 633.413,-168.368 643.847,-166.526 640.421,-160.422"/>
</g>
<!-- Node16&#45;&gt;Node4 -->
<g id="edge21" class="edge"><title>Node16&#45;&gt;Node4</title>
<path fill="none" stroke="midnightblue" d="M773.945,-60.7428C679.796,-50.7068 449.861,-25.9624 415.033,-20 413.081,-19.6658 411.081,-19.2945 409.066,-18.8985"/>
<polygon fill="midnightblue" stroke="midnightblue" points="409.551,-15.4235 399.042,-16.7696 408.097,-22.2707 409.551,-15.4235"/>
</g>
<!-- Node16&#45;&gt;Node5 -->
<g id="edge20" class="edge"><title>Node16&#45;&gt;Node5</title>
<path fill="none" stroke="midnightblue" d="M829.457,-56.324C844.573,-47.8215 867.849,-34.7288 885.504,-24.7975"/>
<polygon fill="midnightblue" stroke="midnightblue" points="887.648,-27.6077 894.648,-19.6545 884.216,-21.5066 887.648,-27.6077"/>
</g>
<!-- Node16&#45;&gt;Node7 -->
<g id="edge19" class="edge"><title>Node16&#45;&gt;Node7</title>
<path fill="none" stroke="midnightblue" d="M773.95,-59.1183C700.215,-48.2983 544.5,-25.449 477.632,-15.6368"/>
<polygon fill="midnightblue" stroke="midnightblue" points="478.091,-12.1668 467.689,-14.1777 477.075,-19.0926 478.091,-12.1668"/>
</g>
<!-- Node16&#45;&gt;Node8 -->
<g id="edge22" class="edge"><title>Node16&#45;&gt;Node8</title>
<path fill="none" stroke="midnightblue" d="M801.501,-56.324C789.447,-47.979 771.006,-35.2122 756.765,-25.3524"/>
<polygon fill="midnightblue" stroke="midnightblue" points="758.748,-22.469 748.534,-19.6545 754.764,-28.2243 758.748,-22.469"/>
</g>
<!-- Node16&#45;&gt;Node15 -->
<g id="edge23" class="edge"><title>Node16&#45;&gt;Node15</title>
<path fill="none" stroke="midnightblue" d="M815.519,-56.083C816.712,-48.9272 818.427,-38.6353 819.918,-29.6911"/>
<polygon fill="midnightblue" stroke="midnightblue" points="823.383,-30.1904 821.575,-19.7511 816.478,-29.0396 823.383,-30.1904"/>
</g>
<!-- Node17 -->
<g id="node17" class="node"><title>Node17</title>
<polygon fill="white" stroke="#bfbfbf" points="951.033,-0.5 951.033,-19.5 1007.03,-19.5 1007.03,-0.5 951.033,-0.5"/>
<text text-anchor="middle" x="979.033" y="-7.5" font-family="Helvetica,sans-Serif" font-size="10.00">algorithm</text>
</g>
<!-- Node16&#45;&gt;Node17 -->
<g id="edge17" class="edge"><title>Node16&#45;&gt;Node17</title>
<path fill="none" stroke="midnightblue" d="M840.178,-56.4435C868.057,-47.3196 912.382,-32.8133 943.433,-22.6509"/>
<polygon fill="midnightblue" stroke="midnightblue" points="944.596,-25.9533 953.011,-19.5164 942.418,-19.3005 944.596,-25.9533"/>
</g>
<!-- Node18 -->
<g id="node18" class="node"><title>Node18</title>
<polygon fill="white" stroke="#bfbfbf" points="84.0333,-0.5 84.0333,-19.5 128.033,-19.5 128.033,-0.5 84.0333,-0.5"/>
<text text-anchor="middle" x="106.033" y="-7.5" font-family="Helvetica,sans-Serif" font-size="10.00">cmath</text>
</g>
<!-- Node16&#45;&gt;Node18 -->
<g id="edge18" class="edge"><title>Node16&#45;&gt;Node18</title>
<path fill="none" stroke="midnightblue" d="M773.776,-60.5748C759.076,-59.0277 742.311,-57.3434 727.033,-56 501.75,-36.1897 229.927,-18.7039 138.1,-12.9745"/>
<polygon fill="midnightblue" stroke="midnightblue" points="138.252,-9.47723 128.054,-12.3498 137.817,-16.4637 138.252,-9.47723"/>
</g>
<!-- Node19&#45;&gt;Node2 -->
<g id="edge35" class="edge"><title>Node19&#45;&gt;Node2</title>
<path fill="none" stroke="midnightblue" d="M426.203,-281.897C430.877,-281.246 435.544,-280.604 440.033,-280 566.566,-262.972 598.384,-260.141 725.033,-244 726.298,-243.839 727.576,-243.676 728.863,-243.512"/>
<polygon fill="midnightblue" stroke="midnightblue" points="729.395,-246.972 738.871,-242.232 728.508,-240.029 729.395,-246.972"/>
</g>
<!-- Node19&#45;&gt;Node3 -->
<g id="edge34" class="edge"><title>Node19&#45;&gt;Node3</title>
<path fill="none" stroke="midnightblue" d="M399.146,-280.497C421.502,-271.775 456.949,-257.596 487.033,-244 524.329,-227.145 566.599,-205.743 592.79,-192.204"/>
<polygon fill="midnightblue" stroke="midnightblue" points="594.409,-195.308 601.673,-187.595 591.185,-189.094 594.409,-195.308"/>
</g>
<!-- Node19&#45;&gt;Node12 -->
<g id="edge27" class="edge"><title>Node19&#45;&gt;Node12</title>
<path fill="none" stroke="midnightblue" d="M327.853,-288.057C294.684,-284.533 253.087,-273.875 231.033,-244 195.947,-196.471 215.8,-120.54 227.874,-85.6452"/>
<polygon fill="midnightblue" stroke="midnightblue" points="231.31,-86.4395 231.442,-75.8455 224.732,-84.0449 231.31,-86.4395"/>
</g>
<!-- Node19&#45;&gt;Node13 -->
<g id="edge30" class="edge"><title>Node19&#45;&gt;Node13</title>
<path fill="none" stroke="midnightblue" d="M405.048,-280.397C422.207,-273.515 442.782,-261.984 453.033,-244 457.435,-236.278 456.243,-232.289 453.033,-224 428.351,-160.246 364.399,-106.479 331.015,-81.6799"/>
<polygon fill="midnightblue" stroke="midnightblue" points="332.994,-78.7911 322.848,-75.7393 328.876,-84.452 332.994,-78.7911"/>
</g>
<!-- Node19&#45;&gt;Node17 -->
<g id="edge29" class="edge"><title>Node19&#45;&gt;Node17</title>
<path fill="none" stroke="midnightblue" d="M413.107,-280.463C491.223,-261.109 680.548,-209.472 824.033,-132 879.841,-101.868 936.279,-51.745 963.042,-26.5155"/>
<polygon fill="midnightblue" stroke="midnightblue" points="965.541,-28.9691 970.361,-19.5346 960.709,-23.9037 965.541,-28.9691"/>
</g>
<!-- Node19&#45;&gt;Node18 -->
<g id="edge26" class="edge"><title>Node19&#45;&gt;Node18</title>
<path fill="none" stroke="midnightblue" d="M327.747,-285.014C225.557,-275.388 0.0333068,-246.499 0.0333068,-179 0.0333068,-179 0.0333068,-179 0.0333068,-121 0.0333068,-90.9022 -0.0999205,-79.2335 19.0333,-56 33.2364,-38.7532 55.7768,-27.3563 74.3554,-20.3475"/>
<polygon fill="midnightblue" stroke="midnightblue" points="75.6444,-23.6044 83.9172,-16.9854 73.3223,-17.0008 75.6444,-23.6044"/>
</g>
<!-- Node20 -->
<g id="node20" class="node"><title>Node20</title>
<polygon fill="white" stroke="#bfbfbf" points="240.533,-224.5 240.533,-243.5 299.533,-243.5 299.533,-224.5 240.533,-224.5"/>
<text text-anchor="middle" x="270.033" y="-231.5" font-family="Helvetica,sans-Serif" font-size="10.00">functional</text>
</g>
<!-- Node19&#45;&gt;Node20 -->
<g id="edge28" class="edge"><title>Node19&#45;&gt;Node20</title>
<path fill="none" stroke="midnightblue" d="M359.842,-280.324C342.682,-271.664 316.088,-258.242 296.286,-248.249"/>
<polygon fill="midnightblue" stroke="midnightblue" points="297.687,-245.035 287.182,-243.655 294.533,-251.285 297.687,-245.035"/>
</g>
<!-- Node21 -->
<g id="node21" class="node"><title>Node21</title>
<polygon fill="white" stroke="#bfbfbf" points="28.5333,-56.5 28.5333,-75.5 77.5333,-75.5 77.5333,-56.5 28.5333,-56.5"/>
<text text-anchor="middle" x="53.0333" y="-63.5" font-family="Helvetica,sans-Serif" font-size="10.00">ptrlist.h</text>
</g>
<!-- Node19&#45;&gt;Node21 -->
<g id="edge31" class="edge"><title>Node19&#45;&gt;Node21</title>
<path fill="none" stroke="midnightblue" d="M327.842,-281.344C294.96,-274.779 251.565,-263.244 217.033,-244 152.737,-208.168 142.502,-188.255 95.0333,-132 82.4833,-117.127 70.6895,-98.276 62.8138,-84.7097"/>
<polygon fill="midnightblue" stroke="midnightblue" points="65.7942,-82.87 57.8167,-75.8978 59.7051,-86.323 65.7942,-82.87"/>
</g>
<!-- Node22 -->
<g id="node22" class="node"><title>Node22</title>
<polygon fill="white" stroke="#bfbfbf" points="317.533,-224.5 317.533,-243.5 364.533,-243.5 364.533,-224.5 317.533,-224.5"/>
<text text-anchor="middle" x="341.033" y="-231.5" font-family="Helvetica,sans-Serif" font-size="10.00">swell.h</text>
</g>
<!-- Node19&#45;&gt;Node22 -->
<g id="edge32" class="edge"><title>Node19&#45;&gt;Node22</title>
<path fill="none" stroke="midnightblue" d="M371.089,-280.083C366.056,-272.534 358.697,-261.495 352.52,-252.23"/>
<polygon fill="midnightblue" stroke="midnightblue" points="355.327,-250.13 346.867,-243.751 349.502,-254.013 355.327,-250.13"/>
</g>
<!-- Node23 -->
<g id="node23" class="node"><title>Node23</title>
<polygon fill="white" stroke="#bfbfbf" points="383.033,-224.5 383.033,-243.5 445.033,-243.5 445.033,-224.5 383.033,-224.5"/>
<text text-anchor="middle" x="414.033" y="-231.5" font-family="Helvetica,sans-Serif" font-size="10.00">nanosvg.h</text>
</g>
<!-- Node19&#45;&gt;Node23 -->
<g id="edge33" class="edge"><title>Node19&#45;&gt;Node23</title>
<path fill="none" stroke="midnightblue" d="M383.143,-280.083C388.316,-272.534 395.879,-261.495 402.228,-252.23"/>
<polygon fill="midnightblue" stroke="midnightblue" points="405.272,-253.979 408.037,-243.751 399.498,-250.022 405.272,-253.979"/>
</g>
<!-- Node25&#45;&gt;Node4 -->
<g id="edge39" class="edge"><title>Node25&#45;&gt;Node4</title>
<path fill="none" stroke="midnightblue" d="M144.646,-112.369C146.125,-98.336 151.139,-70.6705 168.033,-56 193.805,-33.6197 290.73,-20.1036 342.671,-14.3148"/>
<polygon fill="midnightblue" stroke="midnightblue" points="343.162,-17.7823 352.728,-13.2281 342.41,-10.8228 343.162,-17.7823"/>
</g>
<!-- Node25&#45;&gt;Node7 -->
<g id="edge40" class="edge"><title>Node25&#45;&gt;Node7</title>
<path fill="none" stroke="midnightblue" d="M149.028,-112.143C157.631,-97.7865 176.69,-69.6658 201.033,-56 282.461,-10.2885 316.558,-38.7691 408.033,-20 410.109,-19.5742 412.244,-19.1182 414.393,-18.6457"/>
<polygon fill="midnightblue" stroke="midnightblue" points="415.41,-22.0037 424.381,-16.3668 413.853,-15.1791 415.41,-22.0037"/>
</g>
<!-- Node25&#45;&gt;Node12 -->
<g id="edge41" class="edge"><title>Node25&#45;&gt;Node12</title>
<path fill="none" stroke="midnightblue" d="M158.654,-112.324C172.982,-103.822 195.046,-90.7288 211.782,-80.7975"/>
<polygon fill="midnightblue" stroke="midnightblue" points="213.635,-83.7677 220.449,-75.6545 210.063,-77.7478 213.635,-83.7677"/>
</g>
<!-- Node25&#45;&gt;Node13 -->
<g id="edge42" class="edge"><title>Node25&#45;&gt;Node13</title>
<path fill="none" stroke="midnightblue" d="M170.337,-112.444C198.384,-103.32 242.978,-88.8133 274.218,-78.6509"/>
<polygon fill="midnightblue" stroke="midnightblue" points="275.426,-81.9383 283.853,-75.5164 273.261,-75.2816 275.426,-81.9383"/>
</g>
<!-- Node25&#45;&gt;Node18 -->
<g id="edge38" class="edge"><title>Node25&#45;&gt;Node18</title>
<path fill="none" stroke="midnightblue" d="M141.052,-112.368C134.891,-94.5366 120.644,-53.2953 112.345,-29.2717"/>
<polygon fill="midnightblue" stroke="midnightblue" points="115.575,-27.9005 109.001,-19.5914 108.958,-30.1862 115.575,-27.9005"/>
</g>
<!-- Node25&#45;&gt;Node21 -->
<g id="edge43" class="edge"><title>Node25&#45;&gt;Node21</title>
<path fill="none" stroke="midnightblue" d="M129.413,-112.324C115.084,-103.822 93.0208,-90.7288 76.2846,-80.7975"/>
<polygon fill="midnightblue" stroke="midnightblue" points="78.0037,-77.7478 67.6177,-75.6545 74.4315,-83.7677 78.0037,-77.7478"/>
</g>
</g>
</svg>
