<?xml version="1.0" encoding="UTF-8" standalone="no"?>
<!DOCTYPE svg PUBLIC "-//W3C//DTD SVG 1.1//EN"
 "http://www.w3.org/Graphics/SVG/1.1/DTD/svg11.dtd">
<!-- Generated by graphviz version 2.36.0 (20140111.2315)
 -->
<!-- Title: IPlugProcessor.h Pages: 1 -->
<svg width="325pt" height="196pt"
 viewBox="0.00 0.00 325.00 196.00" xmlns="http://www.w3.org/2000/svg" xmlns:xlink="http://www.w3.org/1999/xlink">
<g id="graph0" class="graph" transform="scale(1 1) rotate(0) translate(4 192)">
<title>IPlugProcessor.h</title>
<polygon fill="white" stroke="none" points="-4,4 -4,-192 321,-192 321,4 -4,4"/>
<!-- Node1 -->
<g id="node1" class="node"><title>Node1</title>
<polygon fill="#bfbfbf" stroke="black" points="220,-168.5 220,-187.5 312,-187.5 312,-168.5 220,-168.5"/>
<text text-anchor="middle" x="266" y="-175.5" font-family="Helvetica,sans-Serif" font-size="10.00">IPlugProcessor.h</text>
</g>
<!-- Node2 -->
<g id="node2" class="node"><title>Node2</title>
<g id="a_node2"><a xlink:href="_i_plug_base__select_8h_source.html" target="_top" xlink:title="IPlugBase_select.h">
<polygon fill="white" stroke="black" points="95.5,-112.5 95.5,-131.5 196.5,-131.5 196.5,-112.5 95.5,-112.5"/>
<text text-anchor="middle" x="146" y="-119.5" font-family="Helvetica,sans-Serif" font-size="10.00">IPlugBase_select.h</text>
</a>
</g>
</g>
<!-- Node1&#45;&gt;Node2 -->
<g id="edge1" class="edge"><title>Node1&#45;&gt;Node2</title>
<path fill="none" stroke="midnightblue" d="M237.627,-164.232C215.18,-154.131 184.465,-140.309 164.925,-131.516"/>
<polygon fill="midnightblue" stroke="midnightblue" points="236.43,-167.532 246.986,-168.444 239.303,-161.148 236.43,-167.532"/>
</g>
<!-- Node8 -->
<g id="node8" class="node"><title>Node8</title>
<g id="a_node8"><a xlink:href="_i_plug_processor_8cpp_source.html" target="_top" xlink:title="IPlugProcessor.cpp">
<polygon fill="white" stroke="black" points="215,-112.5 215,-131.5 317,-131.5 317,-112.5 215,-112.5"/>
<text text-anchor="middle" x="266" y="-119.5" font-family="Helvetica,sans-Serif" font-size="10.00">IPlugProcessor.cpp</text>
</a>
</g>
</g>
<!-- Node1&#45;&gt;Node8 -->
<g id="edge7" class="edge"><title>Node1&#45;&gt;Node8</title>
<path fill="none" stroke="midnightblue" d="M259.528,-158.101C258.896,-149.136 259.343,-138.858 260.869,-131.751"/>
<polygon fill="midnightblue" stroke="midnightblue" points="256.066,-158.622 260.834,-168.083 263.007,-157.713 256.066,-158.622"/>
</g>
<!-- Node3 -->
<g id="node3" class="node"><title>Node3</title>
<g id="a_node3"><a xlink:href="_i_plug_presets_8cpp_source.html" target="_top" xlink:title="IPlugPresets.cpp">
<polygon fill="white" stroke="black" points="0,-56.5 0,-75.5 92,-75.5 92,-56.5 0,-56.5"/>
<text text-anchor="middle" x="46" y="-63.5" font-family="Helvetica,sans-Serif" font-size="10.00">IPlugPresets.cpp</text>
</a>
</g>
</g>
<!-- Node2&#45;&gt;Node3 -->
<g id="edge2" class="edge"><title>Node2&#45;&gt;Node3</title>
<path fill="none" stroke="midnightblue" d="M120.912,-107.453C102.451,-97.4835 77.9034,-84.2279 62.0269,-75.6545"/>
<polygon fill="midnightblue" stroke="midnightblue" points="119.471,-110.652 129.933,-112.324 122.797,-104.493 119.471,-110.652"/>
</g>
<!-- Node4 -->
<g id="node4" class="node"><title>Node4</title>
<g id="a_node4"><a xlink:href="_i_plug_v_s_t2_8h.html" target="_top" xlink:title="IPlugVST2.h">
<polygon fill="white" stroke="black" points="110,-56.5 110,-75.5 182,-75.5 182,-56.5 110,-56.5"/>
<text text-anchor="middle" x="146" y="-63.5" font-family="Helvetica,sans-Serif" font-size="10.00">IPlugVST2.h</text>
</a>
</g>
</g>
<!-- Node2&#45;&gt;Node4 -->
<g id="edge3" class="edge"><title>Node2&#45;&gt;Node4</title>
<path fill="none" stroke="midnightblue" d="M146,-101.805C146,-92.9102 146,-82.7798 146,-75.7511"/>
<polygon fill="midnightblue" stroke="midnightblue" points="142.5,-102.083 146,-112.083 149.5,-102.083 142.5,-102.083"/>
</g>
<!-- Node6 -->
<g id="node6" class="node"><title>Node6</title>
<g id="a_node6"><a xlink:href="_i_plug_v_s_t3_8h.html" target="_top" xlink:title="VST3 base class for an IPlug plug&#45;in, inherits from IPlugBase or IPlugBaseGraphics. ">
<polygon fill="white" stroke="black" points="205,-56.5 205,-75.5 277,-75.5 277,-56.5 205,-56.5"/>
<text text-anchor="middle" x="241" y="-63.5" font-family="Helvetica,sans-Serif" font-size="10.00">IPlugVST3.h</text>
</a>
</g>
</g>
<!-- Node2&#45;&gt;Node6 -->
<g id="edge5" class="edge"><title>Node2&#45;&gt;Node6</title>
<path fill="none" stroke="midnightblue" d="M170.318,-107.177C187.799,-97.2407 210.83,-84.1492 225.774,-75.6545"/>
<polygon fill="midnightblue" stroke="midnightblue" points="168.227,-104.339 161.263,-112.324 171.687,-110.425 168.227,-104.339"/>
</g>
<!-- Node5 -->
<g id="node5" class="node"><title>Node5</title>
<g id="a_node5"><a xlink:href="_i_plug_v_s_t2_8cpp_source.html" target="_top" xlink:title="IPlugVST2.cpp">
<polygon fill="white" stroke="black" points="101.5,-0.5 101.5,-19.5 184.5,-19.5 184.5,-0.5 101.5,-0.5"/>
<text text-anchor="middle" x="143" y="-7.5" font-family="Helvetica,sans-Serif" font-size="10.00">IPlugVST2.cpp</text>
</a>
</g>
</g>
<!-- Node4&#45;&gt;Node5 -->
<g id="edge4" class="edge"><title>Node4&#45;&gt;Node5</title>
<path fill="none" stroke="midnightblue" d="M144.934,-45.8045C144.439,-36.9102 143.877,-26.7798 143.486,-19.7511"/>
<polygon fill="midnightblue" stroke="midnightblue" points="141.455,-46.2926 145.505,-56.083 148.444,-45.9042 141.455,-46.2926"/>
</g>
<!-- Node7 -->
<g id="node7" class="node"><title>Node7</title>
<g id="a_node7"><a xlink:href="_i_plug_v_s_t3_8cpp_source.html" target="_top" xlink:title="IPlugVST3.cpp">
<polygon fill="white" stroke="black" points="202.5,-0.5 202.5,-19.5 285.5,-19.5 285.5,-0.5 202.5,-0.5"/>
<text text-anchor="middle" x="244" y="-7.5" font-family="Helvetica,sans-Serif" font-size="10.00">IPlugVST3.cpp</text>
</a>
</g>
</g>
<!-- Node6&#45;&gt;Node7 -->
<g id="edge6" class="edge"><title>Node6&#45;&gt;Node7</title>
<path fill="none" stroke="midnightblue" d="M242.066,-45.8045C242.561,-36.9102 243.123,-26.7798 243.514,-19.7511"/>
<polygon fill="midnightblue" stroke="midnightblue" points="238.556,-45.9042 241.495,-56.083 245.545,-46.2926 238.556,-45.9042"/>
</g>
<!-- Node8&#45;&gt;Node1 -->
<g id="edge8" class="edge"><title>Node8&#45;&gt;Node1</title>
<path fill="none" stroke="midnightblue" d="M272.458,-141.691C273.106,-150.635 272.676,-160.927 271.166,-168.083"/>
<polygon fill="midnightblue" stroke="midnightblue" points="275.923,-141.2 271.131,-131.751 268.985,-142.126 275.923,-141.2"/>
</g>
</g>
</svg>
