<?xml version="1.0" encoding="UTF-8" standalone="no"?>
<!DOCTYPE svg PUBLIC "-//W3C//DTD SVG 1.1//EN"
 "http://www.w3.org/Graphics/SVG/1.1/DTD/svg11.dtd">
<!-- Generated by graphviz version 2.36.0 (20140111.2315)
 -->
<!-- Title: IPlug_include_in_plug_hdr.h Pages: 1 -->
<!--zoomable 264 -->
<svg id="main" version="1.1" xmlns="http://www.w3.org/2000/svg" xmlns:xlink="http://www.w3.org/1999/xlink" xml:space="preserve" onload="init(evt)">
<style type="text/css"><![CDATA[
.edge:hover path { stroke: red; }
.edge:hover polygon { stroke: red; fill: red; }
]]></style>
<script type="text/javascript"><![CDATA[
var edges = document.getElementsByTagName('g');
if (edges && edges.length) {
  for (var i=0;i<edges.length;i++) {
    if (edges[i].id.substr(0,4)=='edge') {
      edges[i].setAttribute('class','edge');
    }
  }
}
]]></script>
        <defs>
                <circle id="rim" cx="0" cy="0" r="7"/>
                <circle id="rim2" cx="0" cy="0" r="3.5"/>
                <g id="zoomPlus">
                        <use xlink:href="#rim" fill="#404040">
                                <set attributeName="fill" to="#808080" begin="zoomplus.mouseover" end="zoomplus.mouseout"/>
                        </use>
                        <path d="M-4,0h8M0,-4v8" fill="none" stroke="white" stroke-width="1.5" pointer-events="none"/>
                </g>
                <g id="zoomMin">
                        <use xlink:href="#rim" fill="#404040">
                                <set attributeName="fill" to="#808080" begin="zoomminus.mouseover" end="zoomminus.mouseout"/>
                        </use>
                        <path d="M-4,0h8" fill="none" stroke="white" stroke-width="1.5" pointer-events="none"/>
                </g>
                <g id="dirArrow">
                        <path fill="none" stroke="white" stroke-width="1.5" d="M0,-3.0v7 M-2.5,-0.5L0,-3.0L2.5,-0.5"/>
                </g>
               <g id="resetDef">
                       <use xlink:href="#rim2" fill="#404040">
                               <set attributeName="fill" to="#808080" begin="reset.mouseover" end="reset.mouseout"/>
                       </use>
               </g>
        </defs>

<script type="text/javascript">
var viewWidth = 847;
var viewHeight = 264;
var sectionId = 'dynsection-0';
</script>
<script xlink:href="svgpan.js"/>
<svg id="graph" class="graph">
<g id="viewport">
<title>IPlug_include_in_plug_hdr.h</title>
<polygon fill="white" stroke="none" points="-4,4 -4,-260 843,-260 843,4 -4,4"/>
<!-- Node1 -->
<g id="node1" class="node"><title>Node1</title>
<polygon fill="#bfbfbf" stroke="black" points="704.5,-225 704.5,-255 815.5,-255 815.5,-225 704.5,-225"/>
<text text-anchor="start" x="712.5" y="-243" font-family="Helvetica,sans-Serif" font-size="10.00">IPlug_include_in_plug</text>
<text text-anchor="middle" x="760" y="-232" font-family="Helvetica,sans-Serif" font-size="10.00">_hdr.h</text>
</g>
<!-- Node2 -->
<g id="node2" class="node"><title>Node2</title>
<polygon fill="white" stroke="#bfbfbf" points="491.5,-0.5 491.5,-19.5 534.5,-19.5 534.5,-0.5 491.5,-0.5"/>
<text text-anchor="middle" x="513" y="-7.5" font-family="Helvetica,sans-Serif" font-size="10.00">cstdio</text>
</g>
<!-- Node1&#45;&gt;Node2 -->
<g id="edge1" class="edge"><title>Node1&#45;&gt;Node2</title>
<path fill="none" stroke="midnightblue" d="M763.514,-224.875C771.045,-190.903 784.707,-103.897 741,-56 715.067,-27.5812 601.241,-16.5307 544.867,-12.7426"/>
<polygon fill="midnightblue" stroke="midnightblue" points="544.923,-9.23924 534.722,-12.098 544.48,-16.2252 544.923,-9.23924"/>
</g>
<!-- Node3 -->
<g id="node3" class="node"><title>Node3</title>
<g id="a_node3"><a xlink:href="_i_plug_platform_8h.html" target="_top" xlink:title="Include to get consistently named preprocessor macros for different platforms and logging functionali...">
<polygon fill="white" stroke="black" points="125,-168.5 125,-187.5 209,-187.5 209,-168.5 125,-168.5"/>
<text text-anchor="middle" x="167" y="-175.5" font-family="Helvetica,sans-Serif" font-size="10.00">IPlugPlatform.h</text>
</a>
</g>
</g>
<!-- Node1&#45;&gt;Node3 -->
<g id="edge2" class="edge"><title>Node1&#45;&gt;Node3</title>
<path fill="none" stroke="midnightblue" d="M704.479,-233.382C590.283,-221.828 330.482,-195.541 219.187,-184.28"/>
<polygon fill="midnightblue" stroke="midnightblue" points="219.508,-180.795 209.206,-183.27 218.803,-187.759 219.508,-180.795"/>
</g>
<!-- Node18 -->
<g id="node18" class="node"><title>Node18</title>
<polygon fill="white" stroke="#bfbfbf" points="788.5,-168.5 788.5,-187.5 839.5,-187.5 839.5,-168.5 788.5,-168.5"/>
<text text-anchor="middle" x="814" y="-175.5" font-family="Helvetica,sans-Serif" font-size="10.00">config.h</text>
</g>
<!-- Node1&#45;&gt;Node18 -->
<g id="edge25" class="edge"><title>Node1&#45;&gt;Node18</title>
<path fill="none" stroke="midnightblue" d="M772.797,-224.781C780.725,-215.972 790.936,-204.626 799.21,-195.433"/>
<polygon fill="midnightblue" stroke="midnightblue" points="802.054,-197.505 806.143,-187.731 796.851,-192.822 802.054,-197.505"/>
</g>
<!-- Node4 -->
<g id="node4" class="node"><title>Node4</title>
<polygon fill="white" stroke="#bfbfbf" points="0,-0.5 0,-19.5 46,-19.5 46,-0.5 0,-0.5"/>
<text text-anchor="middle" x="23" y="-7.5" font-family="Helvetica,sans-Serif" font-size="10.00">cstring</text>
</g>
<!-- Node3&#45;&gt;Node4 -->
<g id="edge3" class="edge"><title>Node3&#45;&gt;Node4</title>
<path fill="none" stroke="midnightblue" d="M159.258,-168.075C136.1,-141.38 67.1239,-61.865 37.1587,-27.3218"/>
<polygon fill="midnightblue" stroke="midnightblue" points="39.6292,-24.8285 30.4326,-19.5681 34.3415,-29.4155 39.6292,-24.8285"/>
</g>
<!-- Node5 -->
<g id="node5" class="node"><title>Node5</title>
<polygon fill="white" stroke="#bfbfbf" points="64.5,-0.5 64.5,-19.5 109.5,-19.5 109.5,-0.5 64.5,-0.5"/>
<text text-anchor="middle" x="87" y="-7.5" font-family="Helvetica,sans-Serif" font-size="10.00">cstdlib</text>
</g>
<!-- Node3&#45;&gt;Node5 -->
<g id="edge4" class="edge"><title>Node3&#45;&gt;Node5</title>
<path fill="none" stroke="midnightblue" d="M162.786,-168.363C154.282,-150.923 134.474,-110.248 118,-76 110.388,-60.1756 101.797,-42.1494 95.593,-29.1008"/>
<polygon fill="midnightblue" stroke="midnightblue" points="98.646,-27.3707 91.1932,-19.8403 92.3233,-30.3747 98.646,-27.3707"/>
</g>
<!-- Node6 -->
<g id="node6" class="node"><title>Node6</title>
<g id="a_node6"><a xlink:href="_i_plug_logger_8h.html" target="_top" xlink:title="IPlug logging a.k.a tracing functionailty. ">
<polygon fill="white" stroke="black" points="352.5,-112.5 352.5,-131.5 429.5,-131.5 429.5,-112.5 352.5,-112.5"/>
<text text-anchor="middle" x="391" y="-119.5" font-family="Helvetica,sans-Serif" font-size="10.00">IPlugLogger.h</text>
</a>
</g>
</g>
<!-- Node3&#45;&gt;Node6 -->
<g id="edge5" class="edge"><title>Node3&#45;&gt;Node6</title>
<path fill="none" stroke="midnightblue" d="M202.493,-168.444C241.324,-159.083 303.656,-144.056 345.918,-133.868"/>
<polygon fill="midnightblue" stroke="midnightblue" points="346.771,-137.263 355.673,-131.516 345.131,-130.458 346.771,-137.263"/>
</g>
<!-- Node6&#45;&gt;Node2 -->
<g id="edge6" class="edge"><title>Node6&#45;&gt;Node2</title>
<path fill="none" stroke="midnightblue" d="M412.85,-112.466C430.333,-104.844 454.703,-92.3605 472,-76 486.352,-62.4253 497.817,-42.8098 504.934,-28.682"/>
<polygon fill="midnightblue" stroke="midnightblue" points="508.155,-30.0593 509.327,-19.5294 501.845,-27.0303 508.155,-30.0593"/>
</g>
<!-- Node6&#45;&gt;Node4 -->
<g id="edge10" class="edge"><title>Node6&#45;&gt;Node4</title>
<path fill="none" stroke="midnightblue" d="M352.054,-119.86C297.771,-117.112 197.126,-107.761 118,-76 88.1962,-64.0369 58.3746,-41.4791 40.3022,-26.3425"/>
<polygon fill="midnightblue" stroke="midnightblue" points="42.2949,-23.4405 32.4257,-19.5868 37.7376,-28.7538 42.2949,-23.4405"/>
</g>
<!-- Node7 -->
<g id="node7" class="node"><title>Node7</title>
<polygon fill="white" stroke="#bfbfbf" points="401,-0.5 401,-19.5 447,-19.5 447,-0.5 401,-0.5"/>
<text text-anchor="middle" x="424" y="-7.5" font-family="Helvetica,sans-Serif" font-size="10.00">cctype</text>
</g>
<!-- Node6&#45;&gt;Node7 -->
<g id="edge7" class="edge"><title>Node6&#45;&gt;Node7</title>
<path fill="none" stroke="midnightblue" d="M412.808,-112.447C427.945,-105.221 446.955,-93.2636 456,-76 464.605,-59.5768 452.691,-40.5159 441.034,-27.3"/>
<polygon fill="midnightblue" stroke="midnightblue" points="443.425,-24.7345 433.996,-19.9024 438.353,-29.5597 443.425,-24.7345"/>
</g>
<!-- Node8 -->
<g id="node8" class="node"><title>Node8</title>
<polygon fill="white" stroke="#bfbfbf" points="333.5,-56.5 333.5,-75.5 382.5,-75.5 382.5,-56.5 333.5,-56.5"/>
<text text-anchor="middle" x="358" y="-63.5" font-family="Helvetica,sans-Serif" font-size="10.00">cstdarg</text>
</g>
<!-- Node6&#45;&gt;Node8 -->
<g id="edge8" class="edge"><title>Node6&#45;&gt;Node8</title>
<path fill="none" stroke="midnightblue" d="M385.551,-112.083C380.986,-104.613 374.332,-93.7244 368.707,-84.5199"/>
<polygon fill="midnightblue" stroke="midnightblue" points="371.549,-82.4588 363.348,-75.7511 365.576,-86.109 371.549,-82.4588"/>
</g>
<!-- Node9 -->
<g id="node9" class="node"><title>Node9</title>
<polygon fill="white" stroke="#bfbfbf" points="401,-56.5 401,-75.5 447,-75.5 447,-56.5 401,-56.5"/>
<text text-anchor="middle" x="424" y="-63.5" font-family="Helvetica,sans-Serif" font-size="10.00">cstdint</text>
</g>
<!-- Node6&#45;&gt;Node9 -->
<g id="edge9" class="edge"><title>Node6&#45;&gt;Node9</title>
<path fill="none" stroke="midnightblue" d="M396.449,-112.083C401.014,-104.613 407.668,-93.7244 413.293,-84.5199"/>
<polygon fill="midnightblue" stroke="midnightblue" points="416.424,-86.109 418.652,-75.7511 410.451,-82.4588 416.424,-86.109"/>
</g>
<!-- Node10 -->
<g id="node10" class="node"><title>Node10</title>
<polygon fill="white" stroke="#bfbfbf" points="541.5,-56.5 541.5,-75.5 582.5,-75.5 582.5,-56.5 541.5,-56.5"/>
<text text-anchor="middle" x="562" y="-63.5" font-family="Helvetica,sans-Serif" font-size="10.00">ctime</text>
</g>
<!-- Node6&#45;&gt;Node10 -->
<g id="edge11" class="edge"><title>Node6&#45;&gt;Node10</title>
<path fill="none" stroke="midnightblue" d="M418.095,-112.444C449.027,-102.676 499.495,-86.7385 531.704,-76.5673"/>
<polygon fill="midnightblue" stroke="midnightblue" points="532.99,-79.8316 541.472,-73.4826 530.882,-73.1565 532.99,-79.8316"/>
</g>
<!-- Node11 -->
<g id="node11" class="node"><title>Node11</title>
<polygon fill="white" stroke="#bfbfbf" points="600.5,-56.5 600.5,-75.5 649.5,-75.5 649.5,-56.5 600.5,-56.5"/>
<text text-anchor="middle" x="625" y="-63.5" font-family="Helvetica,sans-Serif" font-size="10.00">cassert</text>
</g>
<!-- Node6&#45;&gt;Node11 -->
<g id="edge12" class="edge"><title>Node6&#45;&gt;Node11</title>
<path fill="none" stroke="midnightblue" d="M429.815,-112.718C468.135,-104.441 528.633,-91.1063 590.25,-76.114"/>
<polygon fill="midnightblue" stroke="midnightblue" points="591.263,-79.4695 600.145,-73.6941 589.6,-72.6699 591.263,-79.4695"/>
</g>
<!-- Node12 -->
<g id="node12" class="node"><title>Node12</title>
<polygon fill="white" stroke="#bfbfbf" points="668,-56.5 668,-75.5 732,-75.5 732,-56.5 668,-56.5"/>
<text text-anchor="middle" x="700" y="-63.5" font-family="Helvetica,sans-Serif" font-size="10.00">wdlstring.h</text>
</g>
<!-- Node6&#45;&gt;Node12 -->
<g id="edge13" class="edge"><title>Node6&#45;&gt;Node12</title>
<path fill="none" stroke="midnightblue" d="M429.563,-115.048C481.557,-106.898 576.971,-91.5022 658,-76 658.101,-75.9807 658.202,-75.9614 658.303,-75.942"/>
<polygon fill="midnightblue" stroke="midnightblue" points="658.802,-79.4113 667.926,-74.0253 657.435,-72.5462 658.802,-79.4113"/>
</g>
<!-- Node13 -->
<g id="node13" class="node"><title>Node13</title>
<polygon fill="white" stroke="#bfbfbf" points="263,-56.5 263,-75.5 315,-75.5 315,-56.5 263,-56.5"/>
<text text-anchor="middle" x="289" y="-63.5" font-family="Helvetica,sans-Serif" font-size="10.00">mutex.h</text>
</g>
<!-- Node6&#45;&gt;Node13 -->
<g id="edge14" class="edge"><title>Node6&#45;&gt;Node13</title>
<path fill="none" stroke="midnightblue" d="M374.612,-112.324C358.329,-103.703 333.133,-90.3643 314.284,-80.3855"/>
<polygon fill="midnightblue" stroke="midnightblue" points="315.823,-77.2402 305.347,-75.6545 312.548,-83.4267 315.823,-77.2402"/>
</g>
<!-- Node14 -->
<g id="node14" class="node"><title>Node14</title>
<g id="a_node14"><a xlink:href="_i_plug_constants_8h.html" target="_top" xlink:title="Constant definitions, Types, magic numbers. ">
<polygon fill="white" stroke="black" points="264,-0.5 264,-19.5 356,-19.5 356,-0.5 264,-0.5"/>
<text text-anchor="middle" x="310" y="-7.5" font-family="Helvetica,sans-Serif" font-size="10.00">IPlugConstants.h</text>
</a>
</g>
</g>
<!-- Node6&#45;&gt;Node14 -->
<g id="edge15" class="edge"><title>Node6&#45;&gt;Node14</title>
<path fill="none" stroke="midnightblue" d="M352.272,-119.983C320.141,-116.84 276.244,-106.72 254,-76 240.531,-57.3986 263.6,-37.6255 284.08,-24.8396"/>
<polygon fill="midnightblue" stroke="midnightblue" points="286.042,-27.7457 292.875,-19.6488 282.484,-21.7173 286.042,-27.7457"/>
</g>
<!-- Node15 -->
<g id="node15" class="node"><title>Node15</title>
<g id="a_node15"><a xlink:href="_i_plug_utilities_8h.html" target="_top" xlink:title="Utility functions and macros. ">
<polygon fill="white" stroke="black" points="127,-56.5 127,-75.5 207,-75.5 207,-56.5 127,-56.5"/>
<text text-anchor="middle" x="167" y="-63.5" font-family="Helvetica,sans-Serif" font-size="10.00">IPlugUtilities.h</text>
</a>
</g>
</g>
<!-- Node6&#45;&gt;Node15 -->
<g id="edge16" class="edge"><title>Node6&#45;&gt;Node15</title>
<path fill="none" stroke="midnightblue" d="M355.507,-112.444C316.676,-103.083 254.344,-88.0561 212.082,-77.868"/>
<polygon fill="midnightblue" stroke="midnightblue" points="212.869,-74.4576 202.327,-75.5164 211.229,-81.2626 212.869,-74.4576"/>
</g>
<!-- Node15&#45;&gt;Node2 -->
<g id="edge19" class="edge"><title>Node15&#45;&gt;Node2</title>
<path fill="none" stroke="midnightblue" d="M207.211,-58.7664C263.044,-50.1049 367.208,-33.9228 456,-20 464.212,-18.7124 473.088,-17.314 481.335,-16.012"/>
<polygon fill="midnightblue" stroke="midnightblue" points="482.017,-19.4478 491.348,-14.4298 480.925,-12.5335 482.017,-19.4478"/>
</g>
<!-- Node15&#45;&gt;Node3 -->
<g id="edge24" class="edge"><title>Node15&#45;&gt;Node3</title>
<path fill="none" stroke="midnightblue" d="M167,-75.5914C167,-93.3079 167,-134.254 167,-158.348"/>
<polygon fill="midnightblue" stroke="midnightblue" points="163.5,-158.368 167,-168.368 170.5,-158.369 163.5,-158.368"/>
</g>
<!-- Node15&#45;&gt;Node4 -->
<g id="edge21" class="edge"><title>Node15&#45;&gt;Node4</title>
<path fill="none" stroke="midnightblue" d="M144.183,-56.4435C120.168,-47.4381 82.171,-33.1891 55.1308,-23.049"/>
<polygon fill="midnightblue" stroke="midnightblue" points="56.3027,-19.7506 45.7105,-19.5164 53.8448,-26.3049 56.3027,-19.7506"/>
</g>
<!-- Node15&#45;&gt;Node5 -->
<g id="edge20" class="edge"><title>Node15&#45;&gt;Node5</title>
<path fill="none" stroke="midnightblue" d="M154.147,-56.324C141.784,-47.979 122.87,-35.2122 108.263,-25.3524"/>
<polygon fill="midnightblue" stroke="midnightblue" points="110.068,-22.3483 99.8215,-19.6545 106.152,-28.1503 110.068,-22.3483"/>
</g>
<!-- Node15&#45;&gt;Node7 -->
<g id="edge22" class="edge"><title>Node15&#45;&gt;Node7</title>
<path fill="none" stroke="midnightblue" d="M207.156,-56.5625C257.818,-45.9176 343.988,-27.8118 391.004,-17.9331"/>
<polygon fill="midnightblue" stroke="midnightblue" points="391.9,-21.3212 400.967,-15.8397 390.461,-14.4708 391.9,-21.3212"/>
</g>
<!-- Node15&#45;&gt;Node14 -->
<g id="edge23" class="edge"><title>Node15&#45;&gt;Node14</title>
<path fill="none" stroke="midnightblue" d="M189.659,-56.4435C213.402,-47.4776 250.909,-33.314 277.738,-23.1827"/>
<polygon fill="midnightblue" stroke="midnightblue" points="279.329,-26.3235 287.447,-19.5164 276.856,-19.7749 279.329,-26.3235"/>
</g>
<!-- Node16 -->
<g id="node16" class="node"><title>Node16</title>
<polygon fill="white" stroke="#bfbfbf" points="128,-0.5 128,-19.5 184,-19.5 184,-0.5 128,-0.5"/>
<text text-anchor="middle" x="156" y="-7.5" font-family="Helvetica,sans-Serif" font-size="10.00">algorithm</text>
</g>
<!-- Node15&#45;&gt;Node16 -->
<g id="edge17" class="edge"><title>Node15&#45;&gt;Node16</title>
<path fill="none" stroke="midnightblue" d="M165.184,-56.083C163.726,-48.9272 161.629,-38.6353 159.807,-29.6911"/>
<polygon fill="midnightblue" stroke="midnightblue" points="163.208,-28.8512 157.783,-19.7511 156.349,-30.2485 163.208,-28.8512"/>
</g>
<!-- Node17 -->
<g id="node17" class="node"><title>Node17</title>
<polygon fill="white" stroke="#bfbfbf" points="202,-0.5 202,-19.5 246,-19.5 246,-0.5 202,-0.5"/>
<text text-anchor="middle" x="224" y="-7.5" font-family="Helvetica,sans-Serif" font-size="10.00">cmath</text>
</g>
<!-- Node15&#45;&gt;Node17 -->
<g id="edge18" class="edge"><title>Node15&#45;&gt;Node17</title>
<path fill="none" stroke="midnightblue" d="M176.158,-56.324C184.501,-48.4196 197.032,-36.5482 207.177,-26.9377"/>
<polygon fill="midnightblue" stroke="midnightblue" points="209.823,-29.2522 214.675,-19.8339 205.009,-24.1705 209.823,-29.2522"/>
</g>
</g>
</svg>
        <g id="navigator" transform="translate(0 0)" fill="#404254">
                <rect fill="#f2f5e9" fill-opacity="0.5" stroke="#606060" stroke-width=".5" x="0" y="0" width="60" height="60"/>
                <use id="zoomplus" xlink:href="#zoomPlus" x="17" y="9" onmousedown="handleZoom(evt,'in')"/>
                <use id="zoomminus" xlink:href="#zoomMin" x="42" y="9" onmousedown="handleZoom(evt,'out')"/>
                <use id="reset" xlink:href="#resetDef" x="30" y="36" onmousedown="handleReset()"/>
                <g id="arrowUp" xlink:href="#dirArrow" transform="translate(30 24)" onmousedown="handlePan(0,-1)">
                  <use xlink:href="#rim" fill="#404040">
                        <set attributeName="fill" to="#808080" begin="arrowUp.mouseover" end="arrowUp.mouseout"/>
                  </use>
                  <path fill="none" stroke="white" stroke-width="1.5" d="M0,-3.0v7 M-2.5,-0.5L0,-3.0L2.5,-0.5"/>
                </g>
                <g id="arrowRight" xlink:href="#dirArrow" transform="rotate(90) translate(36 -43)" onmousedown="handlePan(1,0)">
                  <use xlink:href="#rim" fill="#404040">
                        <set attributeName="fill" to="#808080" begin="arrowRight.mouseover" end="arrowRight.mouseout"/>
                  </use>
                  <path fill="none" stroke="white" stroke-width="1.5" d="M0,-3.0v7 M-2.5,-0.5L0,-3.0L2.5,-0.5"/>
                </g>
                <g id="arrowDown" xlink:href="#dirArrow" transform="rotate(180) translate(-30 -48)" onmousedown="handlePan(0,1)">
                  <use xlink:href="#rim" fill="#404040">
                        <set attributeName="fill" to="#808080" begin="arrowDown.mouseover" end="arrowDown.mouseout"/>
                  </use>
                  <path fill="none" stroke="white" stroke-width="1.5" d="M0,-3.0v7 M-2.5,-0.5L0,-3.0L2.5,-0.5"/>
                </g>
                <g id="arrowLeft" xlink:href="#dirArrow" transform="rotate(270) translate(-36 17)" onmousedown="handlePan(-1,0)">
                  <use xlink:href="#rim" fill="#404040">
                        <set attributeName="fill" to="#808080" begin="arrowLeft.mouseover" end="arrowLeft.mouseout"/>
                  </use>
                  <path fill="none" stroke="white" stroke-width="1.5" d="M0,-3.0v7 M-2.5,-0.5L0,-3.0L2.5,-0.5"/>
                </g>
        </g>
        <svg viewBox="0 0 15 15" width="100%" height="30px" preserveAspectRatio="xMaxYMin meet">
         <g id="arrow_out" transform="scale(0.3 0.3)">
          <a xlink:href="_i_plug__include__in__plug__hdr_8h__incl_org.svg" target="_base">
           <rect id="button" ry="5" rx="5" y="6" x="6" height="38" width="38"
                fill="#f2f5e9" fill-opacity="0.5" stroke="#606060" stroke-width="1.0"/>
           <path id="arrow"
             d="M 11.500037,31.436501 C 11.940474,20.09759 22.043105,11.32322 32.158766,21.979434 L 37.068811,17.246167 C 37.068811,17.246167 37.088388,32 37.088388,32 L 22.160133,31.978069 C 22.160133,31.978069 26.997745,27.140456 26.997745,27.140456 C 18.528582,18.264221 13.291696,25.230495 11.500037,31.436501 z"
             style="fill:#404040;"/>
          </a>
         </g>
        </svg>
</svg>
