<?xml version="1.0" encoding="UTF-8" standalone="no"?>
<!DOCTYPE svg PUBLIC "-//W3C//DTD SVG 1.1//EN"
 "http://www.w3.org/Graphics/SVG/1.1/DTD/svg11.dtd">
<!-- Generated by graphviz version 2.36.0 (20140111.2315)
 -->
<!-- Title: IPlugLogger.h Pages: 1 -->
<svg width="770pt" height="196pt"
 viewBox="0.00 0.00 770.00 196.00" xmlns="http://www.w3.org/2000/svg" xmlns:xlink="http://www.w3.org/1999/xlink">
<g id="graph0" class="graph" transform="scale(1 1) rotate(0) translate(4 192)">
<title>IPlugLogger.h</title>
<polygon fill="white" stroke="none" points="-4,4 -4,-192 766.003,-192 766.003,4 -4,4"/>
<!-- Node1 -->
<g id="node1" class="node"><title>Node1</title>
<polygon fill="#bfbfbf" stroke="black" points="328.503,-168.5 328.503,-187.5 405.503,-187.5 405.503,-168.5 328.503,-168.5"/>
<text text-anchor="middle" x="367.003" y="-175.5" font-family="Helvetica,sans-Serif" font-size="10.00">IPlugLogger.h</text>
</g>
<!-- Node2 -->
<g id="node2" class="node"><title>Node2</title>
<polygon fill="white" stroke="#bfbfbf" points="13.5031,-56.5 13.5031,-75.5 56.5031,-75.5 56.5031,-56.5 13.5031,-56.5"/>
<text text-anchor="middle" x="35.0031" y="-63.5" font-family="Helvetica,sans-Serif" font-size="10.00">cstdio</text>
</g>
<!-- Node1&#45;&gt;Node2 -->
<g id="edge1" class="edge"><title>Node1&#45;&gt;Node2</title>
<path fill="none" stroke="midnightblue" d="M328.172,-172.728C283.757,-166.995 209.383,-154.788 149.003,-132 114.313,-118.907 77.6553,-96.1909 55.5529,-81.3788"/>
<polygon fill="midnightblue" stroke="midnightblue" points="57.2547,-78.3032 47.0196,-75.5658 53.3137,-84.0884 57.2547,-78.3032"/>
</g>
<!-- Node3 -->
<g id="node3" class="node"><title>Node3</title>
<polygon fill="white" stroke="#bfbfbf" points="75.0031,-56.5 75.0031,-75.5 121.003,-75.5 121.003,-56.5 75.0031,-56.5"/>
<text text-anchor="middle" x="98.0031" y="-63.5" font-family="Helvetica,sans-Serif" font-size="10.00">cctype</text>
</g>
<!-- Node1&#45;&gt;Node3 -->
<g id="edge2" class="edge"><title>Node1&#45;&gt;Node3</title>
<path fill="none" stroke="midnightblue" d="M328.445,-171.901C290.758,-165.899 232.439,-153.857 186.003,-132 158.784,-119.188 131.559,-97.3474 114.756,-82.5551"/>
<polygon fill="midnightblue" stroke="midnightblue" points="116.747,-79.6382 106.974,-75.5472 112.063,-84.8399 116.747,-79.6382"/>
</g>
<!-- Node4 -->
<g id="node4" class="node"><title>Node4</title>
<polygon fill="white" stroke="#bfbfbf" points="369.503,-112.5 369.503,-131.5 418.503,-131.5 418.503,-112.5 369.503,-112.5"/>
<text text-anchor="middle" x="394.003" y="-119.5" font-family="Helvetica,sans-Serif" font-size="10.00">cstdarg</text>
</g>
<!-- Node1&#45;&gt;Node4 -->
<g id="edge3" class="edge"><title>Node1&#45;&gt;Node4</title>
<path fill="none" stroke="midnightblue" d="M371.462,-168.083C375.157,-160.691 380.526,-149.953 385.098,-140.811"/>
<polygon fill="midnightblue" stroke="midnightblue" points="388.286,-142.261 389.628,-131.751 382.025,-139.13 388.286,-142.261"/>
</g>
<!-- Node5 -->
<g id="node5" class="node"><title>Node5</title>
<polygon fill="white" stroke="#bfbfbf" points="437.003,-112.5 437.003,-131.5 483.003,-131.5 483.003,-112.5 437.003,-112.5"/>
<text text-anchor="middle" x="460.003" y="-119.5" font-family="Helvetica,sans-Serif" font-size="10.00">cstdint</text>
</g>
<!-- Node1&#45;&gt;Node5 -->
<g id="edge4" class="edge"><title>Node1&#45;&gt;Node5</title>
<path fill="none" stroke="midnightblue" d="M381.945,-168.324C396.588,-159.822 419.137,-146.729 436.241,-136.797"/>
<polygon fill="midnightblue" stroke="midnightblue" points="438.208,-139.703 445.098,-131.655 434.693,-133.649 438.208,-139.703"/>
</g>
<!-- Node6 -->
<g id="node6" class="node"><title>Node6</title>
<polygon fill="white" stroke="#bfbfbf" points="262.003,-0.5 262.003,-19.5 308.003,-19.5 308.003,-0.5 262.003,-0.5"/>
<text text-anchor="middle" x="285.003" y="-7.5" font-family="Helvetica,sans-Serif" font-size="10.00">cstring</text>
</g>
<!-- Node1&#45;&gt;Node6 -->
<g id="edge5" class="edge"><title>Node1&#45;&gt;Node6</title>
<path fill="none" stroke="midnightblue" d="M328.359,-174.599C275.97,-170.412 180.099,-159.429 103.003,-132 55.376,-115.056 29.4716,-119.667 4.00312,-76 -0.475209,-68.3217 -1.76396,-62.7641 4.00312,-56 35.4949,-19.0638 184.184,-12.3173 251.612,-11.1767"/>
<polygon fill="midnightblue" stroke="midnightblue" points="251.755,-14.6751 261.706,-11.038 251.659,-7.6758 251.755,-14.6751"/>
</g>
<!-- Node7 -->
<g id="node7" class="node"><title>Node7</title>
<polygon fill="white" stroke="#bfbfbf" points="501.503,-112.5 501.503,-131.5 542.503,-131.5 542.503,-112.5 501.503,-112.5"/>
<text text-anchor="middle" x="522.003" y="-119.5" font-family="Helvetica,sans-Serif" font-size="10.00">ctime</text>
</g>
<!-- Node1&#45;&gt;Node7 -->
<g id="edge6" class="edge"><title>Node1&#45;&gt;Node7</title>
<path fill="none" stroke="midnightblue" d="M391.563,-168.444C418.595,-159.026 462.085,-143.875 491.336,-133.684"/>
<polygon fill="midnightblue" stroke="midnightblue" points="492.746,-136.899 501.037,-130.304 490.443,-130.289 492.746,-136.899"/>
</g>
<!-- Node8 -->
<g id="node8" class="node"><title>Node8</title>
<polygon fill="white" stroke="#bfbfbf" points="560.503,-112.5 560.503,-131.5 609.503,-131.5 609.503,-112.5 560.503,-112.5"/>
<text text-anchor="middle" x="585.003" y="-119.5" font-family="Helvetica,sans-Serif" font-size="10.00">cassert</text>
</g>
<!-- Node1&#45;&gt;Node8 -->
<g id="edge7" class="edge"><title>Node1&#45;&gt;Node8</title>
<path fill="none" stroke="midnightblue" d="M402.67,-168.488C437.747,-160.071 493.066,-146.672 550.204,-132.168"/>
<polygon fill="midnightblue" stroke="midnightblue" points="551.307,-135.499 560.135,-129.641 549.58,-128.715 551.307,-135.499"/>
</g>
<!-- Node9 -->
<g id="node9" class="node"><title>Node9</title>
<polygon fill="white" stroke="#bfbfbf" points="628.003,-112.5 628.003,-131.5 692.003,-131.5 692.003,-112.5 628.003,-112.5"/>
<text text-anchor="middle" x="660.003" y="-119.5" font-family="Helvetica,sans-Serif" font-size="10.00">wdlstring.h</text>
</g>
<!-- Node1&#45;&gt;Node9 -->
<g id="edge8" class="edge"><title>Node1&#45;&gt;Node9</title>
<path fill="none" stroke="midnightblue" d="M405.778,-170.465C455.157,-162.048 543.072,-146.741 618.003,-132 618.104,-131.98 618.204,-131.96 618.305,-131.94"/>
<polygon fill="midnightblue" stroke="midnightblue" points="618.817,-135.408 627.922,-129.991 617.426,-128.548 618.817,-135.408"/>
</g>
<!-- Node10 -->
<g id="node10" class="node"><title>Node10</title>
<polygon fill="white" stroke="#bfbfbf" points="710.003,-112.5 710.003,-131.5 762.003,-131.5 762.003,-112.5 710.003,-112.5"/>
<text text-anchor="middle" x="736.003" y="-119.5" font-family="Helvetica,sans-Serif" font-size="10.00">mutex.h</text>
</g>
<!-- Node1&#45;&gt;Node10 -->
<g id="edge9" class="edge"><title>Node1&#45;&gt;Node10</title>
<path fill="none" stroke="midnightblue" d="M405.564,-173.296C466.163,-167.152 587.528,-153.541 699.587,-132.081"/>
<polygon fill="midnightblue" stroke="midnightblue" points="700.556,-135.458 709.705,-130.116 699.222,-128.586 700.556,-135.458"/>
</g>
<!-- Node11 -->
<g id="node11" class="node"><title>Node11</title>
<g id="a_node11"><a xlink:href="_i_plug_constants_8h.html" target="_top" xlink:title="Constant definitions, Types, magic numbers. ">
<polygon fill="white" stroke="black" points="453.003,-56.5 453.003,-75.5 545.003,-75.5 545.003,-56.5 453.003,-56.5"/>
<text text-anchor="middle" x="499.003" y="-63.5" font-family="Helvetica,sans-Serif" font-size="10.00">IPlugConstants.h</text>
</a>
</g>
</g>
<!-- Node1&#45;&gt;Node11 -->
<g id="edge10" class="edge"><title>Node1&#45;&gt;Node11</title>
<path fill="none" stroke="midnightblue" d="M362.94,-168.472C357.213,-155.072 348.755,-128.876 361.003,-112 371.242,-97.8924 410.715,-85.8907 444.837,-77.8389"/>
<polygon fill="midnightblue" stroke="midnightblue" points="445.783,-81.2128 454.752,-75.5716 444.223,-74.3889 445.783,-81.2128"/>
</g>
<!-- Node12 -->
<g id="node12" class="node"><title>Node12</title>
<g id="a_node12"><a xlink:href="_i_plug_utilities_8h.html" target="_top" xlink:title="Utility functions and macros. ">
<polygon fill="white" stroke="black" points="195.003,-112.5 195.003,-131.5 275.003,-131.5 275.003,-112.5 195.003,-112.5"/>
<text text-anchor="middle" x="235.003" y="-119.5" font-family="Helvetica,sans-Serif" font-size="10.00">IPlugUtilities.h</text>
</a>
</g>
</g>
<!-- Node1&#45;&gt;Node12 -->
<g id="edge11" class="edge"><title>Node1&#45;&gt;Node12</title>
<path fill="none" stroke="midnightblue" d="M346.087,-168.444C324.267,-159.517 289.853,-145.439 265.111,-135.317"/>
<polygon fill="midnightblue" stroke="midnightblue" points="266.402,-132.063 255.821,-131.516 263.751,-138.542 266.402,-132.063"/>
</g>
<!-- Node12&#45;&gt;Node2 -->
<g id="edge14" class="edge"><title>Node12&#45;&gt;Node2</title>
<path fill="none" stroke="midnightblue" d="M201.913,-112.422C169.798,-104.046 119.437,-90.7754 66.5638,-76.1097"/>
<polygon fill="midnightblue" stroke="midnightblue" points="67.238,-72.6644 56.6658,-73.3559 65.3617,-79.4083 67.238,-72.6644"/>
</g>
<!-- Node12&#45;&gt;Node3 -->
<g id="edge17" class="edge"><title>Node12&#45;&gt;Node3</title>
<path fill="none" stroke="midnightblue" d="M213.295,-112.444C190.648,-103.517 154.931,-89.4387 129.251,-79.3168"/>
<polygon fill="midnightblue" stroke="midnightblue" points="130.196,-75.9273 119.61,-75.5164 127.63,-82.4397 130.196,-75.9273"/>
</g>
<!-- Node12&#45;&gt;Node6 -->
<g id="edge16" class="edge"><title>Node12&#45;&gt;Node6</title>
<path fill="none" stroke="midnightblue" d="M241.777,-112.487C248.452,-103.757 258.56,-89.5713 265.003,-76 272.124,-61.0012 277.457,-42.8669 280.817,-29.5677"/>
<polygon fill="midnightblue" stroke="midnightblue" points="284.253,-30.2482 283.172,-19.7087 277.444,-28.622 284.253,-30.2482"/>
</g>
<!-- Node12&#45;&gt;Node11 -->
<g id="edge18" class="edge"><title>Node12&#45;&gt;Node11</title>
<path fill="none" stroke="midnightblue" d="M275.099,-112.799C321.116,-103.386 396.716,-87.9223 447.168,-77.6026"/>
<polygon fill="midnightblue" stroke="midnightblue" points="448.124,-80.9797 457.219,-75.5467 446.721,-74.1217 448.124,-80.9797"/>
</g>
<!-- Node13 -->
<g id="node13" class="node"><title>Node13</title>
<polygon fill="white" stroke="#bfbfbf" points="139.003,-56.5 139.003,-75.5 195.003,-75.5 195.003,-56.5 139.003,-56.5"/>
<text text-anchor="middle" x="167.003" y="-63.5" font-family="Helvetica,sans-Serif" font-size="10.00">algorithm</text>
</g>
<!-- Node12&#45;&gt;Node13 -->
<g id="edge12" class="edge"><title>Node12&#45;&gt;Node13</title>
<path fill="none" stroke="midnightblue" d="M224.078,-112.324C213.829,-104.185 198.282,-91.8395 186.002,-82.0874"/>
<polygon fill="midnightblue" stroke="midnightblue" points="188.135,-79.3119 178.127,-75.8339 183.782,-84.7937 188.135,-79.3119"/>
</g>
<!-- Node14 -->
<g id="node14" class="node"><title>Node14</title>
<polygon fill="white" stroke="#bfbfbf" points="213.003,-56.5 213.003,-75.5 257.003,-75.5 257.003,-56.5 213.003,-56.5"/>
<text text-anchor="middle" x="235.003" y="-63.5" font-family="Helvetica,sans-Serif" font-size="10.00">cmath</text>
</g>
<!-- Node12&#45;&gt;Node14 -->
<g id="edge13" class="edge"><title>Node12&#45;&gt;Node14</title>
<path fill="none" stroke="midnightblue" d="M235.003,-112.083C235.003,-105.006 235.003,-94.8611 235.003,-85.9865"/>
<polygon fill="midnightblue" stroke="midnightblue" points="238.503,-85.751 235.003,-75.7511 231.503,-85.7511 238.503,-85.751"/>
</g>
<!-- Node15 -->
<g id="node15" class="node"><title>Node15</title>
<polygon fill="white" stroke="#bfbfbf" points="348.503,-0.5 348.503,-19.5 393.503,-19.5 393.503,-0.5 348.503,-0.5"/>
<text text-anchor="middle" x="371.003" y="-7.5" font-family="Helvetica,sans-Serif" font-size="10.00">cstdlib</text>
</g>
<!-- Node12&#45;&gt;Node15 -->
<g id="edge15" class="edge"><title>Node12&#45;&gt;Node15</title>
<path fill="none" stroke="midnightblue" d="M245.675,-112.368C268.715,-93.7334 323.363,-49.5324 352.292,-26.1338"/>
<polygon fill="midnightblue" stroke="midnightblue" points="354.807,-28.6014 360.381,-19.5914 350.405,-23.1589 354.807,-28.6014"/>
</g>
<!-- Node16 -->
<g id="node16" class="node"><title>Node16</title>
<g id="a_node16"><a xlink:href="_i_plug_platform_8h.html" target="_top" xlink:title="Include to get consistently named preprocessor macros for different platforms and logging functionali...">
<polygon fill="white" stroke="black" points="351.003,-56.5 351.003,-75.5 435.003,-75.5 435.003,-56.5 351.003,-56.5"/>
<text text-anchor="middle" x="393.003" y="-63.5" font-family="Helvetica,sans-Serif" font-size="10.00">IPlugPlatform.h</text>
</a>
</g>
</g>
<!-- Node12&#45;&gt;Node16 -->
<g id="edge19" class="edge"><title>Node12&#45;&gt;Node16</title>
<path fill="none" stroke="midnightblue" d="M260.039,-112.444C286.619,-103.359 328.812,-88.9388 358.527,-78.7831"/>
<polygon fill="midnightblue" stroke="midnightblue" points="359.754,-82.0625 368.085,-75.5164 357.49,-75.4386 359.754,-82.0625"/>
</g>
<!-- Node16&#45;&gt;Node1 -->
<g id="edge22" class="edge"><title>Node16&#45;&gt;Node1</title>
<path fill="none" stroke="midnightblue" d="M370.545,-75.6178C355.234,-82.8163 336.14,-94.7117 327.003,-112 317.705,-129.594 333.084,-148.916 347.385,-161.883"/>
<polygon fill="midnightblue" stroke="midnightblue" points="345.164,-164.588 355.057,-168.382 349.689,-159.247 345.164,-164.588"/>
</g>
<!-- Node16&#45;&gt;Node6 -->
<g id="edge20" class="edge"><title>Node16&#45;&gt;Node6</title>
<path fill="none" stroke="midnightblue" d="M375.651,-56.324C358.331,-47.6641 331.488,-34.2424 311.501,-24.249"/>
<polygon fill="midnightblue" stroke="midnightblue" points="312.822,-20.9962 302.312,-19.6545 309.691,-27.2572 312.822,-20.9962"/>
</g>
<!-- Node16&#45;&gt;Node15 -->
<g id="edge21" class="edge"><title>Node16&#45;&gt;Node15</title>
<path fill="none" stroke="midnightblue" d="M389.37,-56.083C386.391,-48.77 382.077,-38.1814 378.379,-29.1034"/>
<polygon fill="midnightblue" stroke="midnightblue" points="381.583,-27.6914 374.568,-19.7511 375.1,-30.3326 381.583,-27.6914"/>
</g>
</g>
</svg>
