<?xml version="1.0" encoding="UTF-8" standalone="no"?>
<!DOCTYPE svg PUBLIC "-//W3C//DTD SVG 1.1//EN"
 "http://www.w3.org/Graphics/SVG/1.1/DTD/svg11.dtd">
<!-- Generated by graphviz version 2.36.0 (20140111.2315)
 -->
<!-- Title: IPlugBase.h Pages: 1 -->
<svg width="1015pt" height="308pt"
 viewBox="0.00 0.00 1014.75 308.00" xmlns="http://www.w3.org/2000/svg" xmlns:xlink="http://www.w3.org/1999/xlink">
<g id="graph0" class="graph" transform="scale(1 1) rotate(0) translate(4 304)">
<title>IPlugBase.h</title>
<polygon fill="white" stroke="none" points="-4,4 -4,-304 1010.75,-304 1010.75,4 -4,4"/>
<!-- Node1 -->
<g id="node1" class="node"><title>Node1</title>
<polygon fill="#bfbfbf" stroke="black" points="617.749,-280.5 617.749,-299.5 687.749,-299.5 687.749,-280.5 617.749,-280.5"/>
<text text-anchor="middle" x="652.749" y="-287.5" font-family="Helvetica,sans-Serif" font-size="10.00">IPlugBase.h</text>
</g>
<!-- Node2 -->
<g id="node2" class="node"><title>Node2</title>
<polygon fill="white" stroke="#bfbfbf" points="201.749,-0.5 201.749,-19.5 247.749,-19.5 247.749,-0.5 201.749,-0.5"/>
<text text-anchor="middle" x="224.749" y="-7.5" font-family="Helvetica,sans-Serif" font-size="10.00">cstring</text>
</g>
<!-- Node1&#45;&gt;Node2 -->
<g id="edge1" class="edge"><title>Node1&#45;&gt;Node2</title>
<path fill="none" stroke="midnightblue" d="M617.695,-286.832C482.268,-277.995 0.749147,-242.137 0.749147,-179 0.749147,-179 0.749147,-179 0.749147,-121 0.749147,-90.9022 -2.24744,-76.5433 19.7491,-56 44.3513,-33.0233 140.232,-19.7717 191.683,-14.1763"/>
<polygon fill="midnightblue" stroke="midnightblue" points="192.067,-17.6553 201.646,-13.1282 191.335,-10.6937 192.067,-17.6553"/>
</g>
<!-- Node3 -->
<g id="node3" class="node"><title>Node3</title>
<polygon fill="white" stroke="#bfbfbf" points="856.749,-56.5 856.749,-75.5 902.749,-75.5 902.749,-56.5 856.749,-56.5"/>
<text text-anchor="middle" x="879.749" y="-63.5" font-family="Helvetica,sans-Serif" font-size="10.00">cstdint</text>
</g>
<!-- Node1&#45;&gt;Node3 -->
<g id="edge2" class="edge"><title>Node1&#45;&gt;Node3</title>
<path fill="none" stroke="midnightblue" d="M687.937,-286.463C742.774,-280.319 846.311,-259.355 884.749,-188 902.381,-155.268 893.269,-110.022 885.947,-85.1676"/>
<polygon fill="midnightblue" stroke="midnightblue" points="889.265,-84.0539 882.906,-75.5798 882.593,-86.17 889.265,-84.0539"/>
</g>
<!-- Node4 -->
<g id="node4" class="node"><title>Node4</title>
<polygon fill="white" stroke="#bfbfbf" points="827.249,-168.5 827.249,-187.5 876.249,-187.5 876.249,-168.5 827.249,-168.5"/>
<text text-anchor="middle" x="851.749" y="-175.5" font-family="Helvetica,sans-Serif" font-size="10.00">ptrlist.h</text>
</g>
<!-- Node1&#45;&gt;Node4 -->
<g id="edge3" class="edge"><title>Node1&#45;&gt;Node4</title>
<path fill="none" stroke="midnightblue" d="M682.504,-280.499C707.08,-272.82 742.403,-260.241 770.749,-244 795.037,-230.084 819.657,-209.141 835.273,-194.812"/>
<polygon fill="midnightblue" stroke="midnightblue" points="838.051,-197.006 842.963,-187.619 833.269,-191.894 838.051,-197.006"/>
</g>
<!-- Node5 -->
<g id="node5" class="node"><title>Node5</title>
<polygon fill="white" stroke="#bfbfbf" points="144.749,-56.5 144.749,-75.5 196.749,-75.5 196.749,-56.5 144.749,-56.5"/>
<text text-anchor="middle" x="170.749" y="-63.5" font-family="Helvetica,sans-Serif" font-size="10.00">mutex.h</text>
</g>
<!-- Node1&#45;&gt;Node5 -->
<g id="edge4" class="edge"><title>Node1&#45;&gt;Node5</title>
<path fill="none" stroke="midnightblue" d="M617.448,-283.679C511.517,-266.914 200.136,-211.545 142.749,-132 131.914,-116.981 143.543,-97.1166 154.94,-83.3179"/>
<polygon fill="midnightblue" stroke="midnightblue" points="157.768,-85.4041 161.803,-75.6076 152.54,-80.7498 157.768,-85.4041"/>
</g>
<!-- Node6 -->
<g id="node6" class="node"><title>Node6</title>
<g id="a_node6"><a xlink:href="_i_plug_platform_8h.html" target="_top" xlink:title="Include to get consistently named preprocessor macros for different platforms and logging functionali...">
<polygon fill="white" stroke="black" points="610.749,-168.5 610.749,-187.5 694.749,-187.5 694.749,-168.5 610.749,-168.5"/>
<text text-anchor="middle" x="652.749" y="-175.5" font-family="Helvetica,sans-Serif" font-size="10.00">IPlugPlatform.h</text>
</a>
</g>
</g>
<!-- Node1&#45;&gt;Node6 -->
<g id="edge5" class="edge"><title>Node1&#45;&gt;Node6</title>
<path fill="none" stroke="midnightblue" d="M652.749,-280.368C652.749,-262.617 652.749,-221.666 652.749,-197.597"/>
<polygon fill="midnightblue" stroke="midnightblue" points="656.249,-197.591 652.749,-187.591 649.249,-197.591 656.249,-197.591"/>
</g>
<!-- Node15 -->
<g id="node15" class="node"><title>Node15</title>
<g id="a_node15"><a xlink:href="_i_plug_constants_8h.html" target="_top" xlink:title="Constant definitions, Types, magic numbers. ">
<polygon fill="white" stroke="black" points="884.749,-0.5 884.749,-19.5 976.749,-19.5 976.749,-0.5 884.749,-0.5"/>
<text text-anchor="middle" x="930.749" y="-7.5" font-family="Helvetica,sans-Serif" font-size="10.00">IPlugConstants.h</text>
</a>
</g>
</g>
<!-- Node1&#45;&gt;Node15 -->
<g id="edge28" class="edge"><title>Node1&#45;&gt;Node15</title>
<path fill="none" stroke="midnightblue" d="M687.986,-285.637C777.526,-276.121 1006.75,-245.288 1006.75,-179 1006.75,-179 1006.75,-179 1006.75,-121 1006.75,-81.2757 972.785,-45.5045 950.267,-26.1536"/>
<polygon fill="midnightblue" stroke="midnightblue" points="952.231,-23.2364 942.292,-19.5672 947.774,-28.6337 952.231,-23.2364"/>
</g>
<!-- Node16 -->
<g id="node16" class="node"><title>Node16</title>
<g id="a_node16"><a xlink:href="_i_plug_utilities_8h.html" target="_top" xlink:title="Utility functions and macros. ">
<polygon fill="white" stroke="black" points="576.749,-56.5 576.749,-75.5 656.749,-75.5 656.749,-56.5 576.749,-56.5"/>
<text text-anchor="middle" x="616.749" y="-63.5" font-family="Helvetica,sans-Serif" font-size="10.00">IPlugUtilities.h</text>
</a>
</g>
</g>
<!-- Node1&#45;&gt;Node16 -->
<g id="edge40" class="edge"><title>Node1&#45;&gt;Node16</title>
<path fill="none" stroke="midnightblue" d="M646.599,-280.361C635.059,-263.558 610.532,-224.88 601.749,-188 593.24,-152.269 603.157,-109.385 610.431,-85.4606"/>
<polygon fill="midnightblue" stroke="midnightblue" points="613.865,-86.2157 613.605,-75.6241 607.203,-84.0665 613.865,-86.2157"/>
</g>
<!-- Node19 -->
<g id="node19" class="node"><title>Node19</title>
<g id="a_node19"><a xlink:href="_i_plug_structs_8h_source.html" target="_top" xlink:title="IPlugStructs.h">
<polygon fill="white" stroke="black" points="683.249,-224.5 683.249,-243.5 762.249,-243.5 762.249,-224.5 683.249,-224.5"/>
<text text-anchor="middle" x="722.749" y="-231.5" font-family="Helvetica,sans-Serif" font-size="10.00">IPlugStructs.h</text>
</a>
</g>
</g>
<!-- Node1&#45;&gt;Node19 -->
<g id="edge29" class="edge"><title>Node1&#45;&gt;Node19</title>
<path fill="none" stroke="midnightblue" d="M663.996,-280.324C674.547,-272.185 690.55,-259.839 703.191,-250.087"/>
<polygon fill="midnightblue" stroke="midnightblue" points="705.518,-252.713 711.298,-243.834 701.242,-247.171 705.518,-252.713"/>
</g>
<!-- Node21 -->
<g id="node21" class="node"><title>Node21</title>
<g id="a_node21"><a xlink:href="_i_plug_parameter_8h_source.html" target="_top" xlink:title="IPlugParameter.h">
<polygon fill="white" stroke="black" points="151.749,-112.5 151.749,-131.5 243.749,-131.5 243.749,-112.5 151.749,-112.5"/>
<text text-anchor="middle" x="197.749" y="-119.5" font-family="Helvetica,sans-Serif" font-size="10.00">IPlugParameter.h</text>
</a>
</g>
</g>
<!-- Node1&#45;&gt;Node21 -->
<g id="edge41" class="edge"><title>Node1&#45;&gt;Node21</title>
<path fill="none" stroke="midnightblue" d="M629.244,-280.425C553.811,-252.904 317.685,-166.757 230.511,-134.953"/>
<polygon fill="midnightblue" stroke="midnightblue" points="231.707,-131.664 221.113,-131.524 229.308,-138.24 231.707,-131.664"/>
</g>
<!-- Node6&#45;&gt;Node2 -->
<g id="edge6" class="edge"><title>Node6&#45;&gt;Node2</title>
<path fill="none" stroke="midnightblue" d="M610.465,-171.991C516.841,-160.07 296.174,-127.132 243.749,-76 231.529,-64.0815 227.059,-44.7749 225.478,-30.2939"/>
<polygon fill="midnightblue" stroke="midnightblue" points="228.943,-29.6727 224.738,-19.9483 221.961,-30.1728 228.943,-29.6727"/>
</g>
<!-- Node7 -->
<g id="node7" class="node"><title>Node7</title>
<polygon fill="white" stroke="#bfbfbf" points="631.249,-0.5 631.249,-19.5 676.249,-19.5 676.249,-0.5 631.249,-0.5"/>
<text text-anchor="middle" x="653.749" y="-7.5" font-family="Helvetica,sans-Serif" font-size="10.00">cstdlib</text>
</g>
<!-- Node6&#45;&gt;Node7 -->
<g id="edge7" class="edge"><title>Node6&#45;&gt;Node7</title>
<path fill="none" stroke="midnightblue" d="M655.056,-168.475C660.106,-148.686 671.267,-98.107 665.749,-56 664.594,-47.1813 662.215,-37.6328 659.879,-29.6098"/>
<polygon fill="midnightblue" stroke="midnightblue" points="663.148,-28.3366 656.837,-19.8268 656.464,-30.4151 663.148,-28.3366"/>
</g>
<!-- Node8 -->
<g id="node8" class="node"><title>Node8</title>
<g id="a_node8"><a xlink:href="_i_plug_logger_8h.html" target="_top" xlink:title="IPlug logging a.k.a tracing functionailty. ">
<polygon fill="white" stroke="black" points="464.249,-112.5 464.249,-131.5 541.249,-131.5 541.249,-112.5 464.249,-112.5"/>
<text text-anchor="middle" x="502.749" y="-119.5" font-family="Helvetica,sans-Serif" font-size="10.00">IPlugLogger.h</text>
</a>
</g>
</g>
<!-- Node6&#45;&gt;Node8 -->
<g id="edge8" class="edge"><title>Node6&#45;&gt;Node8</title>
<path fill="none" stroke="midnightblue" d="M628.981,-168.444C603.856,-159.399 564.038,-145.064 535.849,-134.916"/>
<polygon fill="midnightblue" stroke="midnightblue" points="537,-131.611 526.406,-131.516 534.629,-138.197 537,-131.611"/>
</g>
<!-- Node8&#45;&gt;Node2 -->
<g id="edge13" class="edge"><title>Node8&#45;&gt;Node2</title>
<path fill="none" stroke="midnightblue" d="M490.79,-112.442C471.181,-98.7613 430.583,-71.894 392.749,-56 347.717,-37.0819 292.515,-24.1042 257.976,-17.1133"/>
<polygon fill="midnightblue" stroke="midnightblue" points="258.444,-13.6381 247.955,-15.1359 257.088,-20.5056 258.444,-13.6381"/>
</g>
<!-- Node8&#45;&gt;Node3 -->
<g id="edge12" class="edge"><title>Node8&#45;&gt;Node3</title>
<path fill="none" stroke="midnightblue" d="M541.465,-117.67C603.692,-111.941 729.912,-98.7719 846.591,-75.7531"/>
<polygon fill="midnightblue" stroke="midnightblue" points="847.289,-79.183 856.407,-73.7884 845.915,-72.3192 847.289,-79.183"/>
</g>
<!-- Node8&#45;&gt;Node5 -->
<g id="edge17" class="edge"><title>Node8&#45;&gt;Node5</title>
<path fill="none" stroke="midnightblue" d="M464.015,-114.7C399.203,-104.158 269.705,-83.0952 206.758,-72.8569"/>
<polygon fill="midnightblue" stroke="midnightblue" points="207.319,-69.4023 196.887,-71.2514 206.196,-76.3115 207.319,-69.4023"/>
</g>
<!-- Node9 -->
<g id="node9" class="node"><title>Node9</title>
<polygon fill="white" stroke="#bfbfbf" points="432.249,-0.5 432.249,-19.5 475.249,-19.5 475.249,-0.5 432.249,-0.5"/>
<text text-anchor="middle" x="453.749" y="-7.5" font-family="Helvetica,sans-Serif" font-size="10.00">cstdio</text>
</g>
<!-- Node8&#45;&gt;Node9 -->
<g id="edge9" class="edge"><title>Node8&#45;&gt;Node9</title>
<path fill="none" stroke="midnightblue" d="M498.904,-112.368C490.925,-94.4563 472.424,-52.9233 461.744,-28.9482"/>
<polygon fill="midnightblue" stroke="midnightblue" points="464.843,-27.3019 457.576,-19.5914 458.448,-30.1503 464.843,-27.3019"/>
</g>
<!-- Node10 -->
<g id="node10" class="node"><title>Node10</title>
<polygon fill="white" stroke="#bfbfbf" points="497.749,-0.5 497.749,-19.5 543.749,-19.5 543.749,-0.5 497.749,-0.5"/>
<text text-anchor="middle" x="520.749" y="-7.5" font-family="Helvetica,sans-Serif" font-size="10.00">cctype</text>
</g>
<!-- Node8&#45;&gt;Node10 -->
<g id="edge10" class="edge"><title>Node8&#45;&gt;Node10</title>
<path fill="none" stroke="midnightblue" d="M502.86,-112.096C503.146,-99.5053 504.162,-75.8242 507.749,-56 509.38,-46.9865 512.093,-37.1928 514.619,-29.0505"/>
<polygon fill="midnightblue" stroke="midnightblue" points="517.96,-30.0949 517.727,-19.5026 511.304,-27.9283 517.96,-30.0949"/>
</g>
<!-- Node11 -->
<g id="node11" class="node"><title>Node11</title>
<polygon fill="white" stroke="#bfbfbf" points="335.249,-56.5 335.249,-75.5 384.249,-75.5 384.249,-56.5 335.249,-56.5"/>
<text text-anchor="middle" x="359.749" y="-63.5" font-family="Helvetica,sans-Serif" font-size="10.00">cstdarg</text>
</g>
<!-- Node8&#45;&gt;Node11 -->
<g id="edge11" class="edge"><title>Node8&#45;&gt;Node11</title>
<path fill="none" stroke="midnightblue" d="M480.09,-112.444C456.347,-103.478 418.84,-89.314 392.011,-79.1827"/>
<polygon fill="midnightblue" stroke="midnightblue" points="392.894,-75.7749 382.302,-75.5164 390.421,-82.3235 392.894,-75.7749"/>
</g>
<!-- Node12 -->
<g id="node12" class="node"><title>Node12</title>
<polygon fill="white" stroke="#bfbfbf" points="517.249,-56.5 517.249,-75.5 558.249,-75.5 558.249,-56.5 517.249,-56.5"/>
<text text-anchor="middle" x="537.749" y="-63.5" font-family="Helvetica,sans-Serif" font-size="10.00">ctime</text>
</g>
<!-- Node8&#45;&gt;Node12 -->
<g id="edge14" class="edge"><title>Node8&#45;&gt;Node12</title>
<path fill="none" stroke="midnightblue" d="M508.529,-112.083C513.422,-104.534 520.577,-93.4948 526.582,-84.2298"/>
<polygon fill="midnightblue" stroke="midnightblue" points="529.575,-86.0463 532.077,-75.7511 523.701,-82.239 529.575,-86.0463"/>
</g>
<!-- Node13 -->
<g id="node13" class="node"><title>Node13</title>
<polygon fill="white" stroke="#bfbfbf" points="789.249,-56.5 789.249,-75.5 838.249,-75.5 838.249,-56.5 789.249,-56.5"/>
<text text-anchor="middle" x="813.749" y="-63.5" font-family="Helvetica,sans-Serif" font-size="10.00">cassert</text>
</g>
<!-- Node8&#45;&gt;Node13 -->
<g id="edge15" class="edge"><title>Node8&#45;&gt;Node13</title>
<path fill="none" stroke="midnightblue" d="M541.625,-115.354C594.538,-107.491 692.111,-92.3542 774.749,-76 776.198,-75.7133 777.674,-75.4122 779.165,-75.1011"/>
<polygon fill="midnightblue" stroke="midnightblue" points="780.017,-78.4977 789.042,-72.9482 778.526,-71.6583 780.017,-78.4977"/>
</g>
<!-- Node14 -->
<g id="node14" class="node"><title>Node14</title>
<polygon fill="white" stroke="#bfbfbf" points="252.749,-56.5 252.749,-75.5 316.749,-75.5 316.749,-56.5 252.749,-56.5"/>
<text text-anchor="middle" x="284.749" y="-63.5" font-family="Helvetica,sans-Serif" font-size="10.00">wdlstring.h</text>
</g>
<!-- Node8&#45;&gt;Node14 -->
<g id="edge16" class="edge"><title>Node8&#45;&gt;Node14</title>
<path fill="none" stroke="midnightblue" d="M468.206,-112.444C429.83,-102.938 367.867,-87.5889 326.725,-77.3978"/>
<polygon fill="midnightblue" stroke="midnightblue" points="327.546,-73.9955 316.998,-74.9883 325.863,-80.7901 327.546,-73.9955"/>
</g>
<!-- Node8&#45;&gt;Node15 -->
<g id="edge18" class="edge"><title>Node8&#45;&gt;Node15</title>
<path fill="none" stroke="midnightblue" d="M535.977,-112.46C612.698,-92.7421 802.136,-44.0547 887.644,-22.0784"/>
<polygon fill="midnightblue" stroke="midnightblue" points="888.728,-25.4137 897.542,-19.5345 886.986,-18.634 888.728,-25.4137"/>
</g>
<!-- Node8&#45;&gt;Node16 -->
<g id="edge19" class="edge"><title>Node8&#45;&gt;Node16</title>
<path fill="none" stroke="midnightblue" d="M520.813,-112.444C539.324,-103.675 568.33,-89.9355 589.605,-79.8579"/>
<polygon fill="midnightblue" stroke="midnightblue" points="591.231,-82.9604 598.77,-75.5164 588.234,-76.6343 591.231,-82.9604"/>
</g>
<!-- Node16&#45;&gt;Node2 -->
<g id="edge24" class="edge"><title>Node16&#45;&gt;Node2</title>
<path fill="none" stroke="midnightblue" d="M576.66,-57.6119C573.311,-57.047 569.974,-56.5021 566.749,-56 453.988,-38.4431 319.602,-22.09 258.263,-14.8765"/>
<polygon fill="midnightblue" stroke="midnightblue" points="258.365,-11.3646 248.025,-13.6778 257.551,-18.3171 258.365,-11.3646"/>
</g>
<!-- Node16&#45;&gt;Node6 -->
<g id="edge27" class="edge"><title>Node16&#45;&gt;Node6</title>
<path fill="none" stroke="midnightblue" d="M619.561,-75.5914C625.385,-93.3881 638.881,-134.625 646.752,-158.674"/>
<polygon fill="midnightblue" stroke="midnightblue" points="643.487,-159.953 649.924,-168.368 650.14,-157.776 643.487,-159.953"/>
</g>
<!-- Node16&#45;&gt;Node7 -->
<g id="edge23" class="edge"><title>Node16&#45;&gt;Node7</title>
<path fill="none" stroke="midnightblue" d="M622.859,-56.083C628.031,-48.5341 635.595,-37.4948 641.944,-28.2298"/>
<polygon fill="midnightblue" stroke="midnightblue" points="644.988,-29.9787 647.753,-19.7511 639.213,-26.0221 644.988,-29.9787"/>
</g>
<!-- Node16&#45;&gt;Node9 -->
<g id="edge22" class="edge"><title>Node16&#45;&gt;Node9</title>
<path fill="none" stroke="midnightblue" d="M590.921,-56.4435C562.209,-46.9316 515.839,-31.5697 485.078,-21.3787"/>
<polygon fill="midnightblue" stroke="midnightblue" points="485.885,-17.9593 475.292,-18.1368 483.684,-24.6041 485.885,-17.9593"/>
</g>
<!-- Node16&#45;&gt;Node10 -->
<g id="edge25" class="edge"><title>Node16&#45;&gt;Node10</title>
<path fill="none" stroke="midnightblue" d="M601.325,-56.324C586.21,-47.8215 562.934,-34.7288 545.278,-24.7975"/>
<polygon fill="midnightblue" stroke="midnightblue" points="546.567,-21.5066 536.135,-19.6545 543.135,-27.6077 546.567,-21.5066"/>
</g>
<!-- Node16&#45;&gt;Node15 -->
<g id="edge26" class="edge"><title>Node16&#45;&gt;Node15</title>
<path fill="none" stroke="midnightblue" d="M656.836,-58.106C712.043,-48.6119 811.744,-31.4659 874.422,-20.6868"/>
<polygon fill="midnightblue" stroke="midnightblue" points="875.27,-24.0925 884.532,-18.9482 874.083,-17.1938 875.27,-24.0925"/>
</g>
<!-- Node17 -->
<g id="node17" class="node"><title>Node17</title>
<polygon fill="white" stroke="#bfbfbf" points="694.749,-0.5 694.749,-19.5 750.749,-19.5 750.749,-0.5 694.749,-0.5"/>
<text text-anchor="middle" x="722.749" y="-7.5" font-family="Helvetica,sans-Serif" font-size="10.00">algorithm</text>
</g>
<!-- Node16&#45;&gt;Node17 -->
<g id="edge20" class="edge"><title>Node16&#45;&gt;Node17</title>
<path fill="none" stroke="midnightblue" d="M633.78,-56.324C650.779,-47.6641 677.125,-34.2424 696.742,-24.249"/>
<polygon fill="midnightblue" stroke="midnightblue" points="698.439,-27.3125 705.761,-19.6545 695.262,-21.0752 698.439,-27.3125"/>
</g>
<!-- Node18 -->
<g id="node18" class="node"><title>Node18</title>
<polygon fill="white" stroke="#bfbfbf" points="568.749,-0.5 568.749,-19.5 612.749,-19.5 612.749,-0.5 568.749,-0.5"/>
<text text-anchor="middle" x="590.749" y="-7.5" font-family="Helvetica,sans-Serif" font-size="10.00">cmath</text>
</g>
<!-- Node16&#45;&gt;Node18 -->
<g id="edge21" class="edge"><title>Node16&#45;&gt;Node18</title>
<path fill="none" stroke="midnightblue" d="M612.456,-56.083C608.897,-48.6913 603.727,-37.9533 599.325,-28.8111"/>
<polygon fill="midnightblue" stroke="midnightblue" points="602.454,-27.2427 594.963,-19.7511 596.147,-30.2795 602.454,-27.2427"/>
</g>
<!-- Node19&#45;&gt;Node4 -->
<g id="edge32" class="edge"><title>Node19&#45;&gt;Node4</title>
<path fill="none" stroke="midnightblue" d="M743.19,-224.444C764.42,-215.557 797.848,-201.563 822.004,-191.451"/>
<polygon fill="midnightblue" stroke="midnightblue" points="823.531,-194.606 831.404,-187.516 820.828,-188.149 823.531,-194.606"/>
</g>
<!-- Node19&#45;&gt;Node6 -->
<g id="edge34" class="edge"><title>Node19&#45;&gt;Node6</title>
<path fill="none" stroke="midnightblue" d="M711.502,-224.324C700.952,-216.185 684.948,-203.839 672.307,-194.087"/>
<polygon fill="midnightblue" stroke="midnightblue" points="674.256,-191.171 664.2,-187.834 669.981,-196.713 674.256,-191.171"/>
</g>
<!-- Node19&#45;&gt;Node14 -->
<g id="edge31" class="edge"><title>Node19&#45;&gt;Node14</title>
<path fill="none" stroke="midnightblue" d="M699.532,-224.428C675.158,-215.414 635.73,-200.791 601.749,-188 497.212,-148.65 373.622,-101.21 316.555,-79.2517"/>
<polygon fill="midnightblue" stroke="midnightblue" points="317.603,-75.905 307.013,-75.5794 315.089,-82.4378 317.603,-75.905"/>
</g>
<!-- Node19&#45;&gt;Node15 -->
<g id="edge33" class="edge"><title>Node19&#45;&gt;Node15</title>
<path fill="none" stroke="midnightblue" d="M735.66,-224.305C779.538,-194.622 920.801,-97.9249 931.749,-76 938.918,-61.643 937.815,-43.1824 935.417,-29.6056"/>
<polygon fill="midnightblue" stroke="midnightblue" points="938.778,-28.5865 933.252,-19.5471 931.935,-30.0598 938.778,-28.5865"/>
</g>
<!-- Node19&#45;&gt;Node17 -->
<g id="edge30" class="edge"><title>Node19&#45;&gt;Node17</title>
<path fill="none" stroke="midnightblue" d="M722.749,-224.297C722.749,-191.633 722.749,-75.8661 722.749,-29.9573"/>
<polygon fill="midnightblue" stroke="midnightblue" points="726.249,-29.8837 722.749,-19.8837 719.249,-29.8838 726.249,-29.8837"/>
</g>
<!-- Node20 -->
<g id="node20" class="node"><title>Node20</title>
<g id="a_node20"><a xlink:href="_i_plug_midi_8h_source.html" target="_top" xlink:title="IPlugMidi.h">
<polygon fill="white" stroke="black" points="781.249,-112.5 781.249,-131.5 846.249,-131.5 846.249,-112.5 781.249,-112.5"/>
<text text-anchor="middle" x="813.749" y="-119.5" font-family="Helvetica,sans-Serif" font-size="10.00">IPlugMidi.h</text>
</a>
</g>
</g>
<!-- Node19&#45;&gt;Node20 -->
<g id="edge35" class="edge"><title>Node19&#45;&gt;Node20</title>
<path fill="none" stroke="midnightblue" d="M729.89,-224.368C745.04,-206.055 780.618,-163.049 800.213,-139.362"/>
<polygon fill="midnightblue" stroke="midnightblue" points="802.964,-141.528 806.642,-131.591 797.571,-137.066 802.964,-141.528"/>
</g>
<!-- Node20&#45;&gt;Node3 -->
<g id="edge37" class="edge"><title>Node20&#45;&gt;Node3</title>
<path fill="none" stroke="midnightblue" d="M824.353,-112.324C834.205,-104.263 849.1,-92.0765 860.964,-82.3695"/>
<polygon fill="midnightblue" stroke="midnightblue" points="863.429,-84.8752 868.952,-75.8339 858.996,-79.4575 863.429,-84.8752"/>
</g>
<!-- Node20&#45;&gt;Node13 -->
<g id="edge36" class="edge"><title>Node20&#45;&gt;Node13</title>
<path fill="none" stroke="midnightblue" d="M813.749,-112.083C813.749,-105.006 813.749,-94.8611 813.749,-85.9865"/>
<polygon fill="midnightblue" stroke="midnightblue" points="817.249,-85.751 813.749,-75.7511 810.249,-85.7511 817.249,-85.751"/>
</g>
<!-- Node20&#45;&gt;Node15 -->
<g id="edge38" class="edge"><title>Node20&#45;&gt;Node15</title>
<path fill="none" stroke="midnightblue" d="M846.255,-113.594C867.704,-107.102 894.862,-95.5534 911.749,-76 922.906,-63.0813 927.519,-43.909 929.423,-29.7316"/>
<polygon fill="midnightblue" stroke="midnightblue" points="932.918,-29.9486 930.441,-19.6475 925.954,-29.2451 932.918,-29.9486"/>
</g>
<!-- Node20&#45;&gt;Node16 -->
<g id="edge39" class="edge"><title>Node20&#45;&gt;Node16</title>
<path fill="none" stroke="midnightblue" d="M782.534,-112.444C748.816,-103.201 694.949,-88.4356 657.817,-78.2572"/>
<polygon fill="midnightblue" stroke="midnightblue" points="658.388,-74.7846 647.818,-75.5164 656.537,-81.5356 658.388,-74.7846"/>
</g>
<!-- Node21&#45;&gt;Node2 -->
<g id="edge42" class="edge"><title>Node21&#45;&gt;Node2</title>
<path fill="none" stroke="midnightblue" d="M178.366,-112.38C155.286,-100.836 121.535,-79.1147 135.749,-56 147.93,-36.1912 171.827,-24.7813 191.794,-18.4097"/>
<polygon fill="midnightblue" stroke="midnightblue" points="192.872,-21.7414 201.502,-15.5956 190.923,-15.0182 192.872,-21.7414"/>
</g>
<!-- Node21&#45;&gt;Node14 -->
<g id="edge44" class="edge"><title>Node21&#45;&gt;Node14</title>
<path fill="none" stroke="midnightblue" d="M211.727,-112.324C225.299,-103.9 246.129,-90.9709 262.074,-81.0741"/>
<polygon fill="midnightblue" stroke="midnightblue" points="264.155,-83.9019 270.806,-75.6545 260.464,-77.9544 264.155,-83.9019"/>
</g>
<!-- Node21&#45;&gt;Node16 -->
<g id="edge45" class="edge"><title>Node21&#45;&gt;Node16</title>
<path fill="none" stroke="midnightblue" d="M243.885,-116.224C313.855,-108.789 450.925,-93.4723 566.749,-76 566.85,-75.9848 566.951,-75.9695 567.052,-75.9542"/>
<polygon fill="midnightblue" stroke="midnightblue" points="567.341,-79.4524 576.665,-74.4216 566.239,-72.5397 567.341,-79.4524"/>
</g>
<!-- Node22 -->
<g id="node22" class="node"><title>Node22</title>
<polygon fill="white" stroke="#bfbfbf" points="29.2491,-56.5 29.2491,-75.5 88.2491,-75.5 88.2491,-56.5 29.2491,-56.5"/>
<text text-anchor="middle" x="58.7491" y="-63.5" font-family="Helvetica,sans-Serif" font-size="10.00">functional</text>
</g>
<!-- Node21&#45;&gt;Node22 -->
<g id="edge43" class="edge"><title>Node21&#45;&gt;Node22</title>
<path fill="none" stroke="midnightblue" d="M175.724,-112.444C152.645,-103.478 116.187,-89.314 90.1083,-79.1827"/>
<polygon fill="midnightblue" stroke="midnightblue" points="91.2598,-75.8753 80.6711,-75.5164 88.7249,-82.4002 91.2598,-75.8753"/>
</g>
</g>
</svg>
