<?xml version="1.0" encoding="UTF-8" standalone="no"?>
<!DOCTYPE svg PUBLIC "-//W3C//DTD SVG 1.1//EN"
 "http://www.w3.org/Graphics/SVG/1.1/DTD/svg11.dtd">
<!-- Generated by graphviz version 2.36.0 (20140111.2315)
 -->
<!-- Title: IPlugVST2.h Pages: 1 -->
<svg width="1412pt" height="476pt"
 viewBox="0.00 0.00 1412.22 476.00" xmlns="http://www.w3.org/2000/svg" xmlns:xlink="http://www.w3.org/1999/xlink">
<g id="graph0" class="graph" transform="scale(1 1) rotate(0) translate(4 472)">
<title>IPlugVST2.h</title>
<polygon fill="white" stroke="none" points="-4,4 -4,-472 1408.22,-472 1408.22,4 -4,4"/>
<!-- Node1 -->
<g id="node1" class="node"><title>Node1</title>
<polygon fill="#bfbfbf" stroke="black" points="430.013,-448.5 430.013,-467.5 502.013,-467.5 502.013,-448.5 430.013,-448.5"/>
<text text-anchor="middle" x="466.013" y="-455.5" font-family="Helvetica,sans-Serif" font-size="10.00">IPlugVST2.h</text>
</g>
<!-- Node2 -->
<g id="node2" class="node"><title>Node2</title>
<polygon fill="white" stroke="#bfbfbf" points="387.013,-392.5 387.013,-411.5 447.013,-411.5 447.013,-392.5 387.013,-392.5"/>
<text text-anchor="middle" x="417.013" y="-399.5" font-family="Helvetica,sans-Serif" font-size="10.00">aeffectx.h</text>
</g>
<!-- Node1&#45;&gt;Node2 -->
<g id="edge1" class="edge"><title>Node1&#45;&gt;Node2</title>
<path fill="none" stroke="midnightblue" d="M457.921,-448.083C450.857,-440.298 440.425,-428.801 431.864,-419.367"/>
<polygon fill="midnightblue" stroke="midnightblue" points="434.265,-416.805 424.953,-411.751 429.081,-421.509 434.265,-416.805"/>
</g>
<!-- Node3 -->
<g id="node3" class="node"><title>Node3</title>
<g id="a_node3"><a xlink:href="_i_plug_base__select_8h_source.html" target="_top" xlink:title="IPlugBase_select.h">
<polygon fill="white" stroke="black" points="465.513,-392.5 465.513,-411.5 566.513,-411.5 566.513,-392.5 465.513,-392.5"/>
<text text-anchor="middle" x="516.013" y="-399.5" font-family="Helvetica,sans-Serif" font-size="10.00">IPlugBase_select.h</text>
</a>
</g>
</g>
<!-- Node1&#45;&gt;Node3 -->
<g id="edge2" class="edge"><title>Node1&#45;&gt;Node3</title>
<path fill="none" stroke="midnightblue" d="M474.269,-448.083C481.477,-440.298 492.122,-428.801 500.859,-419.367"/>
<polygon fill="midnightblue" stroke="midnightblue" points="503.684,-421.467 507.91,-411.751 498.548,-416.711 503.684,-421.467"/>
</g>
<!-- Node4 -->
<g id="node4" class="node"><title>Node4</title>
<g id="a_node4"><a xlink:href="_i_plug_base_graphics_8h.html" target="_top" xlink:title="An IPlugBase class for an IPlug plug&#45;in that uses IGraphics for it&#39;s UI. ">
<polygon fill="white" stroke="black" points="461.513,-336.5 461.513,-355.5 570.513,-355.5 570.513,-336.5 461.513,-336.5"/>
<text text-anchor="middle" x="516.013" y="-343.5" font-family="Helvetica,sans-Serif" font-size="10.00">IPlugBaseGraphics.h</text>
</a>
</g>
</g>
<!-- Node3&#45;&gt;Node4 -->
<g id="edge3" class="edge"><title>Node3&#45;&gt;Node4</title>
<path fill="none" stroke="midnightblue" d="M516.013,-392.083C516.013,-385.006 516.013,-374.861 516.013,-365.986"/>
<polygon fill="midnightblue" stroke="midnightblue" points="519.513,-365.751 516.013,-355.751 512.513,-365.751 519.513,-365.751"/>
</g>
<!-- Node28 -->
<g id="node28" class="node"><title>Node28</title>
<g id="a_node28"><a xlink:href="_i_plug_processor_8h.html" target="_top" xlink:title="The base class for IPlug Audio Processing. ">
<polygon fill="white" stroke="black" points="910.013,-280.5 910.013,-299.5 1002.01,-299.5 1002.01,-280.5 910.013,-280.5"/>
<text text-anchor="middle" x="956.013" y="-287.5" font-family="Helvetica,sans-Serif" font-size="10.00">IPlugProcessor.h</text>
</a>
</g>
</g>
<!-- Node3&#45;&gt;Node28 -->
<g id="edge51" class="edge"><title>Node3&#45;&gt;Node28</title>
<path fill="none" stroke="midnightblue" d="M550.173,-392.46C629.125,-372.722 824.19,-323.956 911.967,-302.012"/>
<polygon fill="midnightblue" stroke="midnightblue" points="913.022,-305.355 921.875,-299.535 911.324,-298.564 913.022,-305.355"/>
</g>
<!-- Node33 -->
<g id="node33" class="node"><title>Node33</title>
<g id="a_node33"><a xlink:href="_i_plug_presets_8h.html" target="_top" xlink:title="IPlugPresets.h">
<polygon fill="white" stroke="black" points="265.513,-280.5 265.513,-299.5 346.513,-299.5 346.513,-280.5 265.513,-280.5"/>
<text text-anchor="middle" x="306.013" y="-287.5" font-family="Helvetica,sans-Serif" font-size="10.00">IPlugPresets.h</text>
</a>
</g>
</g>
<!-- Node3&#45;&gt;Node33 -->
<g id="edge68" class="edge"><title>Node3&#45;&gt;Node33</title>
<path fill="none" stroke="midnightblue" d="M499.534,-392.368C463.038,-373.251 375.177,-327.229 331.52,-304.361"/>
<polygon fill="midnightblue" stroke="midnightblue" points="332.897,-301.131 322.415,-299.591 329.649,-307.332 332.897,-301.131"/>
</g>
<!-- Node5 -->
<g id="node5" class="node"><title>Node5</title>
<g id="a_node5"><a xlink:href="_i_plug_base_8h.html" target="_top" xlink:title="The lowest level base class of an IPlug plug&#45;in. ">
<polygon fill="white" stroke="black" points="529.013,-280.5 529.013,-299.5 599.013,-299.5 599.013,-280.5 529.013,-280.5"/>
<text text-anchor="middle" x="564.013" y="-287.5" font-family="Helvetica,sans-Serif" font-size="10.00">IPlugBase.h</text>
</a>
</g>
</g>
<!-- Node4&#45;&gt;Node5 -->
<g id="edge4" class="edge"><title>Node4&#45;&gt;Node5</title>
<path fill="none" stroke="midnightblue" d="M523.939,-336.083C530.859,-328.298 541.078,-316.801 549.465,-307.367"/>
<polygon fill="midnightblue" stroke="midnightblue" points="552.206,-309.55 556.234,-299.751 546.974,-304.9 552.206,-309.55"/>
</g>
<!-- Node27 -->
<g id="node27" class="node"><title>Node27</title>
<g id="a_node27"><a xlink:href="_i_plug_delegate_8h_source.html" target="_top" xlink:title="IPlugDelegate.h">
<polygon fill="white" stroke="black" points="425.013,-280.5 425.013,-299.5 511.013,-299.5 511.013,-280.5 425.013,-280.5"/>
<text text-anchor="middle" x="468.013" y="-287.5" font-family="Helvetica,sans-Serif" font-size="10.00">IPlugDelegate.h</text>
</a>
</g>
</g>
<!-- Node4&#45;&gt;Node27 -->
<g id="edge50" class="edge"><title>Node4&#45;&gt;Node27</title>
<path fill="none" stroke="midnightblue" d="M508.086,-336.083C501.167,-328.298 490.947,-316.801 482.561,-307.367"/>
<polygon fill="midnightblue" stroke="midnightblue" points="485.051,-304.9 475.791,-299.751 479.819,-309.55 485.051,-304.9"/>
</g>
<!-- Node6 -->
<g id="node6" class="node"><title>Node6</title>
<polygon fill="white" stroke="#bfbfbf" points="387.013,-0.5 387.013,-19.5 433.013,-19.5 433.013,-0.5 387.013,-0.5"/>
<text text-anchor="middle" x="410.013" y="-7.5" font-family="Helvetica,sans-Serif" font-size="10.00">cstring</text>
</g>
<!-- Node5&#45;&gt;Node6 -->
<g id="edge5" class="edge"><title>Node5&#45;&gt;Node6</title>
<path fill="none" stroke="midnightblue" d="M528.957,-281.782C525.933,-281.174 522.92,-280.573 520.013,-280 412.639,-258.848 38.0127,-288.437 38.0127,-179 38.0127,-179 38.0127,-179 38.0127,-121 38.0127,-90.2048 37.9292,-75.192 62.0127,-56 110.131,-17.6546 298.983,-11.8051 376.515,-11.0436"/>
<polygon fill="midnightblue" stroke="midnightblue" points="376.716,-14.5422 386.69,-10.967 376.664,-7.54244 376.716,-14.5422"/>
</g>
<!-- Node7 -->
<g id="node7" class="node"><title>Node7</title>
<polygon fill="white" stroke="#bfbfbf" points="948.013,-56.5 948.013,-75.5 994.013,-75.5 994.013,-56.5 948.013,-56.5"/>
<text text-anchor="middle" x="971.013" y="-63.5" font-family="Helvetica,sans-Serif" font-size="10.00">cstdint</text>
</g>
<!-- Node5&#45;&gt;Node7 -->
<g id="edge6" class="edge"><title>Node5&#45;&gt;Node7</title>
<path fill="none" stroke="midnightblue" d="M599.286,-282.445C632.299,-275.523 682.474,-262.961 723.013,-244 802.964,-206.605 815.634,-183.92 887.013,-132 909.87,-115.374 935.47,-95.3548 952.334,-81.9663"/>
<polygon fill="midnightblue" stroke="midnightblue" points="954.656,-84.5916 960.295,-75.6226 950.293,-79.117 954.656,-84.5916"/>
</g>
<!-- Node8 -->
<g id="node8" class="node"><title>Node8</title>
<polygon fill="white" stroke="#bfbfbf" points="688.513,-168.5 688.513,-187.5 737.513,-187.5 737.513,-168.5 688.513,-168.5"/>
<text text-anchor="middle" x="713.013" y="-175.5" font-family="Helvetica,sans-Serif" font-size="10.00">ptrlist.h</text>
</g>
<!-- Node5&#45;&gt;Node8 -->
<g id="edge7" class="edge"><title>Node5&#45;&gt;Node8</title>
<path fill="none" stroke="midnightblue" d="M593.966,-280.459C615.598,-273.24 644.644,-261.284 666.013,-244 682.199,-230.907 695.509,-210.939 703.782,-196.591"/>
<polygon fill="midnightblue" stroke="midnightblue" points="706.916,-198.156 708.678,-187.709 700.786,-194.777 706.916,-198.156"/>
</g>
<!-- Node9 -->
<g id="node9" class="node"><title>Node9</title>
<polygon fill="white" stroke="#bfbfbf" points="220.013,-56.5 220.013,-75.5 272.013,-75.5 272.013,-56.5 220.013,-56.5"/>
<text text-anchor="middle" x="246.013" y="-63.5" font-family="Helvetica,sans-Serif" font-size="10.00">mutex.h</text>
</g>
<!-- Node5&#45;&gt;Node9 -->
<g id="edge8" class="edge"><title>Node5&#45;&gt;Node9</title>
<path fill="none" stroke="midnightblue" d="M533.602,-280.423C509.387,-272.851 475.17,-260.456 448.013,-244 369.342,-196.328 291.961,-117.016 260.603,-83.1403"/>
<polygon fill="midnightblue" stroke="midnightblue" points="262.986,-80.5606 253.649,-75.5537 257.826,-85.2905 262.986,-80.5606"/>
</g>
<!-- Node10 -->
<g id="node10" class="node"><title>Node10</title>
<g id="a_node10"><a xlink:href="_i_plug_platform_8h.html" target="_top" xlink:title="Include to get consistently named preprocessor macros for different platforms and logging functionali...">
<polygon fill="white" stroke="black" points="510.013,-168.5 510.013,-187.5 594.013,-187.5 594.013,-168.5 510.013,-168.5"/>
<text text-anchor="middle" x="552.013" y="-175.5" font-family="Helvetica,sans-Serif" font-size="10.00">IPlugPlatform.h</text>
</a>
</g>
</g>
<!-- Node5&#45;&gt;Node10 -->
<g id="edge9" class="edge"><title>Node5&#45;&gt;Node10</title>
<path fill="none" stroke="midnightblue" d="M563.071,-280.368C561.135,-262.617 556.667,-221.666 554.042,-197.597"/>
<polygon fill="midnightblue" stroke="midnightblue" points="557.514,-197.153 552.95,-187.591 550.555,-197.912 557.514,-197.153"/>
</g>
<!-- Node19 -->
<g id="node19" class="node"><title>Node19</title>
<g id="a_node19"><a xlink:href="_i_plug_constants_8h.html" target="_top" xlink:title="Constant definitions, Types, magic numbers. ">
<polygon fill="white" stroke="black" points="653.013,-0.5 653.013,-19.5 745.013,-19.5 745.013,-0.5 653.013,-0.5"/>
<text text-anchor="middle" x="699.013" y="-7.5" font-family="Helvetica,sans-Serif" font-size="10.00">IPlugConstants.h</text>
</a>
</g>
</g>
<!-- Node5&#45;&gt;Node19 -->
<g id="edge32" class="edge"><title>Node5&#45;&gt;Node19</title>
<path fill="none" stroke="midnightblue" d="M599.282,-288.099C699.991,-283.358 988.759,-254.145 1100.01,-76 1104.72,-68.4606 1105.94,-62.6266 1100.01,-56 1098.59,-54.4051 865.608,-29.0164 755.469,-17.0947"/>
<polygon fill="midnightblue" stroke="midnightblue" points="755.524,-13.5803 745.206,-15.9842 754.771,-20.5397 755.524,-13.5803"/>
</g>
<!-- Node20 -->
<g id="node20" class="node"><title>Node20</title>
<g id="a_node20"><a xlink:href="_i_plug_utilities_8h.html" target="_top" xlink:title="Utility functions and macros. ">
<polygon fill="white" stroke="black" points="562.013,-56.5 562.013,-75.5 642.013,-75.5 642.013,-56.5 562.013,-56.5"/>
<text text-anchor="middle" x="602.013" y="-63.5" font-family="Helvetica,sans-Serif" font-size="10.00">IPlugUtilities.h</text>
</a>
</g>
</g>
<!-- Node5&#45;&gt;Node20 -->
<g id="edge44" class="edge"><title>Node5&#45;&gt;Node20</title>
<path fill="none" stroke="midnightblue" d="M599.018,-282.758C644.615,-272.395 721.414,-246.651 746.013,-188 773.556,-122.327 646.511,-135.609 642.013,-132 626.711,-119.722 615.729,-99.9033 609.188,-85.3735"/>
<polygon fill="midnightblue" stroke="midnightblue" points="612.313,-83.7752 605.213,-75.9119 605.86,-86.4869 612.313,-83.7752"/>
</g>
<!-- Node23 -->
<g id="node23" class="node"><title>Node23</title>
<g id="a_node23"><a xlink:href="_i_plug_structs_8h_source.html" target="_top" xlink:title="IPlugStructs.h">
<polygon fill="white" stroke="black" points="456.513,-224.5 456.513,-243.5 535.513,-243.5 535.513,-224.5 456.513,-224.5"/>
<text text-anchor="middle" x="496.013" y="-231.5" font-family="Helvetica,sans-Serif" font-size="10.00">IPlugStructs.h</text>
</a>
</g>
</g>
<!-- Node5&#45;&gt;Node23 -->
<g id="edge33" class="edge"><title>Node5&#45;&gt;Node23</title>
<path fill="none" stroke="midnightblue" d="M553.087,-280.324C542.838,-272.185 527.292,-259.839 515.012,-250.087"/>
<polygon fill="midnightblue" stroke="midnightblue" points="517.145,-247.312 507.137,-243.834 512.791,-252.794 517.145,-247.312"/>
</g>
<!-- Node25 -->
<g id="node25" class="node"><title>Node25</title>
<g id="a_node25"><a xlink:href="_i_plug_parameter_8h_source.html" target="_top" xlink:title="IPlugParameter.h">
<polygon fill="white" stroke="black" points="186.013,-112.5 186.013,-131.5 278.013,-131.5 278.013,-112.5 186.013,-112.5"/>
<text text-anchor="middle" x="232.013" y="-119.5" font-family="Helvetica,sans-Serif" font-size="10.00">IPlugParameter.h</text>
</a>
</g>
</g>
<!-- Node5&#45;&gt;Node25 -->
<g id="edge45" class="edge"><title>Node5&#45;&gt;Node25</title>
<path fill="none" stroke="midnightblue" d="M528.831,-281.735C476.448,-270.795 382.529,-250.664 368.013,-244 314.597,-219.48 267.016,-166.727 244.983,-139.703"/>
<polygon fill="midnightblue" stroke="midnightblue" points="247.492,-137.235 238.518,-131.602 242.02,-141.602 247.492,-137.235"/>
</g>
<!-- Node10&#45;&gt;Node6 -->
<g id="edge10" class="edge"><title>Node10&#45;&gt;Node6</title>
<path fill="none" stroke="midnightblue" d="M544.378,-168.075C521.542,-141.38 453.524,-61.865 423.975,-27.3218"/>
<polygon fill="midnightblue" stroke="midnightblue" points="426.502,-24.892 417.342,-19.5681 421.183,-29.4423 426.502,-24.892"/>
</g>
<!-- Node11 -->
<g id="node11" class="node"><title>Node11</title>
<polygon fill="white" stroke="#bfbfbf" points="525.513,-0.5 525.513,-19.5 570.513,-19.5 570.513,-0.5 525.513,-0.5"/>
<text text-anchor="middle" x="548.013" y="-7.5" font-family="Helvetica,sans-Serif" font-size="10.00">cstdlib</text>
</g>
<!-- Node10&#45;&gt;Node11 -->
<g id="edge11" class="edge"><title>Node10&#45;&gt;Node11</title>
<path fill="none" stroke="midnightblue" d="M551.798,-168.075C551.168,-141.945 549.319,-65.2106 548.46,-29.577"/>
<polygon fill="midnightblue" stroke="midnightblue" points="551.959,-29.4809 548.219,-19.5681 544.961,-29.6496 551.959,-29.4809"/>
</g>
<!-- Node12 -->
<g id="node12" class="node"><title>Node12</title>
<g id="a_node12"><a xlink:href="_i_plug_logger_8h.html" target="_top" xlink:title="IPlug logging a.k.a tracing functionailty. ">
<polygon fill="white" stroke="black" points="684.513,-112.5 684.513,-131.5 761.513,-131.5 761.513,-112.5 684.513,-112.5"/>
<text text-anchor="middle" x="723.013" y="-119.5" font-family="Helvetica,sans-Serif" font-size="10.00">IPlugLogger.h</text>
</a>
</g>
</g>
<!-- Node10&#45;&gt;Node12 -->
<g id="edge12" class="edge"><title>Node10&#45;&gt;Node12</title>
<path fill="none" stroke="midnightblue" d="M579.108,-168.444C608.001,-159.32 653.937,-144.813 686.118,-134.651"/>
<polygon fill="midnightblue" stroke="midnightblue" points="687.562,-137.865 696.044,-131.516 685.454,-131.19 687.562,-137.865"/>
</g>
<!-- Node12&#45;&gt;Node6 -->
<g id="edge17" class="edge"><title>Node12&#45;&gt;Node6</title>
<path fill="none" stroke="midnightblue" d="M684.305,-112.708C649.479,-104.789 597.152,-91.7478 553.013,-76 510.737,-60.9169 463.71,-38.3595 435.517,-24.1739"/>
<polygon fill="midnightblue" stroke="midnightblue" points="436.871,-20.9358 426.369,-19.5314 433.703,-27.178 436.871,-20.9358"/>
</g>
<!-- Node12&#45;&gt;Node7 -->
<g id="edge16" class="edge"><title>Node12&#45;&gt;Node7</title>
<path fill="none" stroke="midnightblue" d="M761.763,-112.562C810.168,-102.023 892.167,-84.168 937.819,-74.2276"/>
<polygon fill="midnightblue" stroke="midnightblue" points="938.767,-77.6034 947.793,-72.0559 937.277,-70.7637 938.767,-77.6034"/>
</g>
<!-- Node12&#45;&gt;Node9 -->
<g id="edge21" class="edge"><title>Node12&#45;&gt;Node9</title>
<path fill="none" stroke="midnightblue" d="M684.278,-116.838C612.302,-109.072 453.063,-91.7285 319.013,-76 306.947,-74.5843 293.768,-72.978 281.969,-71.5181"/>
<polygon fill="midnightblue" stroke="midnightblue" points="282.374,-68.0416 272.019,-70.2814 281.511,-74.9881 282.374,-68.0416"/>
</g>
<!-- Node13 -->
<g id="node13" class="node"><title>Node13</title>
<polygon fill="white" stroke="#bfbfbf" points="792.513,-0.5 792.513,-19.5 835.513,-19.5 835.513,-0.5 792.513,-0.5"/>
<text text-anchor="middle" x="814.013" y="-7.5" font-family="Helvetica,sans-Serif" font-size="10.00">cstdio</text>
</g>
<!-- Node12&#45;&gt;Node13 -->
<g id="edge13" class="edge"><title>Node12&#45;&gt;Node13</title>
<path fill="none" stroke="midnightblue" d="M741.879,-112.433C756.801,-104.793 777.191,-92.2993 790.013,-76 800.693,-62.4221 806.944,-43.6229 810.373,-29.7333"/>
<polygon fill="midnightblue" stroke="midnightblue" points="813.819,-30.3587 812.549,-19.8403 806.982,-28.8548 813.819,-30.3587"/>
</g>
<!-- Node14 -->
<g id="node14" class="node"><title>Node14</title>
<polygon fill="white" stroke="#bfbfbf" points="589.013,-0.5 589.013,-19.5 635.013,-19.5 635.013,-0.5 589.013,-0.5"/>
<text text-anchor="middle" x="612.013" y="-7.5" font-family="Helvetica,sans-Serif" font-size="10.00">cctype</text>
</g>
<!-- Node12&#45;&gt;Node14 -->
<g id="edge14" class="edge"><title>Node12&#45;&gt;Node14</title>
<path fill="none" stroke="midnightblue" d="M733.111,-112.498C747.221,-99.5819 769.656,-74.5579 756.013,-56 754.306,-53.6788 686.892,-33.2821 644.919,-20.7592"/>
<polygon fill="midnightblue" stroke="midnightblue" points="645.69,-17.3369 635.107,-17.8367 643.691,-24.0457 645.69,-17.3369"/>
</g>
<!-- Node15 -->
<g id="node15" class="node"><title>Node15</title>
<polygon fill="white" stroke="#bfbfbf" points="698.513,-56.5 698.513,-75.5 747.513,-75.5 747.513,-56.5 698.513,-56.5"/>
<text text-anchor="middle" x="723.013" y="-63.5" font-family="Helvetica,sans-Serif" font-size="10.00">cstdarg</text>
</g>
<!-- Node12&#45;&gt;Node15 -->
<g id="edge15" class="edge"><title>Node12&#45;&gt;Node15</title>
<path fill="none" stroke="midnightblue" d="M723.013,-112.083C723.013,-105.006 723.013,-94.8611 723.013,-85.9865"/>
<polygon fill="midnightblue" stroke="midnightblue" points="726.513,-85.751 723.013,-75.7511 719.513,-85.7511 726.513,-85.751"/>
</g>
<!-- Node16 -->
<g id="node16" class="node"><title>Node16</title>
<polygon fill="white" stroke="#bfbfbf" points="1050.51,-56.5 1050.51,-75.5 1091.51,-75.5 1091.51,-56.5 1050.51,-56.5"/>
<text text-anchor="middle" x="1071.01" y="-63.5" font-family="Helvetica,sans-Serif" font-size="10.00">ctime</text>
</g>
<!-- Node12&#45;&gt;Node16 -->
<g id="edge18" class="edge"><title>Node12&#45;&gt;Node16</title>
<path fill="none" stroke="midnightblue" d="M761.764,-113.609C764.89,-113.051 768.003,-112.508 771.013,-112 869.116,-95.4507 985.791,-78.822 1040.21,-71.2425"/>
<polygon fill="midnightblue" stroke="midnightblue" points="1040.82,-74.692 1050.24,-69.85 1039.85,-67.7585 1040.82,-74.692"/>
</g>
<!-- Node17 -->
<g id="node17" class="node"><title>Node17</title>
<polygon fill="white" stroke="#bfbfbf" points="842.513,-56.5 842.513,-75.5 891.513,-75.5 891.513,-56.5 842.513,-56.5"/>
<text text-anchor="middle" x="867.013" y="-63.5" font-family="Helvetica,sans-Serif" font-size="10.00">cassert</text>
</g>
<!-- Node12&#45;&gt;Node17 -->
<g id="edge19" class="edge"><title>Node12&#45;&gt;Node17</title>
<path fill="none" stroke="midnightblue" d="M745.83,-112.444C769.844,-103.438 807.842,-89.1891 834.882,-79.049"/>
<polygon fill="midnightblue" stroke="midnightblue" points="836.168,-82.3049 844.302,-75.5164 833.71,-75.7506 836.168,-82.3049"/>
</g>
<!-- Node18 -->
<g id="node18" class="node"><title>Node18</title>
<polygon fill="white" stroke="#bfbfbf" points="328.013,-56.5 328.013,-75.5 392.013,-75.5 392.013,-56.5 328.013,-56.5"/>
<text text-anchor="middle" x="360.013" y="-63.5" font-family="Helvetica,sans-Serif" font-size="10.00">wdlstring.h</text>
</g>
<!-- Node12&#45;&gt;Node18 -->
<g id="edge20" class="edge"><title>Node12&#45;&gt;Node18</title>
<path fill="none" stroke="midnightblue" d="M684.509,-115.272C615.9,-105.066 473.053,-83.8158 402.009,-73.2474"/>
<polygon fill="midnightblue" stroke="midnightblue" points="402.472,-69.7778 392.066,-71.7682 401.442,-76.7016 402.472,-69.7778"/>
</g>
<!-- Node12&#45;&gt;Node19 -->
<g id="edge22" class="edge"><title>Node12&#45;&gt;Node19</title>
<path fill="none" stroke="midnightblue" d="M713.993,-112.34C705.94,-103.932 694.715,-90.3633 690.013,-76 685.028,-60.7746 688.236,-42.6626 692.139,-29.4297"/>
<polygon fill="midnightblue" stroke="midnightblue" points="695.563,-30.2258 695.417,-19.632 688.925,-28.0048 695.563,-30.2258"/>
</g>
<!-- Node12&#45;&gt;Node20 -->
<g id="edge23" class="edge"><title>Node12&#45;&gt;Node20</title>
<path fill="none" stroke="midnightblue" d="M703.84,-112.444C684.104,-103.636 653.128,-89.8116 630.519,-79.722"/>
<polygon fill="midnightblue" stroke="midnightblue" points="631.654,-76.3957 621.096,-75.5164 628.801,-82.788 631.654,-76.3957"/>
</g>
<!-- Node20&#45;&gt;Node6 -->
<g id="edge28" class="edge"><title>Node20&#45;&gt;Node6</title>
<path fill="none" stroke="midnightblue" d="M571.59,-56.4435C536.558,-46.591 479.211,-30.4621 443.095,-20.3044"/>
<polygon fill="midnightblue" stroke="midnightblue" points="443.636,-16.8209 433.062,-17.4826 441.741,-23.5594 443.636,-16.8209"/>
</g>
<!-- Node20&#45;&gt;Node10 -->
<g id="edge31" class="edge"><title>Node20&#45;&gt;Node10</title>
<path fill="none" stroke="midnightblue" d="M598.108,-75.5914C589.982,-93.4683 571.105,-134.997 560.195,-158.998"/>
<polygon fill="midnightblue" stroke="midnightblue" points="556.888,-157.816 555.936,-168.368 563.26,-160.713 556.888,-157.816"/>
</g>
<!-- Node20&#45;&gt;Node11 -->
<g id="edge27" class="edge"><title>Node20&#45;&gt;Node11</title>
<path fill="none" stroke="midnightblue" d="M593.096,-56.083C585.232,-48.2195 573.582,-36.5688 564.094,-27.0813"/>
<polygon fill="midnightblue" stroke="midnightblue" points="566.31,-24.3473 556.764,-19.7511 561.36,-29.2971 566.31,-24.3473"/>
</g>
<!-- Node20&#45;&gt;Node13 -->
<g id="edge26" class="edge"><title>Node20&#45;&gt;Node13</title>
<path fill="none" stroke="midnightblue" d="M635.605,-56.4435C675.903,-46.1788 742.947,-29.1016 782.363,-19.0618"/>
<polygon fill="midnightblue" stroke="midnightblue" points="783.402,-22.4089 792.229,-16.5488 781.674,-15.6255 783.402,-22.4089"/>
</g>
<!-- Node20&#45;&gt;Node14 -->
<g id="edge29" class="edge"><title>Node20&#45;&gt;Node14</title>
<path fill="none" stroke="midnightblue" d="M603.664,-56.083C604.989,-48.9272 606.895,-38.6353 608.551,-29.6911"/>
<polygon fill="midnightblue" stroke="midnightblue" points="612.013,-30.2212 610.392,-19.7511 605.13,-28.9466 612.013,-30.2212"/>
</g>
<!-- Node20&#45;&gt;Node19 -->
<g id="edge30" class="edge"><title>Node20&#45;&gt;Node19</title>
<path fill="none" stroke="midnightblue" d="M617.597,-56.324C633.012,-47.7428 656.825,-34.486 674.722,-24.5224"/>
<polygon fill="midnightblue" stroke="midnightblue" points="676.432,-27.5767 683.467,-19.6545 673.027,-21.4606 676.432,-27.5767"/>
</g>
<!-- Node21 -->
<g id="node21" class="node"><title>Node21</title>
<polygon fill="white" stroke="#bfbfbf" points="451.013,-0.5 451.013,-19.5 507.013,-19.5 507.013,-0.5 451.013,-0.5"/>
<text text-anchor="middle" x="479.013" y="-7.5" font-family="Helvetica,sans-Serif" font-size="10.00">algorithm</text>
</g>
<!-- Node20&#45;&gt;Node21 -->
<g id="edge24" class="edge"><title>Node20&#45;&gt;Node21</title>
<path fill="none" stroke="midnightblue" d="M582.523,-56.4435C562.37,-47.5961 530.69,-33.6875 507.682,-23.5865"/>
<polygon fill="midnightblue" stroke="midnightblue" points="508.975,-20.3316 498.411,-19.5164 506.161,-26.7411 508.975,-20.3316"/>
</g>
<!-- Node22 -->
<g id="node22" class="node"><title>Node22</title>
<polygon fill="white" stroke="#bfbfbf" points="1124.01,-0.5 1124.01,-19.5 1168.01,-19.5 1168.01,-0.5 1124.01,-0.5"/>
<text text-anchor="middle" x="1146.01" y="-7.5" font-family="Helvetica,sans-Serif" font-size="10.00">cmath</text>
</g>
<!-- Node20&#45;&gt;Node22 -->
<g id="edge25" class="edge"><title>Node20&#45;&gt;Node22</title>
<path fill="none" stroke="midnightblue" d="M642.314,-60.8479C657.29,-59.3129 674.427,-57.5661 690.013,-56 848.819,-40.0434 1038.79,-21.458 1113.53,-14.1651"/>
<polygon fill="midnightblue" stroke="midnightblue" points="1114.1,-17.6271 1123.71,-13.1727 1113.42,-10.6601 1114.1,-17.6271"/>
</g>
<!-- Node23&#45;&gt;Node8 -->
<g id="edge36" class="edge"><title>Node23&#45;&gt;Node8</title>
<path fill="none" stroke="midnightblue" d="M530.397,-224.444C570.94,-214.354 637.93,-197.684 678.52,-187.583"/>
<polygon fill="midnightblue" stroke="midnightblue" points="679.38,-190.976 688.239,-185.165 677.69,-184.183 679.38,-190.976"/>
</g>
<!-- Node23&#45;&gt;Node10 -->
<g id="edge38" class="edge"><title>Node23&#45;&gt;Node10</title>
<path fill="none" stroke="midnightblue" d="M505.01,-224.324C513.207,-216.42 525.518,-204.548 535.485,-194.938"/>
<polygon fill="midnightblue" stroke="midnightblue" points="538.083,-197.295 542.852,-187.834 533.224,-192.256 538.083,-197.295"/>
</g>
<!-- Node23&#45;&gt;Node18 -->
<g id="edge35" class="edge"><title>Node23&#45;&gt;Node18</title>
<path fill="none" stroke="midnightblue" d="M487.723,-224.372C471.435,-207.275 434.374,-167.661 406.013,-132 393.549,-116.328 380.463,-97.582 371.449,-84.2578"/>
<polygon fill="midnightblue" stroke="midnightblue" points="374.146,-81.9951 365.673,-75.6353 368.331,-85.8912 374.146,-81.9951"/>
</g>
<!-- Node23&#45;&gt;Node19 -->
<g id="edge37" class="edge"><title>Node23&#45;&gt;Node19</title>
<path fill="none" stroke="midnightblue" d="M495.907,-224.346C496.058,-195.464 500.719,-101.639 553.013,-56 567.534,-43.3263 612.624,-30.5391 648.893,-21.852"/>
<polygon fill="midnightblue" stroke="midnightblue" points="649.92,-25.2061 658.856,-19.5141 648.321,-18.3913 649.92,-25.2061"/>
</g>
<!-- Node23&#45;&gt;Node21 -->
<g id="edge34" class="edge"><title>Node23&#45;&gt;Node21</title>
<path fill="none" stroke="midnightblue" d="M478.561,-224.486C440.422,-204.734 350.54,-151.639 319.013,-76 315.593,-67.7953 313.645,-63.0854 319.013,-56 322.789,-51.015 394.846,-32.14 440.959,-20.4769"/>
<polygon fill="midnightblue" stroke="midnightblue" points="442.094,-23.8005 450.936,-17.9635 440.384,-17.0126 442.094,-23.8005"/>
</g>
<!-- Node24 -->
<g id="node24" class="node"><title>Node24</title>
<g id="a_node24"><a xlink:href="_i_plug_midi_8h_source.html" target="_top" xlink:title="IPlugMidi.h">
<polygon fill="white" stroke="black" points="779.513,-112.5 779.513,-131.5 844.513,-131.5 844.513,-112.5 779.513,-112.5"/>
<text text-anchor="middle" x="812.013" y="-119.5" font-family="Helvetica,sans-Serif" font-size="10.00">IPlugMidi.h</text>
</a>
</g>
</g>
<!-- Node23&#45;&gt;Node24 -->
<g id="edge39" class="edge"><title>Node23&#45;&gt;Node24</title>
<path fill="none" stroke="midnightblue" d="M516.797,-224.358C538.217,-215.41 572.545,-200.95 602.013,-188 621.679,-179.358 625.802,-175.278 646.013,-168 687.13,-153.192 735.491,-140.608 769.374,-132.544"/>
<polygon fill="midnightblue" stroke="midnightblue" points="770.465,-135.883 779.4,-130.189 768.865,-129.068 770.465,-135.883"/>
</g>
<!-- Node24&#45;&gt;Node7 -->
<g id="edge41" class="edge"><title>Node24&#45;&gt;Node7</title>
<path fill="none" stroke="midnightblue" d="M837.207,-112.444C864.585,-103.145 908.422,-88.2572 938.407,-78.0735"/>
<polygon fill="midnightblue" stroke="midnightblue" points="939.658,-81.3451 948.002,-74.8151 937.407,-74.7169 939.658,-81.3451"/>
</g>
<!-- Node24&#45;&gt;Node17 -->
<g id="edge40" class="edge"><title>Node24&#45;&gt;Node17</title>
<path fill="none" stroke="midnightblue" d="M821.095,-112.083C829.184,-104.141 841.208,-92.3354 850.923,-82.7973"/>
<polygon fill="midnightblue" stroke="midnightblue" points="853.416,-85.2545 858.1,-75.7511 848.512,-80.2595 853.416,-85.2545"/>
</g>
<!-- Node24&#45;&gt;Node19 -->
<g id="edge42" class="edge"><title>Node24&#45;&gt;Node19</title>
<path fill="none" stroke="midnightblue" d="M841.967,-112.455C874.768,-101.597 920.197,-81.2028 900.013,-56 890.885,-44.6027 811.583,-29.4305 755.368,-19.94"/>
<polygon fill="midnightblue" stroke="midnightblue" points="755.602,-16.4307 745.162,-18.2362 754.449,-23.3352 755.602,-16.4307"/>
</g>
<!-- Node24&#45;&gt;Node20 -->
<g id="edge43" class="edge"><title>Node24&#45;&gt;Node20</title>
<path fill="none" stroke="midnightblue" d="M779.2,-112.562C743.043,-103.265 684.751,-88.2757 644.976,-78.0478"/>
<polygon fill="midnightblue" stroke="midnightblue" points="645.844,-74.6572 635.288,-75.5565 644.101,-81.4367 645.844,-74.6572"/>
</g>
<!-- Node25&#45;&gt;Node6 -->
<g id="edge46" class="edge"><title>Node25&#45;&gt;Node6</title>
<path fill="none" stroke="midnightblue" d="M196.698,-112.472C159.966,-101.964 110.698,-82.2325 133.013,-56 163.888,-19.7043 309.307,-12.6025 376.196,-11.2717"/>
<polygon fill="midnightblue" stroke="midnightblue" points="376.664,-14.7645 386.604,-11.099 376.548,-7.76546 376.664,-14.7645"/>
</g>
<!-- Node25&#45;&gt;Node18 -->
<g id="edge48" class="edge"><title>Node25&#45;&gt;Node18</title>
<path fill="none" stroke="midnightblue" d="M252.295,-112.444C273.36,-103.557 306.53,-89.5632 330.498,-79.4514"/>
<polygon fill="midnightblue" stroke="midnightblue" points="331.972,-82.6283 339.826,-75.5164 329.251,-76.1787 331.972,-82.6283"/>
</g>
<!-- Node25&#45;&gt;Node20 -->
<g id="edge49" class="edge"><title>Node25&#45;&gt;Node20</title>
<path fill="none" stroke="midnightblue" d="M278.125,-114.27C347.827,-104.097 479.515,-84.878 551.647,-74.3507"/>
<polygon fill="midnightblue" stroke="midnightblue" points="552.453,-77.7703 561.842,-72.8627 551.442,-70.8436 552.453,-77.7703"/>
</g>
<!-- Node26 -->
<g id="node26" class="node"><title>Node26</title>
<polygon fill="white" stroke="#bfbfbf" points="142.513,-56.5 142.513,-75.5 201.513,-75.5 201.513,-56.5 142.513,-56.5"/>
<text text-anchor="middle" x="172.013" y="-63.5" font-family="Helvetica,sans-Serif" font-size="10.00">functional</text>
</g>
<!-- Node25&#45;&gt;Node26 -->
<g id="edge47" class="edge"><title>Node25&#45;&gt;Node26</title>
<path fill="none" stroke="midnightblue" d="M222.373,-112.324C213.503,-104.341 200.138,-92.3128 189.405,-82.6529"/>
<polygon fill="midnightblue" stroke="midnightblue" points="191.603,-79.922 181.828,-75.8339 186.92,-85.1251 191.603,-79.922"/>
</g>
<!-- Node28&#45;&gt;Node6 -->
<g id="edge52" class="edge"><title>Node28&#45;&gt;Node6</title>
<path fill="none" stroke="midnightblue" d="M962.224,-280.401C985.769,-246.7 1065.12,-122.219 1003.01,-56 961.952,-12.2204 538.631,-29.0455 443.259,-19.4657"/>
<polygon fill="midnightblue" stroke="midnightblue" points="443.672,-15.9899 433.302,-18.1606 442.762,-22.9306 443.672,-15.9899"/>
</g>
<!-- Node28&#45;&gt;Node7 -->
<g id="edge53" class="edge"><title>Node28&#45;&gt;Node7</title>
<path fill="none" stroke="midnightblue" d="M956.601,-280.297C958.808,-247.633 966.63,-131.866 969.732,-85.9573"/>
<polygon fill="midnightblue" stroke="midnightblue" points="973.23,-86.097 970.412,-75.8837 966.246,-85.625 973.23,-86.097"/>
</g>
<!-- Node28&#45;&gt;Node8 -->
<g id="edge54" class="edge"><title>Node28&#45;&gt;Node8</title>
<path fill="none" stroke="midnightblue" d="M936.945,-280.368C894.359,-261.091 791.333,-214.454 741.266,-191.789"/>
<polygon fill="midnightblue" stroke="midnightblue" points="742.545,-188.527 731.992,-187.591 739.659,-194.904 742.545,-188.527"/>
</g>
<!-- Node28&#45;&gt;Node10 -->
<g id="edge55" class="edge"><title>Node28&#45;&gt;Node10</title>
<path fill="none" stroke="midnightblue" d="M924.648,-280.46C852.376,-260.782 674.14,-212.252 593.194,-190.213"/>
<polygon fill="midnightblue" stroke="midnightblue" points="593.926,-186.785 583.358,-187.535 592.087,-193.539 593.926,-186.785"/>
</g>
<!-- Node28&#45;&gt;Node19 -->
<g id="edge56" class="edge"><title>Node28&#45;&gt;Node19</title>
<path fill="none" stroke="midnightblue" d="M985.265,-280.364C1004.7,-273.323 1029.56,-261.623 1046.01,-244 1106.85,-178.822 1175.58,-122.341 1116.01,-56 1115.26,-55.1667 869.093,-29.0063 755.384,-16.9627"/>
<polygon fill="midnightblue" stroke="midnightblue" points="755.446,-13.4498 745.133,-15.8772 754.709,-20.4109 755.446,-13.4498"/>
</g>
<!-- Node28&#45;&gt;Node20 -->
<g id="edge58" class="edge"><title>Node28&#45;&gt;Node20</title>
<path fill="none" stroke="midnightblue" d="M943.634,-280.373C913.364,-259.49 832.827,-205.205 761.013,-168 724.585,-149.128 710.758,-153.816 676.013,-132 653.738,-118.014 631.516,-97.3696 617.325,-83.1168"/>
<polygon fill="midnightblue" stroke="midnightblue" points="619.445,-80.2778 609.957,-75.5623 614.434,-85.1651 619.445,-80.2778"/>
</g>
<!-- Node28&#45;&gt;Node23 -->
<g id="edge57" class="edge"><title>Node28&#45;&gt;Node23</title>
<path fill="none" stroke="midnightblue" d="M909.8,-283.575C822.796,-273.361 635.385,-251.361 545.747,-240.838"/>
<polygon fill="midnightblue" stroke="midnightblue" points="545.912,-237.334 535.572,-239.644 545.095,-244.286 545.912,-237.334"/>
</g>
<!-- Node29 -->
<g id="node29" class="node"><title>Node29</title>
<g id="a_node29"><a xlink:href="_n_chan_delay_8h_source.html" target="_top" xlink:title="NChanDelay.h">
<polygon fill="white" stroke="black" points="1111.51,-224.5 1111.51,-243.5 1192.51,-243.5 1192.51,-224.5 1111.51,-224.5"/>
<text text-anchor="middle" x="1152.01" y="-231.5" font-family="Helvetica,sans-Serif" font-size="10.00">NChanDelay.h</text>
</a>
</g>
</g>
<!-- Node28&#45;&gt;Node29 -->
<g id="edge59" class="edge"><title>Node28&#45;&gt;Node29</title>
<path fill="none" stroke="midnightblue" d="M987.069,-280.444C1020.62,-271.201 1074.21,-256.436 1111.15,-246.257"/>
<polygon fill="midnightblue" stroke="midnightblue" points="1112.39,-249.547 1121.1,-243.516 1110.53,-242.798 1112.39,-249.547"/>
</g>
<!-- Node30 -->
<g id="node30" class="node"><title>Node30</title>
<g id="a_node30"><a xlink:href="_i_plug_processor_8cpp_source.html" target="_top" xlink:title="IPlugProcessor.cpp">
<polygon fill="white" stroke="black" points="1179.01,-112.5 1179.01,-131.5 1281.01,-131.5 1281.01,-112.5 1179.01,-112.5"/>
<text text-anchor="middle" x="1230.01" y="-119.5" font-family="Helvetica,sans-Serif" font-size="10.00">IPlugProcessor.cpp</text>
</a>
</g>
</g>
<!-- Node28&#45;&gt;Node30 -->
<g id="edge60" class="edge"><title>Node28&#45;&gt;Node30</title>
<path fill="none" stroke="midnightblue" d="M1002.05,-285.971C1062.82,-281.204 1164.9,-269.696 1192.01,-244 1220.15,-217.334 1223.09,-168.599 1225.43,-141.836"/>
<polygon fill="midnightblue" stroke="midnightblue" points="1228.95,-141.852 1226.51,-131.541 1221.99,-141.121 1228.95,-141.852"/>
</g>
<!-- Node30&#45;&gt;Node13 -->
<g id="edge62" class="edge"><title>Node30&#45;&gt;Node13</title>
<path fill="none" stroke="midnightblue" d="M1225.24,-112.477C1216.67,-98.079 1197.18,-69.2218 1172.01,-56 1115.6,-26.3712 922.778,-15.4153 845.964,-12.1652"/>
<polygon fill="midnightblue" stroke="midnightblue" points="846.056,-8.66609 835.922,-11.7566 845.771,-15.6603 846.056,-8.66609"/>
</g>
<!-- Node30&#45;&gt;Node16 -->
<g id="edge63" class="edge"><title>Node30&#45;&gt;Node16</title>
<path fill="none" stroke="midnightblue" d="M1204.82,-112.444C1176.65,-102.878 1131.07,-87.3969 1101.07,-77.2075"/>
<polygon fill="midnightblue" stroke="midnightblue" points="1102.13,-73.8728 1091.54,-73.971 1099.88,-80.501 1102.13,-73.8728"/>
</g>
<!-- Node30&#45;&gt;Node17 -->
<g id="edge64" class="edge"><title>Node30&#45;&gt;Node17</title>
<path fill="none" stroke="midnightblue" d="M1178.77,-113.378C1103.8,-102.224 966.142,-81.7465 901.834,-72.18"/>
<polygon fill="midnightblue" stroke="midnightblue" points="902.205,-68.6968 891.799,-70.6872 901.175,-75.6206 902.205,-68.6968"/>
</g>
<!-- Node30&#45;&gt;Node22 -->
<g id="edge61" class="edge"><title>Node30&#45;&gt;Node22</title>
<path fill="none" stroke="midnightblue" d="M1281.09,-117.958C1341.71,-112.452 1430.51,-97.256 1396.01,-56 1368.66,-23.2852 1239.97,-14.3176 1178.65,-11.8879"/>
<polygon fill="midnightblue" stroke="midnightblue" points="1178.49,-8.37999 1168.37,-11.5173 1178.24,-15.3754 1178.49,-8.37999"/>
</g>
<!-- Node30&#45;&gt;Node28 -->
<g id="edge67" class="edge"><title>Node30&#45;&gt;Node28</title>
<path fill="none" stroke="midnightblue" d="M1235.13,-131.541C1241.41,-153.692 1242.31,-213.388 1210.01,-244 1182.6,-269.98 1078.55,-281.456 1012.34,-286.126"/>
<polygon fill="midnightblue" stroke="midnightblue" points="1011.8,-282.655 1002.06,-286.818 1012.27,-289.639 1011.8,-282.655"/>
</g>
<!-- Node31 -->
<g id="node31" class="node"><title>Node31</title>
<polygon fill="white" stroke="#bfbfbf" points="1224.01,-56.5 1224.01,-75.5 1292.01,-75.5 1292.01,-56.5 1224.01,-56.5"/>
<text text-anchor="middle" x="1258.01" y="-63.5" font-family="Helvetica,sans-Serif" font-size="10.00">wdlendian.h</text>
</g>
<!-- Node30&#45;&gt;Node31 -->
<g id="edge65" class="edge"><title>Node30&#45;&gt;Node31</title>
<path fill="none" stroke="midnightblue" d="M1234.64,-112.083C1238.47,-104.691 1244.04,-93.9533 1248.78,-84.8111"/>
<polygon fill="midnightblue" stroke="midnightblue" points="1251.98,-86.2398 1253.48,-75.7511 1245.76,-83.0175 1251.98,-86.2398"/>
</g>
<!-- Node32 -->
<g id="node32" class="node"><title>Node32</title>
<polygon fill="white" stroke="#bfbfbf" points="1310.51,-56.5 1310.51,-75.5 1387.51,-75.5 1387.51,-56.5 1310.51,-56.5"/>
<text text-anchor="middle" x="1349.01" y="-63.5" font-family="Helvetica,sans-Serif" font-size="10.00">wdl_base64.h</text>
</g>
<!-- Node30&#45;&gt;Node32 -->
<g id="edge66" class="edge"><title>Node30&#45;&gt;Node32</title>
<path fill="none" stroke="midnightblue" d="M1248.87,-112.444C1268.28,-103.636 1298.74,-89.8116 1320.98,-79.722"/>
<polygon fill="midnightblue" stroke="midnightblue" points="1322.59,-82.836 1330.25,-75.5164 1319.69,-76.4615 1322.59,-82.836"/>
</g>
<!-- Node33&#45;&gt;Node6 -->
<g id="edge69" class="edge"><title>Node33&#45;&gt;Node6</title>
<path fill="none" stroke="midnightblue" d="M265.341,-287.464C196.309,-284.066 60.1679,-273.699 24.0127,-244 0.216343,-224.453 0.0127076,-209.795 0.0127076,-179 0.0127076,-179 0.0127076,-179 0.0127076,-121 0.0127076,-90.2048 -0.190614,-75.0406 24.0127,-56 78.3679,-13.2391 293.22,-10.1069 376.646,-10.5554"/>
<polygon fill="midnightblue" stroke="midnightblue" points="376.808,-14.0567 386.834,-10.632 376.861,-7.05685 376.808,-14.0567"/>
</g>
<!-- Node33&#45;&gt;Node7 -->
<g id="edge70" class="edge"><title>Node33&#45;&gt;Node7</title>
<path fill="none" stroke="midnightblue" d="M346.647,-285.343C394.887,-280.094 477.211,-268.251 544.013,-244 609.099,-220.372 615.146,-192.222 680.013,-168 753.587,-140.527 779.747,-160.286 853.013,-132 869.368,-125.686 871.727,-120.586 887.013,-112 906.426,-101.096 928.644,-89.2195 945.352,-80.4068"/>
<polygon fill="midnightblue" stroke="midnightblue" points="947.267,-83.3542 954.489,-75.6026 944.009,-77.1583 947.267,-83.3542"/>
</g>
<!-- Node33&#45;&gt;Node8 -->
<g id="edge71" class="edge"><title>Node33&#45;&gt;Node8</title>
<path fill="none" stroke="midnightblue" d="M346.658,-285.91C421.482,-279.798 577.95,-264.922 628.013,-244 655.162,-232.654 681.254,-210.466 697.205,-195.195"/>
<polygon fill="midnightblue" stroke="midnightblue" points="699.907,-197.445 704.574,-187.933 694.994,-192.459 699.907,-197.445"/>
</g>
<!-- Node33&#45;&gt;Node9 -->
<g id="edge72" class="edge"><title>Node33&#45;&gt;Node9</title>
<path fill="none" stroke="midnightblue" d="M289.528,-280.366C275.385,-272.357 255.114,-259.375 241.013,-244 202.262,-201.748 191.728,-187.411 177.013,-132 174.731,-123.409 172.779,-119.816 177.013,-112 184.761,-97.6958 199.247,-87.2188 212.953,-79.992"/>
<polygon fill="midnightblue" stroke="midnightblue" points="214.75,-83.0103 222.224,-75.501 211.699,-76.7104 214.75,-83.0103"/>
</g>
<!-- Node33&#45;&gt;Node10 -->
<g id="edge73" class="edge"><title>Node33&#45;&gt;Node10</title>
<path fill="none" stroke="midnightblue" d="M324.339,-280.463C351.338,-267.919 403.428,-243.847 448.013,-224 473.148,-212.811 501.858,-200.417 522.736,-191.474"/>
<polygon fill="midnightblue" stroke="midnightblue" points="524.203,-194.654 532.021,-187.503 521.45,-188.218 524.203,-194.654"/>
</g>
<!-- Node33&#45;&gt;Node19 -->
<g id="edge74" class="edge"><title>Node33&#45;&gt;Node19</title>
<path fill="none" stroke="midnightblue" d="M265.423,-287.414C199.394,-282.422 76.0127,-261.992 76.0127,-179 76.0127,-179 76.0127,-179 76.0127,-121 76.0127,-82.5768 98.5938,-73.0788 133.013,-56 232.297,-6.73463 515.472,-31.7938 642.844,-19.9191"/>
<polygon fill="midnightblue" stroke="midnightblue" points="643.262,-23.3946 652.842,-18.8709 642.532,-16.4327 643.262,-23.3946"/>
</g>
<!-- Node33&#45;&gt;Node20 -->
<g id="edge76" class="edge"><title>Node33&#45;&gt;Node20</title>
<path fill="none" stroke="midnightblue" d="M317.616,-280.297C362.563,-246.588 525.514,-124.374 582.318,-81.7708"/>
<polygon fill="midnightblue" stroke="midnightblue" points="584.589,-84.4425 590.489,-75.6425 580.389,-78.8425 584.589,-84.4425"/>
</g>
<!-- Node33&#45;&gt;Node23 -->
<g id="edge75" class="edge"><title>Node33&#45;&gt;Node23</title>
<path fill="none" stroke="midnightblue" d="M336.119,-280.444C368.638,-271.201 420.591,-256.436 456.404,-246.257"/>
<polygon fill="midnightblue" stroke="midnightblue" points="457.385,-249.617 466.047,-243.516 455.472,-242.884 457.385,-249.617"/>
</g>
<!-- Node33&#45;&gt;Node25 -->
<g id="edge77" class="edge"><title>Node33&#45;&gt;Node25</title>
<path fill="none" stroke="midnightblue" d="M291.216,-280.243C279.217,-272.329 262.89,-259.553 254.013,-244 235.465,-211.503 232.001,-166.796 231.662,-141.824"/>
<polygon fill="midnightblue" stroke="midnightblue" points="235.163,-141.58 231.688,-131.571 228.163,-141.562 235.163,-141.58"/>
</g>
</g>
</svg>
