<?xml version="1.0" encoding="UTF-8" standalone="no"?>
<!DOCTYPE svg PUBLIC "-//W3C//DTD SVG 1.1//EN"
 "http://www.w3.org/Graphics/SVG/1.1/DTD/svg11.dtd">
<!-- Generated by graphviz version 2.36.0 (20140111.2315)
 -->
<!-- Title: IPlugVST3.h Pages: 1 -->
<!--zoomable 488 -->
<svg id="main" version="1.1" xmlns="http://www.w3.org/2000/svg" xmlns:xlink="http://www.w3.org/1999/xlink" xml:space="preserve" onload="init(evt)">
<style type="text/css"><![CDATA[
.edge:hover path { stroke: red; }
.edge:hover polygon { stroke: red; fill: red; }
]]></style>
<script type="text/javascript"><![CDATA[
var edges = document.getElementsByTagName('g');
if (edges && edges.length) {
  for (var i=0;i<edges.length;i++) {
    if (edges[i].id.substr(0,4)=='edge') {
      edges[i].setAttribute('class','edge');
    }
  }
}
]]></script>
        <defs>
                <circle id="rim" cx="0" cy="0" r="7"/>
                <circle id="rim2" cx="0" cy="0" r="3.5"/>
                <g id="zoomPlus">
                        <use xlink:href="#rim" fill="#404040">
                                <set attributeName="fill" to="#808080" begin="zoomplus.mouseover" end="zoomplus.mouseout"/>
                        </use>
                        <path d="M-4,0h8M0,-4v8" fill="none" stroke="white" stroke-width="1.5" pointer-events="none"/>
                </g>
                <g id="zoomMin">
                        <use xlink:href="#rim" fill="#404040">
                                <set attributeName="fill" to="#808080" begin="zoomminus.mouseover" end="zoomminus.mouseout"/>
                        </use>
                        <path d="M-4,0h8" fill="none" stroke="white" stroke-width="1.5" pointer-events="none"/>
                </g>
                <g id="dirArrow">
                        <path fill="none" stroke="white" stroke-width="1.5" d="M0,-3.0v7 M-2.5,-0.5L0,-3.0L2.5,-0.5"/>
                </g>
               <g id="resetDef">
                       <use xlink:href="#rim2" fill="#404040">
                               <set attributeName="fill" to="#808080" begin="reset.mouseover" end="reset.mouseout"/>
                       </use>
               </g>
        </defs>

<script type="text/javascript">
var viewWidth = 1525;
var viewHeight = 488;
var sectionId = 'dynsection-0';
</script>
<script xlink:href="svgpan.js"/>
<svg id="graph" class="graph">
<g id="viewport">
<title>IPlugVST3.h</title>
<polygon fill="white" stroke="none" points="-4,4 -4,-484 1521.21,-484 1521.21,4 -4,4"/>
<!-- Node1 -->
<g id="node1" class="node"><title>Node1</title>
<polygon fill="#bfbfbf" stroke="black" points="299,-460.5 299,-479.5 371,-479.5 371,-460.5 299,-460.5"/>
<text text-anchor="middle" x="335" y="-467.5" font-family="Helvetica,sans-Serif" font-size="10.00">IPlugVST3.h</text>
</g>
<!-- Node2 -->
<g id="node2" class="node"><title>Node2</title>
<polygon fill="white" stroke="#bfbfbf" points="0,-398.5 0,-417.5 44,-417.5 44,-398.5 0,-398.5"/>
<text text-anchor="middle" x="22" y="-405.5" font-family="Helvetica,sans-Serif" font-size="10.00">vector</text>
</g>
<!-- Node1&#45;&gt;Node2 -->
<g id="edge1" class="edge"><title>Node1&#45;&gt;Node2</title>
<path fill="none" stroke="midnightblue" d="M298.613,-466.603C244.131,-462.257 138.609,-450.9 53,-424 50.8682,-423.33 48.698,-422.536 46.5463,-421.669"/>
<polygon fill="midnightblue" stroke="midnightblue" points="47.9609,-418.467 37.4058,-417.551 45.0855,-424.849 47.9609,-418.467"/>
</g>
<!-- Node3 -->
<g id="node3" class="node"><title>Node3</title>
<polygon fill="white" stroke="#bfbfbf" points="62,-393 62,-423 202,-423 202,-393 62,-393"/>
<text text-anchor="start" x="70" y="-411" font-family="Helvetica,sans-Serif" font-size="10.00">public.sdk/source/vst</text>
<text text-anchor="middle" x="132" y="-400" font-family="Helvetica,sans-Serif" font-size="10.00">/vstsinglecomponenteffect.h</text>
</g>
<!-- Node1&#45;&gt;Node3 -->
<g id="edge2" class="edge"><title>Node1&#45;&gt;Node3</title>
<path fill="none" stroke="midnightblue" d="M305.915,-460.403C275.623,-451.45 227.375,-437.19 189.374,-425.958"/>
<polygon fill="midnightblue" stroke="midnightblue" points="190.034,-422.503 179.452,-423.025 188.05,-429.216 190.034,-422.503"/>
</g>
<!-- Node4 -->
<g id="node4" class="node"><title>Node4</title>
<polygon fill="white" stroke="#bfbfbf" points="220,-393 220,-423 330,-423 330,-393 220,-393"/>
<text text-anchor="start" x="228" y="-411" font-family="Helvetica,sans-Serif" font-size="10.00">pluginterfaces/vst</text>
<text text-anchor="middle" x="275" y="-400" font-family="Helvetica,sans-Serif" font-size="10.00">/ivstprocesscontext.h</text>
</g>
<!-- Node1&#45;&gt;Node4 -->
<g id="edge3" class="edge"><title>Node1&#45;&gt;Node4</title>
<path fill="none" stroke="midnightblue" d="M326.403,-460.403C318.581,-452.581 306.708,-440.708 296.342,-430.342"/>
<polygon fill="midnightblue" stroke="midnightblue" points="298.687,-427.737 289.141,-423.141 293.737,-432.687 298.687,-427.737"/>
</g>
<!-- Node5 -->
<g id="node5" class="node"><title>Node5</title>
<polygon fill="white" stroke="#bfbfbf" points="348,-393 348,-423 442,-423 442,-393 348,-393"/>
<text text-anchor="start" x="356" y="-411" font-family="Helvetica,sans-Serif" font-size="10.00">pluginterfaces/vst</text>
<text text-anchor="middle" x="395" y="-400" font-family="Helvetica,sans-Serif" font-size="10.00">/vsttypes.h</text>
</g>
<!-- Node1&#45;&gt;Node5 -->
<g id="edge4" class="edge"><title>Node1&#45;&gt;Node5</title>
<path fill="none" stroke="midnightblue" d="M343.597,-460.403C351.419,-452.581 363.292,-440.708 373.658,-430.342"/>
<polygon fill="midnightblue" stroke="midnightblue" points="376.263,-432.687 380.859,-423.141 371.313,-427.737 376.263,-432.687"/>
</g>
<!-- Node6 -->
<g id="node6" class="node"><title>Node6</title>
<polygon fill="white" stroke="#bfbfbf" points="460,-393 460,-423 560,-423 560,-393 460,-393"/>
<text text-anchor="start" x="468" y="-411" font-family="Helvetica,sans-Serif" font-size="10.00">pluginterfaces/vst</text>
<text text-anchor="middle" x="510" y="-400" font-family="Helvetica,sans-Serif" font-size="10.00">/ivstcontextmenu.h</text>
</g>
<!-- Node1&#45;&gt;Node6 -->
<g id="edge5" class="edge"><title>Node1&#45;&gt;Node6</title>
<path fill="none" stroke="midnightblue" d="M360.073,-460.403C385.854,-451.564 426.721,-437.553 459.281,-426.39"/>
<polygon fill="midnightblue" stroke="midnightblue" points="460.769,-429.579 469.093,-423.025 458.498,-422.958 460.769,-429.579"/>
</g>
<!-- Node7 -->
<g id="node7" class="node"><title>Node7</title>
<g id="a_node7"><a xlink:href="_i_plug_base__select_8h_source.html" target="_top" xlink:title="IPlugBase_select.h">
<polygon fill="white" stroke="black" points="578.5,-398.5 578.5,-417.5 679.5,-417.5 679.5,-398.5 578.5,-398.5"/>
<text text-anchor="middle" x="629" y="-405.5" font-family="Helvetica,sans-Serif" font-size="10.00">IPlugBase_select.h</text>
</a>
</g>
</g>
<!-- Node1&#45;&gt;Node7 -->
<g id="edge6" class="edge"><title>Node1&#45;&gt;Node7</title>
<path fill="none" stroke="midnightblue" d="M371.205,-462.675C417.298,-454.477 499.319,-439.398 569,-424 574.709,-422.738 580.704,-421.335 586.605,-419.907"/>
<polygon fill="midnightblue" stroke="midnightblue" points="587.506,-423.29 596.38,-417.501 585.833,-416.492 587.506,-423.29"/>
</g>
<!-- Node8 -->
<g id="node8" class="node"><title>Node8</title>
<g id="a_node8"><a xlink:href="_i_plug_base_graphics_8h.html" target="_top" xlink:title="An IPlugBase class for an IPlug plug&#45;in that uses IGraphics for it&#39;s UI. ">
<polygon fill="white" stroke="black" points="574.5,-336.5 574.5,-355.5 683.5,-355.5 683.5,-336.5 574.5,-336.5"/>
<text text-anchor="middle" x="629" y="-343.5" font-family="Helvetica,sans-Serif" font-size="10.00">IPlugBaseGraphics.h</text>
</a>
</g>
</g>
<!-- Node7&#45;&gt;Node8 -->
<g id="edge7" class="edge"><title>Node7&#45;&gt;Node8</title>
<path fill="none" stroke="midnightblue" d="M629,-398.403C629,-389.938 629,-376.728 629,-365.82"/>
<polygon fill="midnightblue" stroke="midnightblue" points="632.5,-365.581 629,-355.581 625.5,-365.581 632.5,-365.581"/>
</g>
<!-- Node32 -->
<g id="node32" class="node"><title>Node32</title>
<g id="a_node32"><a xlink:href="_i_plug_processor_8h.html" target="_top" xlink:title="The base class for IPlug Audio Processing. ">
<polygon fill="white" stroke="black" points="1023,-280.5 1023,-299.5 1115,-299.5 1115,-280.5 1023,-280.5"/>
<text text-anchor="middle" x="1069" y="-287.5" font-family="Helvetica,sans-Serif" font-size="10.00">IPlugProcessor.h</text>
</a>
</g>
</g>
<!-- Node7&#45;&gt;Node32 -->
<g id="edge55" class="edge"><title>Node7&#45;&gt;Node32</title>
<path fill="none" stroke="midnightblue" d="M661.354,-398.47C739.625,-377.835 939.185,-325.224 1026.74,-302.141"/>
<polygon fill="midnightblue" stroke="midnightblue" points="1027.82,-305.476 1036.6,-299.542 1026.04,-298.707 1027.82,-305.476"/>
</g>
<!-- Node37 -->
<g id="node37" class="node"><title>Node37</title>
<g id="a_node37"><a xlink:href="_i_plug_presets_8h.html" target="_top" xlink:title="IPlugPresets.h">
<polygon fill="white" stroke="black" points="378.5,-280.5 378.5,-299.5 459.5,-299.5 459.5,-280.5 378.5,-280.5"/>
<text text-anchor="middle" x="419" y="-287.5" font-family="Helvetica,sans-Serif" font-size="10.00">IPlugPresets.h</text>
</a>
</g>
</g>
<!-- Node7&#45;&gt;Node37 -->
<g id="edge72" class="edge"><title>Node7&#45;&gt;Node37</title>
<path fill="none" stroke="midnightblue" d="M613.558,-398.47C577.378,-378.485 486.895,-328.504 443.27,-304.407"/>
<polygon fill="midnightblue" stroke="midnightblue" points="444.91,-301.314 434.464,-299.542 441.525,-307.441 444.91,-301.314"/>
</g>
<!-- Node9 -->
<g id="node9" class="node"><title>Node9</title>
<g id="a_node9"><a xlink:href="_i_plug_base_8h.html" target="_top" xlink:title="The lowest level base class of an IPlug plug&#45;in. ">
<polygon fill="white" stroke="black" points="642,-280.5 642,-299.5 712,-299.5 712,-280.5 642,-280.5"/>
<text text-anchor="middle" x="677" y="-287.5" font-family="Helvetica,sans-Serif" font-size="10.00">IPlugBase.h</text>
</a>
</g>
</g>
<!-- Node8&#45;&gt;Node9 -->
<g id="edge8" class="edge"><title>Node8&#45;&gt;Node9</title>
<path fill="none" stroke="midnightblue" d="M636.926,-336.083C643.846,-328.298 654.065,-316.801 662.452,-307.367"/>
<polygon fill="midnightblue" stroke="midnightblue" points="665.194,-309.55 669.221,-299.751 659.962,-304.9 665.194,-309.55"/>
</g>
<!-- Node31 -->
<g id="node31" class="node"><title>Node31</title>
<g id="a_node31"><a xlink:href="_i_plug_delegate_8h_source.html" target="_top" xlink:title="IPlugDelegate.h">
<polygon fill="white" stroke="black" points="538,-280.5 538,-299.5 624,-299.5 624,-280.5 538,-280.5"/>
<text text-anchor="middle" x="581" y="-287.5" font-family="Helvetica,sans-Serif" font-size="10.00">IPlugDelegate.h</text>
</a>
</g>
</g>
<!-- Node8&#45;&gt;Node31 -->
<g id="edge54" class="edge"><title>Node8&#45;&gt;Node31</title>
<path fill="none" stroke="midnightblue" d="M621.074,-336.083C614.154,-328.298 603.935,-316.801 595.548,-307.367"/>
<polygon fill="midnightblue" stroke="midnightblue" points="598.038,-304.9 588.779,-299.751 592.806,-309.55 598.038,-304.9"/>
</g>
<!-- Node10 -->
<g id="node10" class="node"><title>Node10</title>
<polygon fill="white" stroke="#bfbfbf" points="500,-0.5 500,-19.5 546,-19.5 546,-0.5 500,-0.5"/>
<text text-anchor="middle" x="523" y="-7.5" font-family="Helvetica,sans-Serif" font-size="10.00">cstring</text>
</g>
<!-- Node9&#45;&gt;Node10 -->
<g id="edge9" class="edge"><title>Node9&#45;&gt;Node10</title>
<path fill="none" stroke="midnightblue" d="M641.945,-281.782C638.92,-281.174 635.907,-280.573 633,-280 525.626,-258.848 151,-288.437 151,-179 151,-179 151,-179 151,-121 151,-90.2048 150.917,-75.192 175,-56 223.119,-17.6546 411.97,-11.8051 489.502,-11.0436"/>
<polygon fill="midnightblue" stroke="midnightblue" points="489.704,-14.5422 499.677,-10.967 489.651,-7.54244 489.704,-14.5422"/>
</g>
<!-- Node11 -->
<g id="node11" class="node"><title>Node11</title>
<polygon fill="white" stroke="#bfbfbf" points="1061,-56.5 1061,-75.5 1107,-75.5 1107,-56.5 1061,-56.5"/>
<text text-anchor="middle" x="1084" y="-63.5" font-family="Helvetica,sans-Serif" font-size="10.00">cstdint</text>
</g>
<!-- Node9&#45;&gt;Node11 -->
<g id="edge10" class="edge"><title>Node9&#45;&gt;Node11</title>
<path fill="none" stroke="midnightblue" d="M712.273,-282.445C745.286,-275.523 795.461,-262.961 836,-244 915.952,-206.605 928.621,-183.92 1000,-132 1022.86,-115.374 1048.46,-95.3548 1065.32,-81.9663"/>
<polygon fill="midnightblue" stroke="midnightblue" points="1067.64,-84.5916 1073.28,-75.6226 1063.28,-79.117 1067.64,-84.5916"/>
</g>
<!-- Node12 -->
<g id="node12" class="node"><title>Node12</title>
<polygon fill="white" stroke="#bfbfbf" points="801.5,-168.5 801.5,-187.5 850.5,-187.5 850.5,-168.5 801.5,-168.5"/>
<text text-anchor="middle" x="826" y="-175.5" font-family="Helvetica,sans-Serif" font-size="10.00">ptrlist.h</text>
</g>
<!-- Node9&#45;&gt;Node12 -->
<g id="edge11" class="edge"><title>Node9&#45;&gt;Node12</title>
<path fill="none" stroke="midnightblue" d="M706.954,-280.459C728.585,-273.24 757.631,-261.284 779,-244 795.187,-230.907 808.497,-210.939 816.769,-196.591"/>
<polygon fill="midnightblue" stroke="midnightblue" points="819.903,-198.156 821.666,-187.709 813.773,-194.777 819.903,-198.156"/>
</g>
<!-- Node13 -->
<g id="node13" class="node"><title>Node13</title>
<polygon fill="white" stroke="#bfbfbf" points="333,-56.5 333,-75.5 385,-75.5 385,-56.5 333,-56.5"/>
<text text-anchor="middle" x="359" y="-63.5" font-family="Helvetica,sans-Serif" font-size="10.00">mutex.h</text>
</g>
<!-- Node9&#45;&gt;Node13 -->
<g id="edge12" class="edge"><title>Node9&#45;&gt;Node13</title>
<path fill="none" stroke="midnightblue" d="M646.589,-280.423C622.374,-272.851 588.157,-260.456 561,-244 482.329,-196.328 404.949,-117.016 373.59,-83.1403"/>
<polygon fill="midnightblue" stroke="midnightblue" points="375.973,-80.5606 366.636,-75.5537 370.813,-85.2905 375.973,-80.5606"/>
</g>
<!-- Node14 -->
<g id="node14" class="node"><title>Node14</title>
<g id="a_node14"><a xlink:href="_i_plug_platform_8h.html" target="_top" xlink:title="Include to get consistently named preprocessor macros for different platforms and logging functionali...">
<polygon fill="white" stroke="black" points="623,-168.5 623,-187.5 707,-187.5 707,-168.5 623,-168.5"/>
<text text-anchor="middle" x="665" y="-175.5" font-family="Helvetica,sans-Serif" font-size="10.00">IPlugPlatform.h</text>
</a>
</g>
</g>
<!-- Node9&#45;&gt;Node14 -->
<g id="edge13" class="edge"><title>Node9&#45;&gt;Node14</title>
<path fill="none" stroke="midnightblue" d="M676.058,-280.368C674.122,-262.617 669.655,-221.666 667.029,-197.597"/>
<polygon fill="midnightblue" stroke="midnightblue" points="670.501,-197.153 665.937,-187.591 663.542,-197.912 670.501,-197.153"/>
</g>
<!-- Node23 -->
<g id="node23" class="node"><title>Node23</title>
<g id="a_node23"><a xlink:href="_i_plug_constants_8h.html" target="_top" xlink:title="Constant definitions, Types, magic numbers. ">
<polygon fill="white" stroke="black" points="766,-0.5 766,-19.5 858,-19.5 858,-0.5 766,-0.5"/>
<text text-anchor="middle" x="812" y="-7.5" font-family="Helvetica,sans-Serif" font-size="10.00">IPlugConstants.h</text>
</a>
</g>
</g>
<!-- Node9&#45;&gt;Node23 -->
<g id="edge36" class="edge"><title>Node9&#45;&gt;Node23</title>
<path fill="none" stroke="midnightblue" d="M712.269,-288.099C812.978,-283.358 1101.75,-254.145 1213,-76 1217.71,-68.4606 1218.92,-62.6266 1213,-56 1211.57,-54.4051 978.595,-29.0164 868.456,-17.0947"/>
<polygon fill="midnightblue" stroke="midnightblue" points="868.512,-13.5803 858.193,-15.9842 867.759,-20.5397 868.512,-13.5803"/>
</g>
<!-- Node24 -->
<g id="node24" class="node"><title>Node24</title>
<g id="a_node24"><a xlink:href="_i_plug_utilities_8h.html" target="_top" xlink:title="Utility functions and macros. ">
<polygon fill="white" stroke="black" points="675,-56.5 675,-75.5 755,-75.5 755,-56.5 675,-56.5"/>
<text text-anchor="middle" x="715" y="-63.5" font-family="Helvetica,sans-Serif" font-size="10.00">IPlugUtilities.h</text>
</a>
</g>
</g>
<!-- Node9&#45;&gt;Node24 -->
<g id="edge48" class="edge"><title>Node9&#45;&gt;Node24</title>
<path fill="none" stroke="midnightblue" d="M712.005,-282.758C757.602,-272.395 834.401,-246.651 859,-188 886.544,-122.327 759.498,-135.609 755,-132 739.698,-119.722 728.716,-99.9033 722.176,-85.3735"/>
<polygon fill="midnightblue" stroke="midnightblue" points="725.3,-83.7752 718.2,-75.9119 718.847,-86.4869 725.3,-83.7752"/>
</g>
<!-- Node27 -->
<g id="node27" class="node"><title>Node27</title>
<g id="a_node27"><a xlink:href="_i_plug_structs_8h_source.html" target="_top" xlink:title="IPlugStructs.h">
<polygon fill="white" stroke="black" points="569.5,-224.5 569.5,-243.5 648.5,-243.5 648.5,-224.5 569.5,-224.5"/>
<text text-anchor="middle" x="609" y="-231.5" font-family="Helvetica,sans-Serif" font-size="10.00">IPlugStructs.h</text>
</a>
</g>
</g>
<!-- Node9&#45;&gt;Node27 -->
<g id="edge37" class="edge"><title>Node9&#45;&gt;Node27</title>
<path fill="none" stroke="midnightblue" d="M666.075,-280.324C655.825,-272.185 640.279,-259.839 627.999,-250.087"/>
<polygon fill="midnightblue" stroke="midnightblue" points="630.132,-247.312 620.124,-243.834 625.779,-252.794 630.132,-247.312"/>
</g>
<!-- Node29 -->
<g id="node29" class="node"><title>Node29</title>
<g id="a_node29"><a xlink:href="_i_plug_parameter_8h_source.html" target="_top" xlink:title="IPlugParameter.h">
<polygon fill="white" stroke="black" points="299,-112.5 299,-131.5 391,-131.5 391,-112.5 299,-112.5"/>
<text text-anchor="middle" x="345" y="-119.5" font-family="Helvetica,sans-Serif" font-size="10.00">IPlugParameter.h</text>
</a>
</g>
</g>
<!-- Node9&#45;&gt;Node29 -->
<g id="edge49" class="edge"><title>Node9&#45;&gt;Node29</title>
<path fill="none" stroke="midnightblue" d="M641.818,-281.735C589.435,-270.795 495.516,-250.664 481,-244 427.584,-219.48 380.003,-166.727 357.97,-139.703"/>
<polygon fill="midnightblue" stroke="midnightblue" points="360.479,-137.235 351.506,-131.602 355.008,-141.602 360.479,-137.235"/>
</g>
<!-- Node14&#45;&gt;Node10 -->
<g id="edge14" class="edge"><title>Node14&#45;&gt;Node10</title>
<path fill="none" stroke="midnightblue" d="M657.365,-168.075C634.53,-141.38 566.511,-61.865 536.962,-27.3218"/>
<polygon fill="midnightblue" stroke="midnightblue" points="539.489,-24.892 530.329,-19.5681 534.17,-29.4423 539.489,-24.892"/>
</g>
<!-- Node15 -->
<g id="node15" class="node"><title>Node15</title>
<polygon fill="white" stroke="#bfbfbf" points="638.5,-0.5 638.5,-19.5 683.5,-19.5 683.5,-0.5 638.5,-0.5"/>
<text text-anchor="middle" x="661" y="-7.5" font-family="Helvetica,sans-Serif" font-size="10.00">cstdlib</text>
</g>
<!-- Node14&#45;&gt;Node15 -->
<g id="edge15" class="edge"><title>Node14&#45;&gt;Node15</title>
<path fill="none" stroke="midnightblue" d="M664.785,-168.075C664.155,-141.945 662.306,-65.2106 661.448,-29.577"/>
<polygon fill="midnightblue" stroke="midnightblue" points="664.946,-29.4809 661.206,-19.5681 657.948,-29.6496 664.946,-29.4809"/>
</g>
<!-- Node16 -->
<g id="node16" class="node"><title>Node16</title>
<g id="a_node16"><a xlink:href="_i_plug_logger_8h.html" target="_top" xlink:title="IPlug logging a.k.a tracing functionailty. ">
<polygon fill="white" stroke="black" points="797.5,-112.5 797.5,-131.5 874.5,-131.5 874.5,-112.5 797.5,-112.5"/>
<text text-anchor="middle" x="836" y="-119.5" font-family="Helvetica,sans-Serif" font-size="10.00">IPlugLogger.h</text>
</a>
</g>
</g>
<!-- Node14&#45;&gt;Node16 -->
<g id="edge16" class="edge"><title>Node14&#45;&gt;Node16</title>
<path fill="none" stroke="midnightblue" d="M692.095,-168.444C720.988,-159.32 766.925,-144.813 799.105,-134.651"/>
<polygon fill="midnightblue" stroke="midnightblue" points="800.549,-137.865 809.031,-131.516 798.441,-131.19 800.549,-137.865"/>
</g>
<!-- Node16&#45;&gt;Node10 -->
<g id="edge21" class="edge"><title>Node16&#45;&gt;Node10</title>
<path fill="none" stroke="midnightblue" d="M797.293,-112.708C762.466,-104.789 710.139,-91.7478 666,-76 623.724,-60.9169 576.697,-38.3595 548.505,-24.1739"/>
<polygon fill="midnightblue" stroke="midnightblue" points="549.858,-20.9358 539.357,-19.5314 546.69,-27.178 549.858,-20.9358"/>
</g>
<!-- Node16&#45;&gt;Node11 -->
<g id="edge20" class="edge"><title>Node16&#45;&gt;Node11</title>
<path fill="none" stroke="midnightblue" d="M874.75,-112.562C923.156,-102.023 1005.15,-84.168 1050.81,-74.2276"/>
<polygon fill="midnightblue" stroke="midnightblue" points="1051.75,-77.6034 1060.78,-72.0559 1050.26,-70.7637 1051.75,-77.6034"/>
</g>
<!-- Node16&#45;&gt;Node13 -->
<g id="edge25" class="edge"><title>Node16&#45;&gt;Node13</title>
<path fill="none" stroke="midnightblue" d="M797.265,-116.838C725.289,-109.072 566.051,-91.7285 432,-76 419.935,-74.5843 406.756,-72.978 394.957,-71.5181"/>
<polygon fill="midnightblue" stroke="midnightblue" points="395.361,-68.0416 385.006,-70.2814 394.498,-74.9881 395.361,-68.0416"/>
</g>
<!-- Node17 -->
<g id="node17" class="node"><title>Node17</title>
<polygon fill="white" stroke="#bfbfbf" points="905.5,-0.5 905.5,-19.5 948.5,-19.5 948.5,-0.5 905.5,-0.5"/>
<text text-anchor="middle" x="927" y="-7.5" font-family="Helvetica,sans-Serif" font-size="10.00">cstdio</text>
</g>
<!-- Node16&#45;&gt;Node17 -->
<g id="edge17" class="edge"><title>Node16&#45;&gt;Node17</title>
<path fill="none" stroke="midnightblue" d="M854.867,-112.433C869.789,-104.793 890.179,-92.2993 903,-76 913.681,-62.4221 919.931,-43.6229 923.36,-29.7333"/>
<polygon fill="midnightblue" stroke="midnightblue" points="926.806,-30.3587 925.536,-19.8403 919.97,-28.8548 926.806,-30.3587"/>
</g>
<!-- Node18 -->
<g id="node18" class="node"><title>Node18</title>
<polygon fill="white" stroke="#bfbfbf" points="702,-0.5 702,-19.5 748,-19.5 748,-0.5 702,-0.5"/>
<text text-anchor="middle" x="725" y="-7.5" font-family="Helvetica,sans-Serif" font-size="10.00">cctype</text>
</g>
<!-- Node16&#45;&gt;Node18 -->
<g id="edge18" class="edge"><title>Node16&#45;&gt;Node18</title>
<path fill="none" stroke="midnightblue" d="M846.098,-112.498C860.208,-99.5819 882.644,-74.5579 869,-56 867.293,-53.6788 799.879,-33.2821 757.906,-20.7592"/>
<polygon fill="midnightblue" stroke="midnightblue" points="758.677,-17.3369 748.094,-17.8367 756.679,-24.0457 758.677,-17.3369"/>
</g>
<!-- Node19 -->
<g id="node19" class="node"><title>Node19</title>
<polygon fill="white" stroke="#bfbfbf" points="811.5,-56.5 811.5,-75.5 860.5,-75.5 860.5,-56.5 811.5,-56.5"/>
<text text-anchor="middle" x="836" y="-63.5" font-family="Helvetica,sans-Serif" font-size="10.00">cstdarg</text>
</g>
<!-- Node16&#45;&gt;Node19 -->
<g id="edge19" class="edge"><title>Node16&#45;&gt;Node19</title>
<path fill="none" stroke="midnightblue" d="M836,-112.083C836,-105.006 836,-94.8611 836,-85.9865"/>
<polygon fill="midnightblue" stroke="midnightblue" points="839.5,-85.751 836,-75.7511 832.5,-85.7511 839.5,-85.751"/>
</g>
<!-- Node20 -->
<g id="node20" class="node"><title>Node20</title>
<polygon fill="white" stroke="#bfbfbf" points="1163.5,-56.5 1163.5,-75.5 1204.5,-75.5 1204.5,-56.5 1163.5,-56.5"/>
<text text-anchor="middle" x="1184" y="-63.5" font-family="Helvetica,sans-Serif" font-size="10.00">ctime</text>
</g>
<!-- Node16&#45;&gt;Node20 -->
<g id="edge22" class="edge"><title>Node16&#45;&gt;Node20</title>
<path fill="none" stroke="midnightblue" d="M874.751,-113.609C877.878,-113.051 880.99,-112.508 884,-112 982.103,-95.4507 1098.78,-78.822 1153.2,-71.2425"/>
<polygon fill="midnightblue" stroke="midnightblue" points="1153.8,-74.692 1163.23,-69.85 1152.84,-67.7585 1153.8,-74.692"/>
</g>
<!-- Node21 -->
<g id="node21" class="node"><title>Node21</title>
<polygon fill="white" stroke="#bfbfbf" points="955.5,-56.5 955.5,-75.5 1004.5,-75.5 1004.5,-56.5 955.5,-56.5"/>
<text text-anchor="middle" x="980" y="-63.5" font-family="Helvetica,sans-Serif" font-size="10.00">cassert</text>
</g>
<!-- Node16&#45;&gt;Node21 -->
<g id="edge23" class="edge"><title>Node16&#45;&gt;Node21</title>
<path fill="none" stroke="midnightblue" d="M858.817,-112.444C882.832,-103.438 920.829,-89.1891 947.869,-79.049"/>
<polygon fill="midnightblue" stroke="midnightblue" points="949.155,-82.3049 957.29,-75.5164 946.697,-75.7506 949.155,-82.3049"/>
</g>
<!-- Node22 -->
<g id="node22" class="node"><title>Node22</title>
<polygon fill="white" stroke="#bfbfbf" points="441,-56.5 441,-75.5 505,-75.5 505,-56.5 441,-56.5"/>
<text text-anchor="middle" x="473" y="-63.5" font-family="Helvetica,sans-Serif" font-size="10.00">wdlstring.h</text>
</g>
<!-- Node16&#45;&gt;Node22 -->
<g id="edge24" class="edge"><title>Node16&#45;&gt;Node22</title>
<path fill="none" stroke="midnightblue" d="M797.496,-115.272C728.888,-105.066 586.04,-83.8158 514.996,-73.2474"/>
<polygon fill="midnightblue" stroke="midnightblue" points="515.459,-69.7778 505.053,-71.7682 514.429,-76.7016 515.459,-69.7778"/>
</g>
<!-- Node16&#45;&gt;Node23 -->
<g id="edge26" class="edge"><title>Node16&#45;&gt;Node23</title>
<path fill="none" stroke="midnightblue" d="M826.98,-112.34C818.928,-103.932 807.702,-90.3633 803,-76 798.016,-60.7746 801.223,-42.6626 805.126,-29.4297"/>
<polygon fill="midnightblue" stroke="midnightblue" points="808.551,-30.2258 808.404,-19.632 801.912,-28.0048 808.551,-30.2258"/>
</g>
<!-- Node16&#45;&gt;Node24 -->
<g id="edge27" class="edge"><title>Node16&#45;&gt;Node24</title>
<path fill="none" stroke="midnightblue" d="M816.827,-112.444C797.091,-103.636 766.115,-89.8116 743.507,-79.722"/>
<polygon fill="midnightblue" stroke="midnightblue" points="744.641,-76.3957 734.083,-75.5164 741.789,-82.788 744.641,-76.3957"/>
</g>
<!-- Node24&#45;&gt;Node10 -->
<g id="edge32" class="edge"><title>Node24&#45;&gt;Node10</title>
<path fill="none" stroke="midnightblue" d="M684.577,-56.4435C649.546,-46.591 592.198,-30.4621 556.082,-20.3044"/>
<polygon fill="midnightblue" stroke="midnightblue" points="556.624,-16.8209 546.049,-17.4826 554.728,-23.5594 556.624,-16.8209"/>
</g>
<!-- Node24&#45;&gt;Node14 -->
<g id="edge35" class="edge"><title>Node24&#45;&gt;Node14</title>
<path fill="none" stroke="midnightblue" d="M711.095,-75.5914C702.969,-93.4683 684.092,-134.997 673.183,-158.998"/>
<polygon fill="midnightblue" stroke="midnightblue" points="669.875,-157.816 668.923,-168.368 676.248,-160.713 669.875,-157.816"/>
</g>
<!-- Node24&#45;&gt;Node15 -->
<g id="edge31" class="edge"><title>Node24&#45;&gt;Node15</title>
<path fill="none" stroke="midnightblue" d="M706.083,-56.083C698.22,-48.2195 686.569,-36.5688 677.081,-27.0813"/>
<polygon fill="midnightblue" stroke="midnightblue" points="679.297,-24.3473 669.751,-19.7511 674.347,-29.2971 679.297,-24.3473"/>
</g>
<!-- Node24&#45;&gt;Node17 -->
<g id="edge30" class="edge"><title>Node24&#45;&gt;Node17</title>
<path fill="none" stroke="midnightblue" d="M748.592,-56.4435C788.891,-46.1788 855.934,-29.1016 895.35,-19.0618"/>
<polygon fill="midnightblue" stroke="midnightblue" points="896.389,-22.4089 905.216,-16.5488 894.661,-15.6255 896.389,-22.4089"/>
</g>
<!-- Node24&#45;&gt;Node18 -->
<g id="edge33" class="edge"><title>Node24&#45;&gt;Node18</title>
<path fill="none" stroke="midnightblue" d="M716.651,-56.083C717.976,-48.9272 719.882,-38.6353 721.539,-29.6911"/>
<polygon fill="midnightblue" stroke="midnightblue" points="725,-30.2212 723.379,-19.7511 718.117,-28.9466 725,-30.2212"/>
</g>
<!-- Node24&#45;&gt;Node23 -->
<g id="edge34" class="edge"><title>Node24&#45;&gt;Node23</title>
<path fill="none" stroke="midnightblue" d="M730.585,-56.324C745.999,-47.7428 769.812,-34.486 787.71,-24.5224"/>
<polygon fill="midnightblue" stroke="midnightblue" points="789.419,-27.5767 796.454,-19.6545 786.014,-21.4606 789.419,-27.5767"/>
</g>
<!-- Node25 -->
<g id="node25" class="node"><title>Node25</title>
<polygon fill="white" stroke="#bfbfbf" points="564,-0.5 564,-19.5 620,-19.5 620,-0.5 564,-0.5"/>
<text text-anchor="middle" x="592" y="-7.5" font-family="Helvetica,sans-Serif" font-size="10.00">algorithm</text>
</g>
<!-- Node24&#45;&gt;Node25 -->
<g id="edge28" class="edge"><title>Node24&#45;&gt;Node25</title>
<path fill="none" stroke="midnightblue" d="M695.51,-56.4435C675.358,-47.5961 643.677,-33.6875 620.669,-23.5865"/>
<polygon fill="midnightblue" stroke="midnightblue" points="621.962,-20.3316 611.399,-19.5164 619.148,-26.7411 621.962,-20.3316"/>
</g>
<!-- Node26 -->
<g id="node26" class="node"><title>Node26</title>
<polygon fill="white" stroke="#bfbfbf" points="1237,-0.5 1237,-19.5 1281,-19.5 1281,-0.5 1237,-0.5"/>
<text text-anchor="middle" x="1259" y="-7.5" font-family="Helvetica,sans-Serif" font-size="10.00">cmath</text>
</g>
<!-- Node24&#45;&gt;Node26 -->
<g id="edge29" class="edge"><title>Node24&#45;&gt;Node26</title>
<path fill="none" stroke="midnightblue" d="M755.301,-60.8479C770.278,-59.3129 787.414,-57.5661 803,-56 961.806,-40.0434 1151.78,-21.458 1226.52,-14.1651"/>
<polygon fill="midnightblue" stroke="midnightblue" points="1227.08,-17.6271 1236.7,-13.1727 1226.4,-10.6601 1227.08,-17.6271"/>
</g>
<!-- Node27&#45;&gt;Node12 -->
<g id="edge40" class="edge"><title>Node27&#45;&gt;Node12</title>
<path fill="none" stroke="midnightblue" d="M643.384,-224.444C683.927,-214.354 750.918,-197.684 791.508,-187.583"/>
<polygon fill="midnightblue" stroke="midnightblue" points="792.367,-190.976 801.226,-185.165 790.677,-184.183 792.367,-190.976"/>
</g>
<!-- Node27&#45;&gt;Node14 -->
<g id="edge42" class="edge"><title>Node27&#45;&gt;Node14</title>
<path fill="none" stroke="midnightblue" d="M617.997,-224.324C626.194,-216.42 638.506,-204.548 648.472,-194.938"/>
<polygon fill="midnightblue" stroke="midnightblue" points="651.07,-197.295 655.839,-187.834 646.211,-192.256 651.07,-197.295"/>
</g>
<!-- Node27&#45;&gt;Node22 -->
<g id="edge39" class="edge"><title>Node27&#45;&gt;Node22</title>
<path fill="none" stroke="midnightblue" d="M600.711,-224.372C584.423,-207.275 547.361,-167.661 519,-132 506.536,-116.328 493.45,-97.582 484.437,-84.2578"/>
<polygon fill="midnightblue" stroke="midnightblue" points="487.134,-81.9951 478.66,-75.6353 481.318,-85.8912 487.134,-81.9951"/>
</g>
<!-- Node27&#45;&gt;Node23 -->
<g id="edge41" class="edge"><title>Node27&#45;&gt;Node23</title>
<path fill="none" stroke="midnightblue" d="M608.894,-224.346C609.045,-195.464 613.706,-101.639 666,-56 680.522,-43.3263 725.611,-30.5391 761.881,-21.852"/>
<polygon fill="midnightblue" stroke="midnightblue" points="762.908,-25.2061 771.844,-19.5141 761.309,-18.3913 762.908,-25.2061"/>
</g>
<!-- Node27&#45;&gt;Node25 -->
<g id="edge38" class="edge"><title>Node27&#45;&gt;Node25</title>
<path fill="none" stroke="midnightblue" d="M591.548,-224.486C553.409,-204.734 463.528,-151.639 432,-76 428.58,-67.7953 426.633,-63.0854 432,-56 435.776,-51.015 507.833,-32.14 553.947,-20.4769"/>
<polygon fill="midnightblue" stroke="midnightblue" points="555.081,-23.8005 563.923,-17.9635 553.371,-17.0126 555.081,-23.8005"/>
</g>
<!-- Node28 -->
<g id="node28" class="node"><title>Node28</title>
<g id="a_node28"><a xlink:href="_i_plug_midi_8h_source.html" target="_top" xlink:title="IPlugMidi.h">
<polygon fill="white" stroke="black" points="892.5,-112.5 892.5,-131.5 957.5,-131.5 957.5,-112.5 892.5,-112.5"/>
<text text-anchor="middle" x="925" y="-119.5" font-family="Helvetica,sans-Serif" font-size="10.00">IPlugMidi.h</text>
</a>
</g>
</g>
<!-- Node27&#45;&gt;Node28 -->
<g id="edge43" class="edge"><title>Node27&#45;&gt;Node28</title>
<path fill="none" stroke="midnightblue" d="M629.784,-224.358C651.204,-215.41 685.532,-200.95 715,-188 734.666,-179.358 738.79,-175.278 759,-168 800.117,-153.192 848.478,-140.608 882.361,-132.544"/>
<polygon fill="midnightblue" stroke="midnightblue" points="883.452,-135.883 892.387,-130.189 881.852,-129.068 883.452,-135.883"/>
</g>
<!-- Node28&#45;&gt;Node11 -->
<g id="edge45" class="edge"><title>Node28&#45;&gt;Node11</title>
<path fill="none" stroke="midnightblue" d="M950.194,-112.444C977.572,-103.145 1021.41,-88.2572 1051.39,-78.0735"/>
<polygon fill="midnightblue" stroke="midnightblue" points="1052.65,-81.3451 1060.99,-74.8151 1050.39,-74.7169 1052.65,-81.3451"/>
</g>
<!-- Node28&#45;&gt;Node21 -->
<g id="edge44" class="edge"><title>Node28&#45;&gt;Node21</title>
<path fill="none" stroke="midnightblue" d="M934.082,-112.083C942.171,-104.141 954.195,-92.3354 963.91,-82.7973"/>
<polygon fill="midnightblue" stroke="midnightblue" points="966.403,-85.2545 971.087,-75.7511 961.499,-80.2595 966.403,-85.2545"/>
</g>
<!-- Node28&#45;&gt;Node23 -->
<g id="edge46" class="edge"><title>Node28&#45;&gt;Node23</title>
<path fill="none" stroke="midnightblue" d="M954.955,-112.455C987.755,-101.597 1033.18,-81.2028 1013,-56 1003.87,-44.6027 924.57,-29.4305 868.355,-19.94"/>
<polygon fill="midnightblue" stroke="midnightblue" points="868.589,-16.4307 858.149,-18.2362 867.436,-23.3352 868.589,-16.4307"/>
</g>
<!-- Node28&#45;&gt;Node24 -->
<g id="edge47" class="edge"><title>Node28&#45;&gt;Node24</title>
<path fill="none" stroke="midnightblue" d="M892.188,-112.562C856.03,-103.265 797.739,-88.2757 757.964,-78.0478"/>
<polygon fill="midnightblue" stroke="midnightblue" points="758.832,-74.6572 748.275,-75.5565 757.088,-81.4367 758.832,-74.6572"/>
</g>
<!-- Node29&#45;&gt;Node10 -->
<g id="edge50" class="edge"><title>Node29&#45;&gt;Node10</title>
<path fill="none" stroke="midnightblue" d="M310.02,-112.408C273.64,-101.841 224.85,-82.054 247,-56 277.756,-19.8231 422.654,-12.6586 489.305,-11.2915"/>
<polygon fill="midnightblue" stroke="midnightblue" points="489.737,-14.7847 499.675,-11.1131 489.616,-7.78572 489.737,-14.7847"/>
</g>
<!-- Node29&#45;&gt;Node22 -->
<g id="edge52" class="edge"><title>Node29&#45;&gt;Node22</title>
<path fill="none" stroke="midnightblue" d="M365.282,-112.444C386.347,-103.557 419.517,-89.5632 443.486,-79.4514"/>
<polygon fill="midnightblue" stroke="midnightblue" points="444.96,-82.6283 452.813,-75.5164 442.239,-76.1787 444.96,-82.6283"/>
</g>
<!-- Node29&#45;&gt;Node24 -->
<g id="edge53" class="edge"><title>Node29&#45;&gt;Node24</title>
<path fill="none" stroke="midnightblue" d="M391.113,-114.27C460.814,-104.097 592.502,-84.878 664.634,-74.3507"/>
<polygon fill="midnightblue" stroke="midnightblue" points="665.44,-77.7703 674.83,-72.8627 664.429,-70.8436 665.44,-77.7703"/>
</g>
<!-- Node30 -->
<g id="node30" class="node"><title>Node30</title>
<polygon fill="white" stroke="#bfbfbf" points="255.5,-56.5 255.5,-75.5 314.5,-75.5 314.5,-56.5 255.5,-56.5"/>
<text text-anchor="middle" x="285" y="-63.5" font-family="Helvetica,sans-Serif" font-size="10.00">functional</text>
</g>
<!-- Node29&#45;&gt;Node30 -->
<g id="edge51" class="edge"><title>Node29&#45;&gt;Node30</title>
<path fill="none" stroke="midnightblue" d="M335.36,-112.324C326.49,-104.341 313.125,-92.3128 302.392,-82.6529"/>
<polygon fill="midnightblue" stroke="midnightblue" points="304.59,-79.922 294.815,-75.8339 299.907,-85.1251 304.59,-79.922"/>
</g>
<!-- Node32&#45;&gt;Node10 -->
<g id="edge56" class="edge"><title>Node32&#45;&gt;Node10</title>
<path fill="none" stroke="midnightblue" d="M1075.21,-280.401C1098.76,-246.7 1178.11,-122.219 1116,-56 1074.94,-12.2204 651.618,-29.0455 556.247,-19.4657"/>
<polygon fill="midnightblue" stroke="midnightblue" points="556.659,-15.9899 546.289,-18.1606 555.75,-22.9306 556.659,-15.9899"/>
</g>
<!-- Node32&#45;&gt;Node11 -->
<g id="edge57" class="edge"><title>Node32&#45;&gt;Node11</title>
<path fill="none" stroke="midnightblue" d="M1069.59,-280.297C1071.8,-247.633 1079.62,-131.866 1082.72,-85.9573"/>
<polygon fill="midnightblue" stroke="midnightblue" points="1086.22,-86.097 1083.4,-75.8837 1079.23,-85.625 1086.22,-86.097"/>
</g>
<!-- Node32&#45;&gt;Node12 -->
<g id="edge58" class="edge"><title>Node32&#45;&gt;Node12</title>
<path fill="none" stroke="midnightblue" d="M1049.93,-280.368C1007.35,-261.091 904.32,-214.454 854.253,-191.789"/>
<polygon fill="midnightblue" stroke="midnightblue" points="855.533,-188.527 844.979,-187.591 852.646,-194.904 855.533,-188.527"/>
</g>
<!-- Node32&#45;&gt;Node14 -->
<g id="edge59" class="edge"><title>Node32&#45;&gt;Node14</title>
<path fill="none" stroke="midnightblue" d="M1037.63,-280.46C965.363,-260.782 787.127,-212.252 706.181,-190.213"/>
<polygon fill="midnightblue" stroke="midnightblue" points="706.913,-186.785 696.345,-187.535 705.074,-193.539 706.913,-186.785"/>
</g>
<!-- Node32&#45;&gt;Node23 -->
<g id="edge60" class="edge"><title>Node32&#45;&gt;Node23</title>
<path fill="none" stroke="midnightblue" d="M1098.25,-280.364C1117.68,-273.323 1142.55,-261.623 1159,-244 1219.84,-178.822 1288.57,-122.341 1229,-56 1228.25,-55.1667 982.081,-29.0063 868.371,-16.9627"/>
<polygon fill="midnightblue" stroke="midnightblue" points="868.433,-13.4498 858.12,-15.8772 867.696,-20.4109 868.433,-13.4498"/>
</g>
<!-- Node32&#45;&gt;Node24 -->
<g id="edge62" class="edge"><title>Node32&#45;&gt;Node24</title>
<path fill="none" stroke="midnightblue" d="M1056.62,-280.373C1026.35,-259.49 945.814,-205.205 874,-168 837.572,-149.128 823.745,-153.816 789,-132 766.726,-118.014 744.504,-97.3696 730.312,-83.1168"/>
<polygon fill="midnightblue" stroke="midnightblue" points="732.432,-80.2778 722.945,-75.5623 727.421,-85.1651 732.432,-80.2778"/>
</g>
<!-- Node32&#45;&gt;Node27 -->
<g id="edge61" class="edge"><title>Node32&#45;&gt;Node27</title>
<path fill="none" stroke="midnightblue" d="M1022.79,-283.575C935.783,-273.361 748.372,-251.361 658.734,-240.838"/>
<polygon fill="midnightblue" stroke="midnightblue" points="658.899,-237.334 648.559,-239.644 658.083,-244.286 658.899,-237.334"/>
</g>
<!-- Node33 -->
<g id="node33" class="node"><title>Node33</title>
<g id="a_node33"><a xlink:href="_n_chan_delay_8h_source.html" target="_top" xlink:title="NChanDelay.h">
<polygon fill="white" stroke="black" points="1224.5,-224.5 1224.5,-243.5 1305.5,-243.5 1305.5,-224.5 1224.5,-224.5"/>
<text text-anchor="middle" x="1265" y="-231.5" font-family="Helvetica,sans-Serif" font-size="10.00">NChanDelay.h</text>
</a>
</g>
</g>
<!-- Node32&#45;&gt;Node33 -->
<g id="edge63" class="edge"><title>Node32&#45;&gt;Node33</title>
<path fill="none" stroke="midnightblue" d="M1100.06,-280.444C1133.6,-271.201 1187.2,-256.436 1224.14,-246.257"/>
<polygon fill="midnightblue" stroke="midnightblue" points="1225.38,-249.547 1234.09,-243.516 1223.52,-242.798 1225.38,-249.547"/>
</g>
<!-- Node34 -->
<g id="node34" class="node"><title>Node34</title>
<g id="a_node34"><a xlink:href="_i_plug_processor_8cpp_source.html" target="_top" xlink:title="IPlugProcessor.cpp">
<polygon fill="white" stroke="black" points="1292,-112.5 1292,-131.5 1394,-131.5 1394,-112.5 1292,-112.5"/>
<text text-anchor="middle" x="1343" y="-119.5" font-family="Helvetica,sans-Serif" font-size="10.00">IPlugProcessor.cpp</text>
</a>
</g>
</g>
<!-- Node32&#45;&gt;Node34 -->
<g id="edge64" class="edge"><title>Node32&#45;&gt;Node34</title>
<path fill="none" stroke="midnightblue" d="M1115.04,-285.971C1175.8,-281.204 1277.89,-269.696 1305,-244 1333.13,-217.334 1336.08,-168.599 1338.42,-141.836"/>
<polygon fill="midnightblue" stroke="midnightblue" points="1341.94,-141.852 1339.5,-131.541 1334.97,-141.121 1341.94,-141.852"/>
</g>
<!-- Node34&#45;&gt;Node17 -->
<g id="edge66" class="edge"><title>Node34&#45;&gt;Node17</title>
<path fill="none" stroke="midnightblue" d="M1338.23,-112.477C1329.65,-98.079 1310.17,-69.2218 1285,-56 1228.59,-26.3712 1035.76,-15.4153 958.952,-12.1652"/>
<polygon fill="midnightblue" stroke="midnightblue" points="959.043,-8.66609 948.909,-11.7566 958.759,-15.6603 959.043,-8.66609"/>
</g>
<!-- Node34&#45;&gt;Node20 -->
<g id="edge67" class="edge"><title>Node34&#45;&gt;Node20</title>
<path fill="none" stroke="midnightblue" d="M1317.81,-112.444C1289.64,-102.878 1244.06,-87.3969 1214.06,-77.2075"/>
<polygon fill="midnightblue" stroke="midnightblue" points="1215.12,-73.8728 1204.53,-73.971 1212.87,-80.501 1215.12,-73.8728"/>
</g>
<!-- Node34&#45;&gt;Node21 -->
<g id="edge68" class="edge"><title>Node34&#45;&gt;Node21</title>
<path fill="none" stroke="midnightblue" d="M1291.76,-113.378C1216.78,-102.224 1079.13,-81.7465 1014.82,-72.18"/>
<polygon fill="midnightblue" stroke="midnightblue" points="1015.19,-68.6968 1004.79,-70.6872 1014.16,-75.6206 1015.19,-68.6968"/>
</g>
<!-- Node34&#45;&gt;Node26 -->
<g id="edge65" class="edge"><title>Node34&#45;&gt;Node26</title>
<path fill="none" stroke="midnightblue" d="M1394.08,-117.958C1454.7,-112.452 1543.49,-97.256 1509,-56 1481.65,-23.2852 1352.95,-14.3176 1291.64,-11.8879"/>
<polygon fill="midnightblue" stroke="midnightblue" points="1291.48,-8.37999 1281.36,-11.5173 1291.23,-15.3754 1291.48,-8.37999"/>
</g>
<!-- Node34&#45;&gt;Node32 -->
<g id="edge71" class="edge"><title>Node34&#45;&gt;Node32</title>
<path fill="none" stroke="midnightblue" d="M1348.12,-131.541C1354.39,-153.692 1355.3,-213.388 1323,-244 1295.59,-269.98 1191.54,-281.456 1125.33,-286.126"/>
<polygon fill="midnightblue" stroke="midnightblue" points="1124.79,-282.655 1115.04,-286.818 1125.26,-289.639 1124.79,-282.655"/>
</g>
<!-- Node35 -->
<g id="node35" class="node"><title>Node35</title>
<polygon fill="white" stroke="#bfbfbf" points="1337,-56.5 1337,-75.5 1405,-75.5 1405,-56.5 1337,-56.5"/>
<text text-anchor="middle" x="1371" y="-63.5" font-family="Helvetica,sans-Serif" font-size="10.00">wdlendian.h</text>
</g>
<!-- Node34&#45;&gt;Node35 -->
<g id="edge69" class="edge"><title>Node34&#45;&gt;Node35</title>
<path fill="none" stroke="midnightblue" d="M1347.62,-112.083C1351.46,-104.691 1357.02,-93.9533 1361.76,-84.8111"/>
<polygon fill="midnightblue" stroke="midnightblue" points="1364.97,-86.2398 1366.46,-75.7511 1358.75,-83.0175 1364.97,-86.2398"/>
</g>
<!-- Node36 -->
<g id="node36" class="node"><title>Node36</title>
<polygon fill="white" stroke="#bfbfbf" points="1423.5,-56.5 1423.5,-75.5 1500.5,-75.5 1500.5,-56.5 1423.5,-56.5"/>
<text text-anchor="middle" x="1462" y="-63.5" font-family="Helvetica,sans-Serif" font-size="10.00">wdl_base64.h</text>
</g>
<!-- Node34&#45;&gt;Node36 -->
<g id="edge70" class="edge"><title>Node34&#45;&gt;Node36</title>
<path fill="none" stroke="midnightblue" d="M1361.86,-112.444C1381.27,-103.636 1411.73,-89.8116 1433.96,-79.722"/>
<polygon fill="midnightblue" stroke="midnightblue" points="1435.57,-82.836 1443.23,-75.5164 1432.68,-76.4615 1435.57,-82.836"/>
</g>
<!-- Node37&#45;&gt;Node10 -->
<g id="edge73" class="edge"><title>Node37&#45;&gt;Node10</title>
<path fill="none" stroke="midnightblue" d="M378.328,-287.464C309.296,-284.066 173.155,-273.699 137,-244 113.204,-224.453 113,-209.795 113,-179 113,-179 113,-179 113,-121 113,-90.2048 112.797,-75.0406 137,-56 191.355,-13.2391 406.207,-10.1069 489.633,-10.5554"/>
<polygon fill="midnightblue" stroke="midnightblue" points="489.795,-14.0567 499.821,-10.632 489.848,-7.05685 489.795,-14.0567"/>
</g>
<!-- Node37&#45;&gt;Node11 -->
<g id="edge74" class="edge"><title>Node37&#45;&gt;Node11</title>
<path fill="none" stroke="midnightblue" d="M459.634,-285.343C507.874,-280.094 590.199,-268.251 657,-244 722.086,-220.372 728.133,-192.222 793,-168 866.574,-140.527 892.735,-160.286 966,-132 982.355,-125.686 984.715,-120.586 1000,-112 1019.41,-101.096 1041.63,-89.2195 1058.34,-80.4068"/>
<polygon fill="midnightblue" stroke="midnightblue" points="1060.25,-83.3542 1067.48,-75.6026 1057,-77.1583 1060.25,-83.3542"/>
</g>
<!-- Node37&#45;&gt;Node12 -->
<g id="edge75" class="edge"><title>Node37&#45;&gt;Node12</title>
<path fill="none" stroke="midnightblue" d="M459.646,-285.91C534.469,-279.798 690.937,-264.922 741,-244 768.149,-232.654 794.242,-210.466 810.192,-195.195"/>
<polygon fill="midnightblue" stroke="midnightblue" points="812.895,-197.445 817.561,-187.933 807.981,-192.459 812.895,-197.445"/>
</g>
<!-- Node37&#45;&gt;Node13 -->
<g id="edge76" class="edge"><title>Node37&#45;&gt;Node13</title>
<path fill="none" stroke="midnightblue" d="M402.515,-280.366C388.372,-272.357 368.101,-259.375 354,-244 315.249,-201.748 304.715,-187.411 290,-132 287.719,-123.409 285.766,-119.816 290,-112 297.749,-97.6958 312.234,-87.2188 325.94,-79.992"/>
<polygon fill="midnightblue" stroke="midnightblue" points="327.738,-83.0103 335.212,-75.501 324.686,-76.7104 327.738,-83.0103"/>
</g>
<!-- Node37&#45;&gt;Node14 -->
<g id="edge77" class="edge"><title>Node37&#45;&gt;Node14</title>
<path fill="none" stroke="midnightblue" d="M437.326,-280.463C464.325,-267.919 516.415,-243.847 561,-224 586.135,-212.811 614.846,-200.417 635.724,-191.474"/>
<polygon fill="midnightblue" stroke="midnightblue" points="637.19,-194.654 645.008,-187.503 634.438,-188.218 637.19,-194.654"/>
</g>
<!-- Node37&#45;&gt;Node23 -->
<g id="edge78" class="edge"><title>Node37&#45;&gt;Node23</title>
<path fill="none" stroke="midnightblue" d="M378.41,-287.414C312.382,-282.422 189,-261.992 189,-179 189,-179 189,-179 189,-121 189,-82.2823 212.245,-73.0622 247,-56 346.299,-7.25182 628.722,-31.8041 755.85,-19.9184"/>
<polygon fill="midnightblue" stroke="midnightblue" points="756.25,-23.3957 765.83,-18.8704 755.519,-16.434 756.25,-23.3957"/>
</g>
<!-- Node37&#45;&gt;Node24 -->
<g id="edge80" class="edge"><title>Node37&#45;&gt;Node24</title>
<path fill="none" stroke="midnightblue" d="M430.604,-280.297C475.55,-246.588 638.501,-124.374 695.306,-81.7708"/>
<polygon fill="midnightblue" stroke="midnightblue" points="697.577,-84.4425 703.477,-75.6425 693.377,-78.8425 697.577,-84.4425"/>
</g>
<!-- Node37&#45;&gt;Node27 -->
<g id="edge79" class="edge"><title>Node37&#45;&gt;Node27</title>
<path fill="none" stroke="midnightblue" d="M449.106,-280.444C481.626,-271.201 533.579,-256.436 569.391,-246.257"/>
<polygon fill="midnightblue" stroke="midnightblue" points="570.373,-249.617 579.035,-243.516 568.459,-242.884 570.373,-249.617"/>
</g>
<!-- Node37&#45;&gt;Node29 -->
<g id="edge81" class="edge"><title>Node37&#45;&gt;Node29</title>
<path fill="none" stroke="midnightblue" d="M404.203,-280.243C392.204,-272.329 375.877,-259.553 367,-244 348.452,-211.503 344.989,-166.796 344.649,-141.824"/>
<polygon fill="midnightblue" stroke="midnightblue" points="348.15,-141.58 344.676,-131.571 341.15,-141.562 348.15,-141.58"/>
</g>
</g>
</svg>
        <g id="navigator" transform="translate(0 0)" fill="#404254">
                <rect fill="#f2f5e9" fill-opacity="0.5" stroke="#606060" stroke-width=".5" x="0" y="0" width="60" height="60"/>
                <use id="zoomplus" xlink:href="#zoomPlus" x="17" y="9" onmousedown="handleZoom(evt,'in')"/>
                <use id="zoomminus" xlink:href="#zoomMin" x="42" y="9" onmousedown="handleZoom(evt,'out')"/>
                <use id="reset" xlink:href="#resetDef" x="30" y="36" onmousedown="handleReset()"/>
                <g id="arrowUp" xlink:href="#dirArrow" transform="translate(30 24)" onmousedown="handlePan(0,-1)">
                  <use xlink:href="#rim" fill="#404040">
                        <set attributeName="fill" to="#808080" begin="arrowUp.mouseover" end="arrowUp.mouseout"/>
                  </use>
                  <path fill="none" stroke="white" stroke-width="1.5" d="M0,-3.0v7 M-2.5,-0.5L0,-3.0L2.5,-0.5"/>
                </g>
                <g id="arrowRight" xlink:href="#dirArrow" transform="rotate(90) translate(36 -43)" onmousedown="handlePan(1,0)">
                  <use xlink:href="#rim" fill="#404040">
                        <set attributeName="fill" to="#808080" begin="arrowRight.mouseover" end="arrowRight.mouseout"/>
                  </use>
                  <path fill="none" stroke="white" stroke-width="1.5" d="M0,-3.0v7 M-2.5,-0.5L0,-3.0L2.5,-0.5"/>
                </g>
                <g id="arrowDown" xlink:href="#dirArrow" transform="rotate(180) translate(-30 -48)" onmousedown="handlePan(0,1)">
                  <use xlink:href="#rim" fill="#404040">
                        <set attributeName="fill" to="#808080" begin="arrowDown.mouseover" end="arrowDown.mouseout"/>
                  </use>
                  <path fill="none" stroke="white" stroke-width="1.5" d="M0,-3.0v7 M-2.5,-0.5L0,-3.0L2.5,-0.5"/>
                </g>
                <g id="arrowLeft" xlink:href="#dirArrow" transform="rotate(270) translate(-36 17)" onmousedown="handlePan(-1,0)">
                  <use xlink:href="#rim" fill="#404040">
                        <set attributeName="fill" to="#808080" begin="arrowLeft.mouseover" end="arrowLeft.mouseout"/>
                  </use>
                  <path fill="none" stroke="white" stroke-width="1.5" d="M0,-3.0v7 M-2.5,-0.5L0,-3.0L2.5,-0.5"/>
                </g>
        </g>
        <svg viewBox="0 0 15 15" width="100%" height="30px" preserveAspectRatio="xMaxYMin meet">
         <g id="arrow_out" transform="scale(0.3 0.3)">
          <a xlink:href="_i_plug_v_s_t3_8h__incl_org.svg" target="_base">
           <rect id="button" ry="5" rx="5" y="6" x="6" height="38" width="38"
                fill="#f2f5e9" fill-opacity="0.5" stroke="#606060" stroke-width="1.0"/>
           <path id="arrow"
             d="M 11.500037,31.436501 C 11.940474,20.09759 22.043105,11.32322 32.158766,21.979434 L 37.068811,17.246167 C 37.068811,17.246167 37.088388,32 37.088388,32 L 22.160133,31.978069 C 22.160133,31.978069 26.997745,27.140456 26.997745,27.140456 C 18.528582,18.264221 13.291696,25.230495 11.500037,31.436501 z"
             style="fill:#404040;"/>
          </a>
         </g>
        </svg>
</svg>
