<?xml version="1.0" encoding="UTF-8" standalone="no"?>
<!DOCTYPE svg PUBLIC "-//W3C//DTD SVG 1.1//EN"
 "http://www.w3.org/Graphics/SVG/1.1/DTD/svg11.dtd">
<!-- Generated by graphviz version 2.36.0 (20140111.2315)
 -->
<!-- Title: IPlugPlatform.h Pages: 1 -->
<!--zoomable 196 -->
<svg id="main" version="1.1" xmlns="http://www.w3.org/2000/svg" xmlns:xlink="http://www.w3.org/1999/xlink" xml:space="preserve" onload="init(evt)">
<style type="text/css"><![CDATA[
.edge:hover path { stroke: red; }
.edge:hover polygon { stroke: red; fill: red; }
]]></style>
<script type="text/javascript"><![CDATA[
var edges = document.getElementsByTagName('g');
if (edges && edges.length) {
  for (var i=0;i<edges.length;i++) {
    if (edges[i].id.substr(0,4)=='edge') {
      edges[i].setAttribute('class','edge');
    }
  }
}
]]></script>
        <defs>
                <circle id="rim" cx="0" cy="0" r="7"/>
                <circle id="rim2" cx="0" cy="0" r="3.5"/>
                <g id="zoomPlus">
                        <use xlink:href="#rim" fill="#404040">
                                <set attributeName="fill" to="#808080" begin="zoomplus.mouseover" end="zoomplus.mouseout"/>
                        </use>
                        <path d="M-4,0h8M0,-4v8" fill="none" stroke="white" stroke-width="1.5" pointer-events="none"/>
                </g>
                <g id="zoomMin">
                        <use xlink:href="#rim" fill="#404040">
                                <set attributeName="fill" to="#808080" begin="zoomminus.mouseover" end="zoomminus.mouseout"/>
                        </use>
                        <path d="M-4,0h8" fill="none" stroke="white" stroke-width="1.5" pointer-events="none"/>
                </g>
                <g id="dirArrow">
                        <path fill="none" stroke="white" stroke-width="1.5" d="M0,-3.0v7 M-2.5,-0.5L0,-3.0L2.5,-0.5"/>
                </g>
               <g id="resetDef">
                       <use xlink:href="#rim2" fill="#404040">
                               <set attributeName="fill" to="#808080" begin="reset.mouseover" end="reset.mouseout"/>
                       </use>
               </g>
        </defs>

<script type="text/javascript">
var viewWidth = 727;
var viewHeight = 196;
var sectionId = 'dynsection-0';
</script>
<script xlink:href="svgpan.js"/>
<svg id="graph" class="graph">
<g id="viewport">
<title>IPlugPlatform.h</title>
<polygon fill="white" stroke="none" points="-4,4 -4,-192 723,-192 723,4 -4,4"/>
<!-- Node1 -->
<g id="node1" class="node"><title>Node1</title>
<polygon fill="#bfbfbf" stroke="black" points="255,-168.5 255,-187.5 339,-187.5 339,-168.5 255,-168.5"/>
<text text-anchor="middle" x="297" y="-175.5" font-family="Helvetica,sans-Serif" font-size="10.00">IPlugPlatform.h</text>
</g>
<!-- Node2 -->
<g id="node2" class="node"><title>Node2</title>
<polygon fill="white" stroke="#bfbfbf" points="673,-0.5 673,-19.5 719,-19.5 719,-0.5 673,-0.5"/>
<text text-anchor="middle" x="696" y="-7.5" font-family="Helvetica,sans-Serif" font-size="10.00">cstring</text>
</g>
<!-- Node1&#45;&gt;Node2 -->
<g id="edge1" class="edge"><title>Node1&#45;&gt;Node2</title>
<path fill="none" stroke="midnightblue" d="M339.274,-172.749C432.72,-162.389 652.053,-132.457 696,-76 706.064,-63.0712 704.713,-43.9002 701.657,-29.726"/>
<polygon fill="midnightblue" stroke="midnightblue" points="704.938,-28.4369 699.027,-19.6444 698.165,-30.2041 704.938,-28.4369"/>
</g>
<!-- Node3 -->
<g id="node3" class="node"><title>Node3</title>
<polygon fill="white" stroke="#bfbfbf" points="-0.5,-0.5 -0.5,-19.5 44.5,-19.5 44.5,-0.5 -0.5,-0.5"/>
<text text-anchor="middle" x="22" y="-7.5" font-family="Helvetica,sans-Serif" font-size="10.00">cstdlib</text>
</g>
<!-- Node1&#45;&gt;Node3 -->
<g id="edge2" class="edge"><title>Node1&#45;&gt;Node3</title>
<path fill="none" stroke="midnightblue" d="M269.55,-168.438C226.186,-154.041 140.452,-121.98 79,-76 60.8612,-62.4279 44.2969,-42.2642 33.7559,-27.9998"/>
<polygon fill="midnightblue" stroke="midnightblue" points="36.4119,-25.6973 27.7429,-19.6064 30.7215,-29.774 36.4119,-25.6973"/>
</g>
<!-- Node4 -->
<g id="node4" class="node"><title>Node4</title>
<g id="a_node4"><a xlink:href="_i_plug_logger_8h.html" target="_top" xlink:title="IPlug logging a.k.a tracing functionailty. ">
<polygon fill="white" stroke="black" points="345.5,-112.5 345.5,-131.5 422.5,-131.5 422.5,-112.5 345.5,-112.5"/>
<text text-anchor="middle" x="384" y="-119.5" font-family="Helvetica,sans-Serif" font-size="10.00">IPlugLogger.h</text>
</a>
</g>
</g>
<!-- Node1&#45;&gt;Node4 -->
<g id="edge3" class="edge"><title>Node1&#45;&gt;Node4</title>
<path fill="none" stroke="midnightblue" d="M310.978,-168.324C324.55,-159.9 345.38,-146.971 361.325,-137.074"/>
<polygon fill="midnightblue" stroke="midnightblue" points="363.406,-139.902 370.057,-131.655 359.714,-133.954 363.406,-139.902"/>
</g>
<!-- Node4&#45;&gt;Node2 -->
<g id="edge8" class="edge"><title>Node4&#45;&gt;Node2</title>
<path fill="none" stroke="midnightblue" d="M422.639,-120.005C493.121,-117.41 638.741,-108.194 676,-76 689.242,-64.5585 693.854,-44.5766 695.391,-29.7792"/>
<polygon fill="midnightblue" stroke="midnightblue" points="698.89,-29.911 696.059,-19.7014 691.905,-29.4481 698.89,-29.911"/>
</g>
<!-- Node5 -->
<g id="node5" class="node"><title>Node5</title>
<polygon fill="white" stroke="#bfbfbf" points="62.5,-0.5 62.5,-19.5 105.5,-19.5 105.5,-0.5 62.5,-0.5"/>
<text text-anchor="middle" x="84" y="-7.5" font-family="Helvetica,sans-Serif" font-size="10.00">cstdio</text>
</g>
<!-- Node4&#45;&gt;Node5 -->
<g id="edge4" class="edge"><title>Node4&#45;&gt;Node5</title>
<path fill="none" stroke="midnightblue" d="M345.36,-120.608C274.159,-119.024 126.374,-111.437 92,-76 80.2664,-63.9036 79.4381,-44.0252 80.8205,-29.431"/>
<polygon fill="midnightblue" stroke="midnightblue" points="84.2893,-29.8967 82.1646,-19.5171 77.3528,-28.9562 84.2893,-29.8967"/>
</g>
<!-- Node6 -->
<g id="node6" class="node"><title>Node6</title>
<polygon fill="white" stroke="#bfbfbf" points="315,-0.5 315,-19.5 361,-19.5 361,-0.5 315,-0.5"/>
<text text-anchor="middle" x="338" y="-7.5" font-family="Helvetica,sans-Serif" font-size="10.00">cctype</text>
</g>
<!-- Node4&#45;&gt;Node6 -->
<g id="edge5" class="edge"><title>Node4&#45;&gt;Node6</title>
<path fill="none" stroke="midnightblue" d="M422.614,-117.874C476.664,-112.004 564.889,-96.0865 533,-56 513.16,-31.0599 421.618,-18.7557 371.326,-13.7848"/>
<polygon fill="midnightblue" stroke="midnightblue" points="371.546,-10.2901 361.261,-12.8334 370.887,-17.259 371.546,-10.2901"/>
</g>
<!-- Node7 -->
<g id="node7" class="node"><title>Node7</title>
<polygon fill="white" stroke="#bfbfbf" points="618.5,-56.5 618.5,-75.5 667.5,-75.5 667.5,-56.5 618.5,-56.5"/>
<text text-anchor="middle" x="643" y="-63.5" font-family="Helvetica,sans-Serif" font-size="10.00">cstdarg</text>
</g>
<!-- Node4&#45;&gt;Node7 -->
<g id="edge6" class="edge"><title>Node4&#45;&gt;Node7</title>
<path fill="none" stroke="midnightblue" d="M422.611,-113.406C466.59,-104.687 540.574,-89.8029 604,-76 605.443,-75.686 606.915,-75.3621 608.401,-75.0322"/>
<polygon fill="midnightblue" stroke="midnightblue" points="609.279,-78.4222 618.263,-72.8067 607.738,-71.5939 609.279,-78.4222"/>
</g>
<!-- Node8 -->
<g id="node8" class="node"><title>Node8</title>
<polygon fill="white" stroke="#bfbfbf" points="199,-56.5 199,-75.5 245,-75.5 245,-56.5 199,-56.5"/>
<text text-anchor="middle" x="222" y="-63.5" font-family="Helvetica,sans-Serif" font-size="10.00">cstdint</text>
</g>
<!-- Node4&#45;&gt;Node8 -->
<g id="edge7" class="edge"><title>Node4&#45;&gt;Node8</title>
<path fill="none" stroke="midnightblue" d="M358.331,-112.444C330.356,-103.119 285.515,-88.1716 254.957,-77.9858"/>
<polygon fill="midnightblue" stroke="midnightblue" points="255.781,-74.571 245.187,-74.729 253.567,-81.2118 255.781,-74.571"/>
</g>
<!-- Node9 -->
<g id="node9" class="node"><title>Node9</title>
<polygon fill="white" stroke="#bfbfbf" points="263.5,-56.5 263.5,-75.5 304.5,-75.5 304.5,-56.5 263.5,-56.5"/>
<text text-anchor="middle" x="284" y="-63.5" font-family="Helvetica,sans-Serif" font-size="10.00">ctime</text>
</g>
<!-- Node4&#45;&gt;Node9 -->
<g id="edge9" class="edge"><title>Node4&#45;&gt;Node9</title>
<path fill="none" stroke="midnightblue" d="M367.933,-112.324C352.042,-103.743 327.493,-90.486 309.042,-80.5224"/>
<polygon fill="midnightblue" stroke="midnightblue" points="310.489,-77.3264 300.027,-75.6545 307.163,-83.4857 310.489,-77.3264"/>
</g>
<!-- Node10 -->
<g id="node10" class="node"><title>Node10</title>
<polygon fill="white" stroke="#bfbfbf" points="322.5,-56.5 322.5,-75.5 371.5,-75.5 371.5,-56.5 322.5,-56.5"/>
<text text-anchor="middle" x="347" y="-63.5" font-family="Helvetica,sans-Serif" font-size="10.00">cassert</text>
</g>
<!-- Node4&#45;&gt;Node10 -->
<g id="edge10" class="edge"><title>Node4&#45;&gt;Node10</title>
<path fill="none" stroke="midnightblue" d="M377.89,-112.083C372.718,-104.534 365.154,-93.4948 358.806,-84.2298"/>
<polygon fill="midnightblue" stroke="midnightblue" points="361.536,-82.0221 352.996,-75.7511 355.761,-85.9787 361.536,-82.0221"/>
</g>
<!-- Node11 -->
<g id="node11" class="node"><title>Node11</title>
<polygon fill="white" stroke="#bfbfbf" points="390,-56.5 390,-75.5 454,-75.5 454,-56.5 390,-56.5"/>
<text text-anchor="middle" x="422" y="-63.5" font-family="Helvetica,sans-Serif" font-size="10.00">wdlstring.h</text>
</g>
<!-- Node4&#45;&gt;Node11 -->
<g id="edge11" class="edge"><title>Node4&#45;&gt;Node11</title>
<path fill="none" stroke="midnightblue" d="M390.275,-112.083C395.642,-104.455 403.518,-93.2645 410.079,-83.9408"/>
<polygon fill="midnightblue" stroke="midnightblue" points="412.949,-85.9434 415.842,-75.7511 407.225,-81.9149 412.949,-85.9434"/>
</g>
<!-- Node12 -->
<g id="node12" class="node"><title>Node12</title>
<polygon fill="white" stroke="#bfbfbf" points="472,-56.5 472,-75.5 524,-75.5 524,-56.5 472,-56.5"/>
<text text-anchor="middle" x="498" y="-63.5" font-family="Helvetica,sans-Serif" font-size="10.00">mutex.h</text>
</g>
<!-- Node4&#45;&gt;Node12 -->
<g id="edge12" class="edge"><title>Node4&#45;&gt;Node12</title>
<path fill="none" stroke="midnightblue" d="M402.064,-112.444C420.575,-103.675 449.581,-89.9355 470.855,-79.8579"/>
<polygon fill="midnightblue" stroke="midnightblue" points="472.482,-82.9604 480.021,-75.5164 469.485,-76.6343 472.482,-82.9604"/>
</g>
<!-- Node13 -->
<g id="node13" class="node"><title>Node13</title>
<g id="a_node13"><a xlink:href="_i_plug_constants_8h.html" target="_top" xlink:title="Constant definitions, Types, magic numbers. ">
<polygon fill="white" stroke="black" points="434,-0.5 434,-19.5 526,-19.5 526,-0.5 434,-0.5"/>
<text text-anchor="middle" x="480" y="-7.5" font-family="Helvetica,sans-Serif" font-size="10.00">IPlugConstants.h</text>
</a>
</g>
</g>
<!-- Node4&#45;&gt;Node13 -->
<g id="edge13" class="edge"><title>Node4&#45;&gt;Node13</title>
<path fill="none" stroke="midnightblue" d="M422.622,-116.036C466.927,-109.456 535.477,-96.2598 551,-76 566.751,-55.4426 537.415,-35.955 511.806,-23.7751"/>
<polygon fill="midnightblue" stroke="midnightblue" points="513.185,-20.5574 502.631,-19.63 510.303,-26.9366 513.185,-20.5574"/>
</g>
<!-- Node14 -->
<g id="node14" class="node"><title>Node14</title>
<g id="a_node14"><a xlink:href="_i_plug_utilities_8h.html" target="_top" xlink:title="Utility functions and macros. ">
<polygon fill="white" stroke="black" points="101,-56.5 101,-75.5 181,-75.5 181,-56.5 101,-56.5"/>
<text text-anchor="middle" x="141" y="-63.5" font-family="Helvetica,sans-Serif" font-size="10.00">IPlugUtilities.h</text>
</a>
</g>
</g>
<!-- Node4&#45;&gt;Node14 -->
<g id="edge14" class="edge"><title>Node4&#45;&gt;Node14</title>
<path fill="none" stroke="midnightblue" d="M345.496,-112.444C303.194,-103.043 235.181,-87.9291 189.327,-77.7393"/>
<polygon fill="midnightblue" stroke="midnightblue" points="189.845,-74.2692 179.324,-75.5164 188.327,-81.1025 189.845,-74.2692"/>
</g>
<!-- Node14&#45;&gt;Node1 -->
<g id="edge22" class="edge"><title>Node14&#45;&gt;Node1</title>
<path fill="none" stroke="midnightblue" d="M153.184,-75.5914C179.787,-94.3501 243.324,-139.151 276.319,-162.417"/>
<polygon fill="midnightblue" stroke="midnightblue" points="274.569,-165.466 284.759,-168.368 278.603,-159.745 274.569,-165.466"/>
</g>
<!-- Node14&#45;&gt;Node2 -->
<g id="edge19" class="edge"><title>Node14&#45;&gt;Node2</title>
<path fill="none" stroke="midnightblue" d="M181.063,-57.3282C184.082,-56.8461 187.086,-56.3963 190,-56 367.514,-31.8575 581.902,-17.6958 662.883,-12.8761"/>
<polygon fill="midnightblue" stroke="midnightblue" points="663.191,-16.3641 672.968,-12.2833 662.78,-9.37615 663.191,-16.3641"/>
</g>
<!-- Node14&#45;&gt;Node3 -->
<g id="edge18" class="edge"><title>Node14&#45;&gt;Node3</title>
<path fill="none" stroke="midnightblue" d="M122.144,-56.4435C102.734,-47.6356 72.2699,-33.8116 50.0355,-23.722"/>
<polygon fill="midnightblue" stroke="midnightblue" points="51.3203,-20.4615 40.7677,-19.5164 48.4277,-26.836 51.3203,-20.4615"/>
</g>
<!-- Node14&#45;&gt;Node5 -->
<g id="edge17" class="edge"><title>Node14&#45;&gt;Node5</title>
<path fill="none" stroke="midnightblue" d="M131.842,-56.324C123.499,-48.4196 110.968,-36.5482 100.823,-26.9377"/>
<polygon fill="midnightblue" stroke="midnightblue" points="102.991,-24.1705 93.3247,-19.8339 98.1771,-29.2522 102.991,-24.1705"/>
</g>
<!-- Node14&#45;&gt;Node6 -->
<g id="edge20" class="edge"><title>Node14&#45;&gt;Node6</title>
<path fill="none" stroke="midnightblue" d="M172.215,-56.4435C208.511,-46.4943 268.156,-30.145 305.141,-20.0072"/>
<polygon fill="midnightblue" stroke="midnightblue" points="306.214,-23.3421 314.933,-17.323 304.363,-16.5912 306.214,-23.3421"/>
</g>
<!-- Node14&#45;&gt;Node13 -->
<g id="edge21" class="edge"><title>Node14&#45;&gt;Node13</title>
<path fill="none" stroke="midnightblue" d="M181.095,-57.5421C184.107,-57.0106 187.101,-56.4911 190,-56 271.153,-42.2535 365.369,-27.9362 423.844,-19.2428"/>
<polygon fill="midnightblue" stroke="midnightblue" points="424.601,-22.6688 433.979,-17.7391 423.574,-15.7446 424.601,-22.6688"/>
</g>
<!-- Node15 -->
<g id="node15" class="node"><title>Node15</title>
<polygon fill="white" stroke="#bfbfbf" points="186,-0.5 186,-19.5 242,-19.5 242,-0.5 186,-0.5"/>
<text text-anchor="middle" x="214" y="-7.5" font-family="Helvetica,sans-Serif" font-size="10.00">algorithm</text>
</g>
<!-- Node14&#45;&gt;Node15 -->
<g id="edge15" class="edge"><title>Node14&#45;&gt;Node15</title>
<path fill="none" stroke="midnightblue" d="M152.729,-56.324C163.837,-48.1066 180.742,-35.6017 193.983,-25.8069"/>
<polygon fill="midnightblue" stroke="midnightblue" points="196.1,-28.5948 202.058,-19.8339 191.937,-22.9671 196.1,-28.5948"/>
</g>
<!-- Node16 -->
<g id="node16" class="node"><title>Node16</title>
<polygon fill="white" stroke="#bfbfbf" points="124,-0.5 124,-19.5 168,-19.5 168,-0.5 124,-0.5"/>
<text text-anchor="middle" x="146" y="-7.5" font-family="Helvetica,sans-Serif" font-size="10.00">cmath</text>
</g>
<!-- Node14&#45;&gt;Node16 -->
<g id="edge16" class="edge"><title>Node14&#45;&gt;Node16</title>
<path fill="none" stroke="midnightblue" d="M141.826,-56.083C142.481,-49.0059 143.42,-38.8611 144.242,-29.9865"/>
<polygon fill="midnightblue" stroke="midnightblue" points="147.753,-30.0312 145.19,-19.7511 140.783,-29.3858 147.753,-30.0312"/>
</g>
</g>
</svg>
        <g id="navigator" transform="translate(0 0)" fill="#404254">
                <rect fill="#f2f5e9" fill-opacity="0.5" stroke="#606060" stroke-width=".5" x="0" y="0" width="60" height="60"/>
                <use id="zoomplus" xlink:href="#zoomPlus" x="17" y="9" onmousedown="handleZoom(evt,'in')"/>
                <use id="zoomminus" xlink:href="#zoomMin" x="42" y="9" onmousedown="handleZoom(evt,'out')"/>
                <use id="reset" xlink:href="#resetDef" x="30" y="36" onmousedown="handleReset()"/>
                <g id="arrowUp" xlink:href="#dirArrow" transform="translate(30 24)" onmousedown="handlePan(0,-1)">
                  <use xlink:href="#rim" fill="#404040">
                        <set attributeName="fill" to="#808080" begin="arrowUp.mouseover" end="arrowUp.mouseout"/>
                  </use>
                  <path fill="none" stroke="white" stroke-width="1.5" d="M0,-3.0v7 M-2.5,-0.5L0,-3.0L2.5,-0.5"/>
                </g>
                <g id="arrowRight" xlink:href="#dirArrow" transform="rotate(90) translate(36 -43)" onmousedown="handlePan(1,0)">
                  <use xlink:href="#rim" fill="#404040">
                        <set attributeName="fill" to="#808080" begin="arrowRight.mouseover" end="arrowRight.mouseout"/>
                  </use>
                  <path fill="none" stroke="white" stroke-width="1.5" d="M0,-3.0v7 M-2.5,-0.5L0,-3.0L2.5,-0.5"/>
                </g>
                <g id="arrowDown" xlink:href="#dirArrow" transform="rotate(180) translate(-30 -48)" onmousedown="handlePan(0,1)">
                  <use xlink:href="#rim" fill="#404040">
                        <set attributeName="fill" to="#808080" begin="arrowDown.mouseover" end="arrowDown.mouseout"/>
                  </use>
                  <path fill="none" stroke="white" stroke-width="1.5" d="M0,-3.0v7 M-2.5,-0.5L0,-3.0L2.5,-0.5"/>
                </g>
                <g id="arrowLeft" xlink:href="#dirArrow" transform="rotate(270) translate(-36 17)" onmousedown="handlePan(-1,0)">
                  <use xlink:href="#rim" fill="#404040">
                        <set attributeName="fill" to="#808080" begin="arrowLeft.mouseover" end="arrowLeft.mouseout"/>
                  </use>
                  <path fill="none" stroke="white" stroke-width="1.5" d="M0,-3.0v7 M-2.5,-0.5L0,-3.0L2.5,-0.5"/>
                </g>
        </g>
        <svg viewBox="0 0 15 15" width="100%" height="30px" preserveAspectRatio="xMaxYMin meet">
         <g id="arrow_out" transform="scale(0.3 0.3)">
          <a xlink:href="_i_plug_platform_8h__incl_org.svg" target="_base">
           <rect id="button" ry="5" rx="5" y="6" x="6" height="38" width="38"
                fill="#f2f5e9" fill-opacity="0.5" stroke="#606060" stroke-width="1.0"/>
           <path id="arrow"
             d="M 11.500037,31.436501 C 11.940474,20.09759 22.043105,11.32322 32.158766,21.979434 L 37.068811,17.246167 C 37.068811,17.246167 37.088388,32 37.088388,32 L 22.160133,31.978069 C 22.160133,31.978069 26.997745,27.140456 26.997745,27.140456 C 18.528582,18.264221 13.291696,25.230495 11.500037,31.436501 z"
             style="fill:#404040;"/>
          </a>
         </g>
        </svg>
</svg>
