<?xml version="1.0" encoding="UTF-8" standalone="no"?>
<!DOCTYPE svg PUBLIC "-//W3C//DTD SVG 1.1//EN"
 "http://www.w3.org/Graphics/SVG/1.1/DTD/svg11.dtd">
<!-- Generated by graphviz version 2.36.0 (20140111.2315)
 -->
<!-- Title: IPlugProcessor.h Pages: 1 -->
<svg width="1265pt" height="308pt"
 viewBox="0.00 0.00 1264.85 308.00" xmlns="http://www.w3.org/2000/svg" xmlns:xlink="http://www.w3.org/1999/xlink">
<g id="graph0" class="graph" transform="scale(1 1) rotate(0) translate(4 304)">
<title>IPlugProcessor.h</title>
<polygon fill="white" stroke="none" points="-4,4 -4,-304 1260.85,-304 1260.85,4 -4,4"/>
<!-- Node1 -->
<g id="node1" class="node"><title>Node1</title>
<polygon fill="#bfbfbf" stroke="black" points="785.847,-280.5 785.847,-299.5 877.847,-299.5 877.847,-280.5 785.847,-280.5"/>
<text text-anchor="middle" x="831.847" y="-287.5" font-family="Helvetica,sans-Serif" font-size="10.00">IPlugProcessor.h</text>
</g>
<!-- Node2 -->
<g id="node2" class="node"><title>Node2</title>
<polygon fill="white" stroke="#bfbfbf" points="247.847,-0.5 247.847,-19.5 293.847,-19.5 293.847,-0.5 247.847,-0.5"/>
<text text-anchor="middle" x="270.847" y="-7.5" font-family="Helvetica,sans-Serif" font-size="10.00">cstring</text>
</g>
<!-- Node1&#45;&gt;Node2 -->
<g id="edge1" class="edge"><title>Node1&#45;&gt;Node2</title>
<path fill="none" stroke="midnightblue" d="M785.688,-287.791C611.08,-282.614 0.847456,-258.814 0.847456,-179 0.847456,-179 0.847456,-179 0.847456,-121 0.847456,-90.9022 -2.54237,-76.114 19.8475,-56 51.4592,-27.6014 176.809,-16.4893 237.532,-12.7073"/>
<polygon fill="midnightblue" stroke="midnightblue" points="237.961,-16.1882 247.736,-12.1032 237.547,-9.20042 237.961,-16.1882"/>
</g>
<!-- Node3 -->
<g id="node3" class="node"><title>Node3</title>
<polygon fill="white" stroke="#bfbfbf" points="997.847,-56.5 997.847,-75.5 1043.85,-75.5 1043.85,-56.5 997.847,-56.5"/>
<text text-anchor="middle" x="1020.85" y="-63.5" font-family="Helvetica,sans-Serif" font-size="10.00">cstdint</text>
</g>
<!-- Node1&#45;&gt;Node3 -->
<g id="edge2" class="edge"><title>Node1&#45;&gt;Node3</title>
<path fill="none" stroke="midnightblue" d="M877.906,-284.912C934.143,-277.063 1026.17,-254.23 1061.85,-188 1080.69,-153.024 1053.09,-107.756 1034.82,-83.7213"/>
<polygon fill="midnightblue" stroke="midnightblue" points="1037.34,-81.2736 1028.39,-75.615 1031.86,-85.6243 1037.34,-81.2736"/>
</g>
<!-- Node4 -->
<g id="node4" class="node"><title>Node4</title>
<polygon fill="white" stroke="#bfbfbf" points="1004.35,-168.5 1004.35,-187.5 1053.35,-187.5 1053.35,-168.5 1004.35,-168.5"/>
<text text-anchor="middle" x="1028.85" y="-175.5" font-family="Helvetica,sans-Serif" font-size="10.00">ptrlist.h</text>
</g>
<!-- Node1&#45;&gt;Node4 -->
<g id="edge3" class="edge"><title>Node1&#45;&gt;Node4</title>
<path fill="none" stroke="midnightblue" d="M861.09,-280.415C885.245,-272.686 919.967,-260.08 947.847,-244 972.096,-230.015 996.723,-209.087 1012.35,-194.78"/>
<polygon fill="midnightblue" stroke="midnightblue" points="1015.12,-196.98 1020.05,-187.599 1010.35,-191.861 1015.12,-196.98"/>
</g>
<!-- Node5 -->
<g id="node5" class="node"><title>Node5</title>
<g id="a_node5"><a xlink:href="_i_plug_platform_8h.html" target="_top" xlink:title="Include to get consistently named preprocessor macros for different platforms and logging functionali...">
<polygon fill="white" stroke="black" points="661.847,-168.5 661.847,-187.5 745.847,-187.5 745.847,-168.5 661.847,-168.5"/>
<text text-anchor="middle" x="703.847" y="-175.5" font-family="Helvetica,sans-Serif" font-size="10.00">IPlugPlatform.h</text>
</a>
</g>
</g>
<!-- Node1&#45;&gt;Node5 -->
<g id="edge4" class="edge"><title>Node1&#45;&gt;Node5</title>
<path fill="none" stroke="midnightblue" d="M815.166,-280.461C799.925,-272.236 777.188,-258.878 759.847,-244 742.97,-229.519 726.732,-209.821 716.128,-195.917"/>
<polygon fill="midnightblue" stroke="midnightblue" points="718.806,-193.653 710.023,-187.729 713.194,-197.838 718.806,-193.653"/>
</g>
<!-- Node15 -->
<g id="node15" class="node"><title>Node15</title>
<g id="a_node15"><a xlink:href="_i_plug_constants_8h.html" target="_top" xlink:title="Constant definitions, Types, magic numbers. ">
<polygon fill="white" stroke="black" points="1025.85,-0.5 1025.85,-19.5 1117.85,-19.5 1117.85,-0.5 1025.85,-0.5"/>
<text text-anchor="middle" x="1071.85" y="-7.5" font-family="Helvetica,sans-Serif" font-size="10.00">IPlugConstants.h</text>
</a>
</g>
</g>
<!-- Node1&#45;&gt;Node15 -->
<g id="edge27" class="edge"><title>Node1&#45;&gt;Node15</title>
<path fill="none" stroke="midnightblue" d="M878.135,-282.735C965.907,-269.552 1147.85,-235.42 1147.85,-179 1147.85,-179 1147.85,-179 1147.85,-121 1147.85,-81.2757 1113.88,-45.5045 1091.37,-26.1536"/>
<polygon fill="midnightblue" stroke="midnightblue" points="1093.33,-23.2364 1083.39,-19.5672 1088.87,-28.6337 1093.33,-23.2364"/>
</g>
<!-- Node16 -->
<g id="node16" class="node"><title>Node16</title>
<g id="a_node16"><a xlink:href="_i_plug_utilities_8h.html" target="_top" xlink:title="Utility functions and macros. ">
<polygon fill="white" stroke="black" points="703.847,-56.5 703.847,-75.5 783.847,-75.5 783.847,-56.5 703.847,-56.5"/>
<text text-anchor="middle" x="743.847" y="-63.5" font-family="Helvetica,sans-Serif" font-size="10.00">IPlugUtilities.h</text>
</a>
</g>
</g>
<!-- Node1&#45;&gt;Node16 -->
<g id="edge39" class="edge"><title>Node1&#45;&gt;Node16</title>
<path fill="none" stroke="midnightblue" d="M828.398,-280.297C815.395,-247.494 769.171,-130.884 751.132,-85.3774"/>
<polygon fill="midnightblue" stroke="midnightblue" points="754.308,-83.8902 747.369,-75.8837 747.8,-86.4698 754.308,-83.8902"/>
</g>
<!-- Node19 -->
<g id="node19" class="node"><title>Node19</title>
<g id="a_node19"><a xlink:href="_i_plug_structs_8h_source.html" target="_top" xlink:title="IPlugStructs.h">
<polygon fill="white" stroke="black" points="860.347,-224.5 860.347,-243.5 939.347,-243.5 939.347,-224.5 860.347,-224.5"/>
<text text-anchor="middle" x="899.847" y="-231.5" font-family="Helvetica,sans-Serif" font-size="10.00">IPlugStructs.h</text>
</a>
</g>
</g>
<!-- Node1&#45;&gt;Node19 -->
<g id="edge28" class="edge"><title>Node1&#45;&gt;Node19</title>
<path fill="none" stroke="midnightblue" d="M842.773,-280.324C853.022,-272.185 868.568,-259.839 880.848,-250.087"/>
<polygon fill="midnightblue" stroke="midnightblue" points="883.069,-252.794 888.723,-243.834 878.716,-247.312 883.069,-252.794"/>
</g>
<!-- Node21 -->
<g id="node21" class="node"><title>Node21</title>
<g id="a_node21"><a xlink:href="_n_chan_delay_8h_source.html" target="_top" xlink:title="NChanDelay.h">
<polygon fill="white" stroke="black" points="1176.35,-224.5 1176.35,-243.5 1257.35,-243.5 1257.35,-224.5 1176.35,-224.5"/>
<text text-anchor="middle" x="1216.85" y="-231.5" font-family="Helvetica,sans-Serif" font-size="10.00">NChanDelay.h</text>
</a>
</g>
</g>
<!-- Node1&#45;&gt;Node21 -->
<g id="edge40" class="edge"><title>Node1&#45;&gt;Node21</title>
<path fill="none" stroke="midnightblue" d="M878.085,-283.09C941.962,-274.836 1060.78,-259.158 1161.85,-244 1163.31,-243.78 1164.8,-243.555 1166.3,-243.325"/>
<polygon fill="midnightblue" stroke="midnightblue" points="1166.98,-246.761 1176.32,-241.758 1165.9,-239.845 1166.98,-246.761"/>
</g>
<!-- Node22 -->
<g id="node22" class="node"><title>Node22</title>
<g id="a_node22"><a xlink:href="_i_plug_processor_8cpp_source.html" target="_top" xlink:title="IPlugProcessor.cpp">
<polygon fill="white" stroke="black" points="145.847,-112.5 145.847,-131.5 247.847,-131.5 247.847,-112.5 145.847,-112.5"/>
<text text-anchor="middle" x="196.847" y="-119.5" font-family="Helvetica,sans-Serif" font-size="10.00">IPlugProcessor.cpp</text>
</a>
</g>
</g>
<!-- Node1&#45;&gt;Node22 -->
<g id="edge41" class="edge"><title>Node1&#45;&gt;Node22</title>
<path fill="none" stroke="midnightblue" d="M795.838,-280.425C685.12,-252.681 350.941,-165.355 236.049,-134.189"/>
<polygon fill="midnightblue" stroke="midnightblue" points="236.825,-130.773 226.257,-131.524 234.987,-137.528 236.825,-130.773"/>
</g>
<!-- Node5&#45;&gt;Node2 -->
<g id="edge5" class="edge"><title>Node5&#45;&gt;Node2</title>
<path fill="none" stroke="midnightblue" d="M661.692,-175.447C585.894,-170.747 424.393,-151.857 315.847,-76 298.846,-64.1183 286.235,-43.6129 278.756,-28.8062"/>
<polygon fill="midnightblue" stroke="midnightblue" points="281.857,-27.1758 274.408,-19.6419 275.533,-30.1768 281.857,-27.1758"/>
</g>
<!-- Node6 -->
<g id="node6" class="node"><title>Node6</title>
<polygon fill="white" stroke="#bfbfbf" points="730.347,-0.5 730.347,-19.5 775.347,-19.5 775.347,-0.5 730.347,-0.5"/>
<text text-anchor="middle" x="752.847" y="-7.5" font-family="Helvetica,sans-Serif" font-size="10.00">cstdlib</text>
</g>
<!-- Node5&#45;&gt;Node6 -->
<g id="edge6" class="edge"><title>Node5&#45;&gt;Node6</title>
<path fill="none" stroke="midnightblue" d="M715.738,-168.358C736.167,-152.68 777.239,-117.322 792.847,-76 799.736,-57.7632 785.495,-39.0193 772.136,-26.3746"/>
<polygon fill="midnightblue" stroke="midnightblue" points="774.357,-23.6665 764.539,-19.6843 769.731,-28.9199 774.357,-23.6665"/>
</g>
<!-- Node7 -->
<g id="node7" class="node"><title>Node7</title>
<g id="a_node7"><a xlink:href="_i_plug_logger_8h.html" target="_top" xlink:title="IPlug logging a.k.a tracing functionailty. ">
<polygon fill="white" stroke="black" points="599.347,-112.5 599.347,-131.5 676.347,-131.5 676.347,-112.5 599.347,-112.5"/>
<text text-anchor="middle" x="637.847" y="-119.5" font-family="Helvetica,sans-Serif" font-size="10.00">IPlugLogger.h</text>
</a>
</g>
</g>
<!-- Node5&#45;&gt;Node7 -->
<g id="edge7" class="edge"><title>Node5&#45;&gt;Node7</title>
<path fill="none" stroke="midnightblue" d="M693.243,-168.324C683.391,-160.263 668.497,-148.077 656.632,-138.369"/>
<polygon fill="midnightblue" stroke="midnightblue" points="658.6,-135.457 648.644,-131.834 654.168,-140.875 658.6,-135.457"/>
</g>
<!-- Node7&#45;&gt;Node2 -->
<g id="edge12" class="edge"><title>Node7&#45;&gt;Node2</title>
<path fill="none" stroke="midnightblue" d="M599.033,-114.219C558.017,-106.622 491.672,-93.0994 435.847,-76 386.759,-60.9639 331.614,-37.9377 299.129,-23.7099"/>
<polygon fill="midnightblue" stroke="midnightblue" points="300.369,-20.4313 289.807,-19.5954 297.542,-26.8353 300.369,-20.4313"/>
</g>
<!-- Node7&#45;&gt;Node3 -->
<g id="edge11" class="edge"><title>Node7&#45;&gt;Node3</title>
<path fill="none" stroke="midnightblue" d="M676.586,-117.905C739.82,-112.447 869.243,-99.5864 987.574,-76.0006"/>
<polygon fill="midnightblue" stroke="midnightblue" points="988.419,-79.4006 997.525,-73.9859 987.03,-72.5398 988.419,-79.4006"/>
</g>
<!-- Node8 -->
<g id="node8" class="node"><title>Node8</title>
<polygon fill="white" stroke="#bfbfbf" points="411.347,-0.5 411.347,-19.5 454.347,-19.5 454.347,-0.5 411.347,-0.5"/>
<text text-anchor="middle" x="432.847" y="-7.5" font-family="Helvetica,sans-Serif" font-size="10.00">cstdio</text>
</g>
<!-- Node7&#45;&gt;Node8 -->
<g id="edge8" class="edge"><title>Node7&#45;&gt;Node8</title>
<path fill="none" stroke="midnightblue" d="M599.259,-116.248C551.172,-109.571 472.761,-95.9524 451.847,-76 439.363,-64.0889 434.948,-44.4712 433.454,-29.8982"/>
<polygon fill="midnightblue" stroke="midnightblue" points="436.922,-29.2891 432.783,-19.5361 429.937,-29.7413 436.922,-29.2891"/>
</g>
<!-- Node9 -->
<g id="node9" class="node"><title>Node9</title>
<polygon fill="white" stroke="#bfbfbf" points="658.847,-0.5 658.847,-19.5 704.847,-19.5 704.847,-0.5 658.847,-0.5"/>
<text text-anchor="middle" x="681.847" y="-7.5" font-family="Helvetica,sans-Serif" font-size="10.00">cctype</text>
</g>
<!-- Node7&#45;&gt;Node9 -->
<g id="edge9" class="edge"><title>Node7&#45;&gt;Node9</title>
<path fill="none" stroke="midnightblue" d="M641.3,-112.368C648.465,-94.4563 665.078,-52.9233 674.668,-28.9482"/>
<polygon fill="midnightblue" stroke="midnightblue" points="677.947,-30.1761 678.411,-19.5914 671.447,-27.5763 677.947,-30.1761"/>
</g>
<!-- Node10 -->
<g id="node10" class="node"><title>Node10</title>
<polygon fill="white" stroke="#bfbfbf" points="531.347,-56.5 531.347,-75.5 580.347,-75.5 580.347,-56.5 531.347,-56.5"/>
<text text-anchor="middle" x="555.847" y="-63.5" font-family="Helvetica,sans-Serif" font-size="10.00">cstdarg</text>
</g>
<!-- Node7&#45;&gt;Node10 -->
<g id="edge10" class="edge"><title>Node7&#45;&gt;Node10</title>
<path fill="none" stroke="midnightblue" d="M624.673,-112.324C612.001,-103.979 592.614,-91.2122 577.642,-81.3524"/>
<polygon fill="midnightblue" stroke="midnightblue" points="579.266,-78.2313 568.989,-75.6545 575.416,-84.0776 579.266,-78.2313"/>
</g>
<!-- Node11 -->
<g id="node11" class="node"><title>Node11</title>
<polygon fill="white" stroke="#bfbfbf" points="325.347,-56.5 325.347,-75.5 366.347,-75.5 366.347,-56.5 325.347,-56.5"/>
<text text-anchor="middle" x="345.847" y="-63.5" font-family="Helvetica,sans-Serif" font-size="10.00">ctime</text>
</g>
<!-- Node7&#45;&gt;Node11 -->
<g id="edge13" class="edge"><title>Node7&#45;&gt;Node11</title>
<path fill="none" stroke="midnightblue" d="M598.913,-115.156C548.408,-107.353 457.67,-92.5761 380.847,-76 379.391,-75.6857 377.903,-75.3523 376.403,-75.006"/>
<polygon fill="midnightblue" stroke="midnightblue" points="377.056,-71.5627 366.512,-72.5997 375.401,-78.3644 377.056,-71.5627"/>
</g>
<!-- Node12 -->
<g id="node12" class="node"><title>Node12</title>
<polygon fill="white" stroke="#bfbfbf" points="598.347,-56.5 598.347,-75.5 647.347,-75.5 647.347,-56.5 598.347,-56.5"/>
<text text-anchor="middle" x="622.847" y="-63.5" font-family="Helvetica,sans-Serif" font-size="10.00">cassert</text>
</g>
<!-- Node7&#45;&gt;Node12 -->
<g id="edge14" class="edge"><title>Node7&#45;&gt;Node12</title>
<path fill="none" stroke="midnightblue" d="M635.371,-112.083C633.361,-104.849 630.461,-94.4087 627.958,-85.3968"/>
<polygon fill="midnightblue" stroke="midnightblue" points="631.327,-84.4495 625.278,-75.7511 624.583,-86.323 631.327,-84.4495"/>
</g>
<!-- Node13 -->
<g id="node13" class="node"><title>Node13</title>
<polygon fill="white" stroke="#bfbfbf" points="915.847,-56.5 915.847,-75.5 979.847,-75.5 979.847,-56.5 915.847,-56.5"/>
<text text-anchor="middle" x="947.847" y="-63.5" font-family="Helvetica,sans-Serif" font-size="10.00">wdlstring.h</text>
</g>
<!-- Node7&#45;&gt;Node13 -->
<g id="edge15" class="edge"><title>Node7&#45;&gt;Node13</title>
<path fill="none" stroke="midnightblue" d="M676.374,-114.735C727.833,-106.298 821.812,-90.6486 901.847,-76 903.108,-75.7693 904.388,-75.5328 905.679,-75.2923"/>
<polygon fill="midnightblue" stroke="midnightblue" points="906.522,-78.695 915.696,-73.3942 905.219,-71.8174 906.522,-78.695"/>
</g>
<!-- Node14 -->
<g id="node14" class="node"><title>Node14</title>
<polygon fill="white" stroke="#bfbfbf" points="460.847,-56.5 460.847,-75.5 512.847,-75.5 512.847,-56.5 460.847,-56.5"/>
<text text-anchor="middle" x="486.847" y="-63.5" font-family="Helvetica,sans-Serif" font-size="10.00">mutex.h</text>
</g>
<!-- Node7&#45;&gt;Node14 -->
<g id="edge16" class="edge"><title>Node7&#45;&gt;Node14</title>
<path fill="none" stroke="midnightblue" d="M613.921,-112.444C588.629,-103.399 548.545,-89.064 520.168,-78.9158"/>
<polygon fill="midnightblue" stroke="midnightblue" points="521.257,-75.5882 510.662,-75.5164 518.899,-82.1794 521.257,-75.5882"/>
</g>
<!-- Node7&#45;&gt;Node15 -->
<g id="edge17" class="edge"><title>Node7&#45;&gt;Node15</title>
<path fill="none" stroke="midnightblue" d="M671.542,-112.46C749.417,-92.722 941.822,-43.9557 1028.4,-22.0115"/>
<polygon fill="midnightblue" stroke="midnightblue" points="1029.34,-25.3842 1038.17,-19.5345 1027.62,-18.5988 1029.34,-25.3842"/>
</g>
<!-- Node7&#45;&gt;Node16 -->
<g id="edge18" class="edge"><title>Node7&#45;&gt;Node16</title>
<path fill="none" stroke="midnightblue" d="M654.878,-112.324C671.877,-103.664 698.224,-90.2424 717.84,-80.249"/>
<polygon fill="midnightblue" stroke="midnightblue" points="719.537,-83.3125 726.859,-75.6545 716.36,-77.0752 719.537,-83.3125"/>
</g>
<!-- Node16&#45;&gt;Node2 -->
<g id="edge23" class="edge"><title>Node16&#45;&gt;Node2</title>
<path fill="none" stroke="midnightblue" d="M703.795,-60.8905C601.061,-50.336 334.891,-22.899 315.847,-20 312.082,-19.4267 308.153,-18.7536 304.253,-18.038"/>
<polygon fill="midnightblue" stroke="midnightblue" points="304.613,-14.5429 294.131,-16.0838 303.286,-21.416 304.613,-14.5429"/>
</g>
<!-- Node16&#45;&gt;Node5 -->
<g id="edge26" class="edge"><title>Node16&#45;&gt;Node5</title>
<path fill="none" stroke="midnightblue" d="M740.723,-75.5914C734.252,-93.3881 719.257,-134.625 710.511,-158.674"/>
<polygon fill="midnightblue" stroke="midnightblue" points="707.114,-157.774 706.986,-168.368 713.693,-160.167 707.114,-157.774"/>
</g>
<!-- Node16&#45;&gt;Node6 -->
<g id="edge22" class="edge"><title>Node16&#45;&gt;Node6</title>
<path fill="none" stroke="midnightblue" d="M745.334,-56.083C746.526,-48.9272 748.242,-38.6353 749.732,-29.6911"/>
<polygon fill="midnightblue" stroke="midnightblue" points="753.197,-30.1904 751.389,-19.7511 746.292,-29.0396 753.197,-30.1904"/>
</g>
<!-- Node16&#45;&gt;Node8 -->
<g id="edge21" class="edge"><title>Node16&#45;&gt;Node8</title>
<path fill="none" stroke="midnightblue" d="M703.826,-58.051C641.277,-47.1904 521.619,-26.4137 464.591,-16.5118"/>
<polygon fill="midnightblue" stroke="midnightblue" points="465.151,-13.0567 454.7,-14.7943 463.954,-19.9535 465.151,-13.0567"/>
</g>
<!-- Node16&#45;&gt;Node9 -->
<g id="edge24" class="edge"><title>Node16&#45;&gt;Node9</title>
<path fill="none" stroke="midnightblue" d="M733.886,-56.324C724.721,-48.3414 710.91,-36.3128 699.819,-26.6529"/>
<polygon fill="midnightblue" stroke="midnightblue" points="701.83,-23.7624 691.99,-19.8339 697.232,-29.041 701.83,-23.7624"/>
</g>
<!-- Node16&#45;&gt;Node15 -->
<g id="edge25" class="edge"><title>Node16&#45;&gt;Node15</title>
<path fill="none" stroke="midnightblue" d="M784.067,-58.3785C842.117,-48.8215 949.635,-31.1204 1015.55,-20.2689"/>
<polygon fill="midnightblue" stroke="midnightblue" points="1016.46,-23.6665 1025.75,-18.5885 1015.32,-16.7595 1016.46,-23.6665"/>
</g>
<!-- Node17 -->
<g id="node17" class="node"><title>Node17</title>
<polygon fill="white" stroke="#bfbfbf" points="803.847,-0.5 803.847,-19.5 859.847,-19.5 859.847,-0.5 803.847,-0.5"/>
<text text-anchor="middle" x="831.847" y="-7.5" font-family="Helvetica,sans-Serif" font-size="10.00">algorithm</text>
</g>
<!-- Node16&#45;&gt;Node17 -->
<g id="edge19" class="edge"><title>Node16&#45;&gt;Node17</title>
<path fill="none" stroke="midnightblue" d="M757.986,-56.324C771.714,-47.9002 792.784,-34.9709 808.912,-25.0741"/>
<polygon fill="midnightblue" stroke="midnightblue" points="811.051,-27.8678 817.744,-19.6545 807.39,-21.9016 811.051,-27.8678"/>
</g>
<!-- Node18 -->
<g id="node18" class="node"><title>Node18</title>
<polygon fill="white" stroke="#bfbfbf" points="324.847,-0.5 324.847,-19.5 368.847,-19.5 368.847,-0.5 324.847,-0.5"/>
<text text-anchor="middle" x="346.847" y="-7.5" font-family="Helvetica,sans-Serif" font-size="10.00">cmath</text>
</g>
<!-- Node16&#45;&gt;Node18 -->
<g id="edge20" class="edge"><title>Node16&#45;&gt;Node18</title>
<path fill="none" stroke="midnightblue" d="M703.775,-60.141C639.844,-52.2959 510.859,-36.0868 401.847,-20 394.411,-18.9026 386.423,-17.6425 378.903,-16.4194"/>
<polygon fill="midnightblue" stroke="midnightblue" points="379.47,-12.9657 369.034,-14.7933 378.332,-19.8726 379.47,-12.9657"/>
</g>
<!-- Node19&#45;&gt;Node4 -->
<g id="edge31" class="edge"><title>Node19&#45;&gt;Node4</title>
<path fill="none" stroke="midnightblue" d="M920.288,-224.444C941.518,-215.557 974.946,-201.563 999.102,-191.451"/>
<polygon fill="midnightblue" stroke="midnightblue" points="1000.63,-194.606 1008.5,-187.516 997.927,-188.149 1000.63,-194.606"/>
</g>
<!-- Node19&#45;&gt;Node5 -->
<g id="edge33" class="edge"><title>Node19&#45;&gt;Node5</title>
<path fill="none" stroke="midnightblue" d="M868.791,-224.444C835.244,-215.201 781.651,-200.436 744.707,-190.257"/>
<polygon fill="midnightblue" stroke="midnightblue" points="745.329,-186.798 734.759,-187.516 743.47,-193.547 745.329,-186.798"/>
</g>
<!-- Node19&#45;&gt;Node13 -->
<g id="edge30" class="edge"><title>Node19&#45;&gt;Node13</title>
<path fill="none" stroke="midnightblue" d="M906.117,-224.381C917.88,-207.614 942.884,-168.993 951.847,-132 955.554,-116.703 954.046,-98.8199 951.899,-85.6881"/>
<polygon fill="midnightblue" stroke="midnightblue" points="955.278,-84.7206 949.963,-75.5553 948.402,-86.0345 955.278,-84.7206"/>
</g>
<!-- Node19&#45;&gt;Node15 -->
<g id="edge32" class="edge"><title>Node19&#45;&gt;Node15</title>
<path fill="none" stroke="midnightblue" d="M911.88,-224.164C948.221,-197.182 1055.44,-115.31 1072.85,-76 1079.27,-61.4885 1078.34,-43.3062 1076.19,-29.8647"/>
<polygon fill="midnightblue" stroke="midnightblue" points="1079.59,-29.0152 1074.23,-19.8736 1072.72,-30.3597 1079.59,-29.0152"/>
</g>
<!-- Node19&#45;&gt;Node17 -->
<g id="edge29" class="edge"><title>Node19&#45;&gt;Node17</title>
<path fill="none" stroke="midnightblue" d="M897.19,-224.354C891.827,-206.899 879.324,-166.198 868.847,-132 857.682,-95.5547 844.654,-52.9247 837.418,-29.2381"/>
<polygon fill="midnightblue" stroke="midnightblue" points="840.715,-28.0508 834.446,-19.5095 834.02,-30.0958 840.715,-28.0508"/>
</g>
<!-- Node20 -->
<g id="node20" class="node"><title>Node20</title>
<g id="a_node20"><a xlink:href="_i_plug_midi_8h_source.html" target="_top" xlink:title="IPlugMidi.h">
<polygon fill="white" stroke="black" points="878.347,-112.5 878.347,-131.5 943.347,-131.5 943.347,-112.5 878.347,-112.5"/>
<text text-anchor="middle" x="910.847" y="-119.5" font-family="Helvetica,sans-Serif" font-size="10.00">IPlugMidi.h</text>
</a>
</g>
</g>
<!-- Node19&#45;&gt;Node20 -->
<g id="edge34" class="edge"><title>Node19&#45;&gt;Node20</title>
<path fill="none" stroke="midnightblue" d="M900.711,-224.368C902.486,-206.617 906.581,-165.666 908.988,-141.597"/>
<polygon fill="midnightblue" stroke="midnightblue" points="912.476,-141.89 909.988,-131.591 905.511,-141.193 912.476,-141.89"/>
</g>
<!-- Node20&#45;&gt;Node3 -->
<g id="edge36" class="edge"><title>Node20&#45;&gt;Node3</title>
<path fill="none" stroke="midnightblue" d="M928.521,-112.324C946.242,-103.625 973.751,-90.1202 994.136,-80.113"/>
<polygon fill="midnightblue" stroke="midnightblue" points="995.784,-83.2031 1003.22,-75.6545 992.699,-76.9195 995.784,-83.2031"/>
</g>
<!-- Node20&#45;&gt;Node12 -->
<g id="edge35" class="edge"><title>Node20&#45;&gt;Node12</title>
<path fill="none" stroke="midnightblue" d="M878.091,-114.858C823.381,-104.6 713.897,-84.0719 657.776,-73.5491"/>
<polygon fill="midnightblue" stroke="midnightblue" points="658.093,-70.0475 647.619,-71.6446 656.802,-76.9276 658.093,-70.0475"/>
</g>
<!-- Node20&#45;&gt;Node15 -->
<g id="edge37" class="edge"><title>Node20&#45;&gt;Node15</title>
<path fill="none" stroke="midnightblue" d="M943.573,-119.243C975.683,-115.767 1023.92,-105.586 1052.85,-76 1064.78,-63.7949 1069.29,-44.5268 1070.96,-30.1328"/>
<polygon fill="midnightblue" stroke="midnightblue" points="1074.47,-30.1078 1071.77,-19.8621 1067.49,-29.5536 1074.47,-30.1078"/>
</g>
<!-- Node20&#45;&gt;Node16 -->
<g id="edge38" class="edge"><title>Node20&#45;&gt;Node16</title>
<path fill="none" stroke="midnightblue" d="M884.386,-112.444C856.169,-103.32 811.307,-88.8133 779.879,-78.6509"/>
<polygon fill="midnightblue" stroke="midnightblue" points="780.777,-75.263 770.185,-75.5164 778.623,-81.9234 780.777,-75.263"/>
</g>
<!-- Node22&#45;&gt;Node1 -->
<g id="edge48" class="edge"><title>Node22&#45;&gt;Node1</title>
<path fill="none" stroke="midnightblue" d="M232.652,-131.524C343.095,-159.195 677.271,-246.518 792.434,-277.753"/>
<polygon fill="midnightblue" stroke="midnightblue" points="791.682,-281.176 802.25,-280.425 793.52,-274.421 791.682,-281.176"/>
</g>
<!-- Node22&#45;&gt;Node8 -->
<g id="edge43" class="edge"><title>Node22&#45;&gt;Node8</title>
<path fill="none" stroke="midnightblue" d="M211.183,-112.358C233.223,-99.2587 276.967,-73.9988 315.847,-56 344.188,-42.8803 377.519,-30.3294 401.341,-21.8321"/>
<polygon fill="midnightblue" stroke="midnightblue" points="402.661,-25.0778 410.926,-18.4487 400.331,-18.477 402.661,-25.0778"/>
</g>
<!-- Node22&#45;&gt;Node11 -->
<g id="edge44" class="edge"><title>Node22&#45;&gt;Node11</title>
<path fill="none" stroke="midnightblue" d="M220.457,-112.444C246.182,-103.12 287.415,-88.1768 315.52,-77.9911"/>
<polygon fill="midnightblue" stroke="midnightblue" points="317.018,-81.1709 325.227,-74.473 314.633,-74.5898 317.018,-81.1709"/>
</g>
<!-- Node22&#45;&gt;Node12 -->
<g id="edge45" class="edge"><title>Node22&#45;&gt;Node12</title>
<path fill="none" stroke="midnightblue" d="M247.944,-117.503C321.198,-111.969 460.385,-99.5205 588.102,-75.8752"/>
<polygon fill="midnightblue" stroke="midnightblue" points="588.878,-79.2908 598.06,-74.0043 587.585,-72.4112 588.878,-79.2908"/>
</g>
<!-- Node22&#45;&gt;Node18 -->
<g id="edge42" class="edge"><title>Node22&#45;&gt;Node18</title>
<path fill="none" stroke="midnightblue" d="M184.018,-112.471C166.422,-99.733 138.623,-75.1829 153.847,-56 156.378,-52.8115 260.697,-29.733 314.885,-17.9233"/>
<polygon fill="midnightblue" stroke="midnightblue" points="315.669,-21.3346 324.696,-15.7887 314.181,-14.4946 315.669,-21.3346"/>
</g>
<!-- Node23 -->
<g id="node23" class="node"><title>Node23</title>
<polygon fill="white" stroke="#bfbfbf" points="162.847,-56.5 162.847,-75.5 230.847,-75.5 230.847,-56.5 162.847,-56.5"/>
<text text-anchor="middle" x="196.847" y="-63.5" font-family="Helvetica,sans-Serif" font-size="10.00">wdlendian.h</text>
</g>
<!-- Node22&#45;&gt;Node23 -->
<g id="edge46" class="edge"><title>Node22&#45;&gt;Node23</title>
<path fill="none" stroke="midnightblue" d="M196.847,-112.083C196.847,-105.006 196.847,-94.8611 196.847,-85.9865"/>
<polygon fill="midnightblue" stroke="midnightblue" points="200.348,-85.751 196.847,-75.7511 193.348,-85.7511 200.348,-85.751"/>
</g>
<!-- Node24 -->
<g id="node24" class="node"><title>Node24</title>
<polygon fill="white" stroke="#bfbfbf" points="29.3475,-56.5 29.3475,-75.5 106.347,-75.5 106.347,-56.5 29.3475,-56.5"/>
<text text-anchor="middle" x="67.8475" y="-63.5" font-family="Helvetica,sans-Serif" font-size="10.00">wdl_base64.h</text>
</g>
<!-- Node22&#45;&gt;Node24 -->
<g id="edge47" class="edge"><title>Node22&#45;&gt;Node24</title>
<path fill="none" stroke="midnightblue" d="M176.407,-112.444C155.177,-103.557 121.748,-89.5632 97.5925,-79.4514"/>
<polygon fill="midnightblue" stroke="midnightblue" points="98.7682,-76.1493 88.1923,-75.5164 96.0652,-82.6064 98.7682,-76.1493"/>
</g>
</g>
</svg>
