<?xml version="1.0" encoding="UTF-8" standalone="no"?>
<!DOCTYPE svg PUBLIC "-//W3C//DTD SVG 1.1//EN"
 "http://www.w3.org/Graphics/SVG/1.1/DTD/svg11.dtd">
<!-- Generated by graphviz version 2.36.0 (20140111.2315)
 -->
<!-- Title: MidiSynth.h Pages: 1 -->
<!--zoomable 308 -->
<svg id="main" version="1.1" xmlns="http://www.w3.org/2000/svg" xmlns:xlink="http://www.w3.org/1999/xlink" xml:space="preserve" onload="init(evt)">
<style type="text/css"><![CDATA[
.edge:hover path { stroke: red; }
.edge:hover polygon { stroke: red; fill: red; }
]]></style>
<script type="text/javascript"><![CDATA[
var edges = document.getElementsByTagName('g');
if (edges && edges.length) {
  for (var i=0;i<edges.length;i++) {
    if (edges[i].id.substr(0,4)=='edge') {
      edges[i].setAttribute('class','edge');
    }
  }
}
]]></script>
        <defs>
                <circle id="rim" cx="0" cy="0" r="7"/>
                <circle id="rim2" cx="0" cy="0" r="3.5"/>
                <g id="zoomPlus">
                        <use xlink:href="#rim" fill="#404040">
                                <set attributeName="fill" to="#808080" begin="zoomplus.mouseover" end="zoomplus.mouseout"/>
                        </use>
                        <path d="M-4,0h8M0,-4v8" fill="none" stroke="white" stroke-width="1.5" pointer-events="none"/>
                </g>
                <g id="zoomMin">
                        <use xlink:href="#rim" fill="#404040">
                                <set attributeName="fill" to="#808080" begin="zoomminus.mouseover" end="zoomminus.mouseout"/>
                        </use>
                        <path d="M-4,0h8" fill="none" stroke="white" stroke-width="1.5" pointer-events="none"/>
                </g>
                <g id="dirArrow">
                        <path fill="none" stroke="white" stroke-width="1.5" d="M0,-3.0v7 M-2.5,-0.5L0,-3.0L2.5,-0.5"/>
                </g>
               <g id="resetDef">
                       <use xlink:href="#rim2" fill="#404040">
                               <set attributeName="fill" to="#808080" begin="reset.mouseover" end="reset.mouseout"/>
                       </use>
               </g>
        </defs>

<script type="text/javascript">
var viewWidth = 700;
var viewHeight = 308;
var sectionId = 'dynsection-0';
</script>
<script xlink:href="svgpan.js"/>
<svg id="graph" class="graph">
<g id="viewport">
<title>MidiSynth.h</title>
<polygon fill="white" stroke="none" points="-4,4 -4,-304 696,-304 696,4 -4,4"/>
<!-- Node1 -->
<g id="node1" class="node"><title>Node1</title>
<polygon fill="#bfbfbf" stroke="black" points="312,-280.5 312,-299.5 380,-299.5 380,-280.5 312,-280.5"/>
<text text-anchor="middle" x="346" y="-287.5" font-family="Helvetica,sans-Serif" font-size="10.00">MidiSynth.h</text>
</g>
<!-- Node2 -->
<g id="node2" class="node"><title>Node2</title>
<polygon fill="white" stroke="#bfbfbf" points="192,-224.5 192,-243.5 236,-243.5 236,-224.5 192,-224.5"/>
<text text-anchor="middle" x="214" y="-231.5" font-family="Helvetica,sans-Serif" font-size="10.00">vector</text>
</g>
<!-- Node1&#45;&gt;Node2 -->
<g id="edge1" class="edge"><title>Node1&#45;&gt;Node2</title>
<path fill="none" stroke="midnightblue" d="M325.084,-280.444C303.264,-271.517 268.85,-257.439 244.108,-247.317"/>
<polygon fill="midnightblue" stroke="midnightblue" points="245.399,-244.063 234.818,-243.516 242.748,-250.542 245.399,-244.063"/>
</g>
<!-- Node3 -->
<g id="node3" class="node"><title>Node3</title>
<polygon fill="white" stroke="#bfbfbf" points="254.5,-224.5 254.5,-243.5 303.5,-243.5 303.5,-224.5 254.5,-224.5"/>
<text text-anchor="middle" x="279" y="-231.5" font-family="Helvetica,sans-Serif" font-size="10.00">stdint.h</text>
</g>
<!-- Node1&#45;&gt;Node3 -->
<g id="edge2" class="edge"><title>Node1&#45;&gt;Node3</title>
<path fill="none" stroke="midnightblue" d="M335.235,-280.324C325.234,-272.263 310.113,-260.077 298.07,-250.369"/>
<polygon fill="midnightblue" stroke="midnightblue" points="299.943,-247.384 289.961,-243.834 295.55,-252.834 299.943,-247.384"/>
</g>
<!-- Node4 -->
<g id="node4" class="node"><title>Node4</title>
<polygon fill="white" stroke="#bfbfbf" points="321.5,-224.5 321.5,-243.5 370.5,-243.5 370.5,-224.5 321.5,-224.5"/>
<text text-anchor="middle" x="346" y="-231.5" font-family="Helvetica,sans-Serif" font-size="10.00">ptrlist.h</text>
</g>
<!-- Node1&#45;&gt;Node4 -->
<g id="edge3" class="edge"><title>Node1&#45;&gt;Node4</title>
<path fill="none" stroke="midnightblue" d="M346,-280.083C346,-273.006 346,-262.861 346,-253.986"/>
<polygon fill="midnightblue" stroke="midnightblue" points="349.5,-253.751 346,-243.751 342.5,-253.751 349.5,-253.751"/>
</g>
<!-- Node5 -->
<g id="node5" class="node"><title>Node5</title>
<g id="a_node5"><a xlink:href="_i_plug_constants_8h.html" target="_top" xlink:title="Constant definitions, Types, magic numbers. ">
<polygon fill="white" stroke="black" points="600,-0.5 600,-19.5 692,-19.5 692,-0.5 600,-0.5"/>
<text text-anchor="middle" x="646" y="-7.5" font-family="Helvetica,sans-Serif" font-size="10.00">IPlugConstants.h</text>
</a>
</g>
</g>
<!-- Node1&#45;&gt;Node5 -->
<g id="edge4" class="edge"><title>Node1&#45;&gt;Node5</title>
<path fill="none" stroke="midnightblue" d="M380.169,-284.02C459.411,-271.511 649,-235.663 649,-179 649,-179 649,-179 649,-121 649,-88.9361 647.711,-51.6344 646.822,-29.7446"/>
<polygon fill="midnightblue" stroke="midnightblue" points="650.311,-29.399 646.392,-19.5556 643.317,-29.6944 650.311,-29.399"/>
</g>
<!-- Node6 -->
<g id="node6" class="node"><title>Node6</title>
<g id="a_node6"><a xlink:href="_i_plug_midi_8h_source.html" target="_top" xlink:title="IPlugMidi.h">
<polygon fill="white" stroke="black" points="388.5,-224.5 388.5,-243.5 453.5,-243.5 453.5,-224.5 388.5,-224.5"/>
<text text-anchor="middle" x="421" y="-231.5" font-family="Helvetica,sans-Serif" font-size="10.00">IPlugMidi.h</text>
</a>
</g>
</g>
<!-- Node1&#45;&gt;Node6 -->
<g id="edge5" class="edge"><title>Node1&#45;&gt;Node6</title>
<path fill="none" stroke="midnightblue" d="M358.05,-280.324C369.463,-272.107 386.831,-259.602 400.435,-249.807"/>
<polygon fill="midnightblue" stroke="midnightblue" points="402.66,-252.517 408.731,-243.834 398.57,-246.837 402.66,-252.517"/>
</g>
<!-- Node6&#45;&gt;Node5 -->
<g id="edge8" class="edge"><title>Node6&#45;&gt;Node5</title>
<path fill="none" stroke="midnightblue" d="M431.471,-224.255C458.916,-201.154 534.765,-136.142 592,-76 606.934,-60.3078 622.605,-41.0935 633.195,-27.6405"/>
<polygon fill="midnightblue" stroke="midnightblue" points="635.976,-29.7662 639.361,-19.7269 630.454,-25.4636 635.976,-29.7662"/>
</g>
<!-- Node7 -->
<g id="node7" class="node"><title>Node7</title>
<polygon fill="white" stroke="#bfbfbf" points="-0.5,-0.5 -0.5,-19.5 48.5,-19.5 48.5,-0.5 -0.5,-0.5"/>
<text text-anchor="middle" x="24" y="-7.5" font-family="Helvetica,sans-Serif" font-size="10.00">cassert</text>
</g>
<!-- Node6&#45;&gt;Node7 -->
<g id="edge6" class="edge"><title>Node6&#45;&gt;Node7</title>
<path fill="none" stroke="midnightblue" d="M388.212,-225.979C329.19,-213.339 211.129,-188.054 211,-188 168.886,-170.484 159.103,-162.288 125,-132 88.1723,-99.2922 53.1996,-52.7576 35.6812,-28.0115"/>
<polygon fill="midnightblue" stroke="midnightblue" points="38.4496,-25.8627 29.8542,-19.6684 32.7107,-29.8709 38.4496,-25.8627"/>
</g>
<!-- Node8 -->
<g id="node8" class="node"><title>Node8</title>
<polygon fill="white" stroke="#bfbfbf" points="67,-0.5 67,-19.5 113,-19.5 113,-0.5 67,-0.5"/>
<text text-anchor="middle" x="90" y="-7.5" font-family="Helvetica,sans-Serif" font-size="10.00">cstdint</text>
</g>
<!-- Node6&#45;&gt;Node8 -->
<g id="edge7" class="edge"><title>Node6&#45;&gt;Node8</title>
<path fill="none" stroke="midnightblue" d="M388.938,-224.488C324.783,-206.94 183.628,-165.57 147,-132 116.293,-103.857 100.633,-55.7468 94.0098,-29.4678"/>
<polygon fill="midnightblue" stroke="midnightblue" points="97.4009,-28.5985 91.7069,-19.6639 90.5864,-30.1993 97.4009,-28.5985"/>
</g>
<!-- Node9 -->
<g id="node9" class="node"><title>Node9</title>
<g id="a_node9"><a xlink:href="_i_plug_utilities_8h.html" target="_top" xlink:title="Utility functions and macros. ">
<polygon fill="white" stroke="black" points="381,-168.5 381,-187.5 461,-187.5 461,-168.5 381,-168.5"/>
<text text-anchor="middle" x="421" y="-175.5" font-family="Helvetica,sans-Serif" font-size="10.00">IPlugUtilities.h</text>
</a>
</g>
</g>
<!-- Node6&#45;&gt;Node9 -->
<g id="edge9" class="edge"><title>Node6&#45;&gt;Node9</title>
<path fill="none" stroke="midnightblue" d="M421,-224.083C421,-217.006 421,-206.861 421,-197.986"/>
<polygon fill="midnightblue" stroke="midnightblue" points="424.5,-197.751 421,-187.751 417.5,-197.751 424.5,-197.751"/>
</g>
<!-- Node9&#45;&gt;Node5 -->
<g id="edge16" class="edge"><title>Node9&#45;&gt;Node5</title>
<path fill="none" stroke="midnightblue" d="M434.969,-168.361C449.067,-159.533 471.361,-145.273 490,-132 541.111,-95.6038 598.895,-49.3871 627.673,-26.0062"/>
<polygon fill="midnightblue" stroke="midnightblue" points="630.092,-28.5497 635.633,-19.5193 625.67,-23.1233 630.092,-28.5497"/>
</g>
<!-- Node10 -->
<g id="node10" class="node"><title>Node10</title>
<polygon fill="white" stroke="#bfbfbf" points="275,-112.5 275,-131.5 331,-131.5 331,-112.5 275,-112.5"/>
<text text-anchor="middle" x="303" y="-119.5" font-family="Helvetica,sans-Serif" font-size="10.00">algorithm</text>
</g>
<!-- Node9&#45;&gt;Node10 -->
<g id="edge10" class="edge"><title>Node9&#45;&gt;Node10</title>
<path fill="none" stroke="midnightblue" d="M402.303,-168.444C383.056,-159.636 352.848,-145.812 330.8,-135.722"/>
<polygon fill="midnightblue" stroke="midnightblue" points="332.16,-132.495 321.61,-131.516 329.247,-138.86 332.16,-132.495"/>
</g>
<!-- Node11 -->
<g id="node11" class="node"><title>Node11</title>
<polygon fill="white" stroke="#bfbfbf" points="349,-112.5 349,-131.5 393,-131.5 393,-112.5 349,-112.5"/>
<text text-anchor="middle" x="371" y="-119.5" font-family="Helvetica,sans-Serif" font-size="10.00">cmath</text>
</g>
<!-- Node9&#45;&gt;Node11 -->
<g id="edge11" class="edge"><title>Node9&#45;&gt;Node11</title>
<path fill="none" stroke="midnightblue" d="M412.744,-168.083C405.535,-160.298 394.89,-148.801 386.154,-139.367"/>
<polygon fill="midnightblue" stroke="midnightblue" points="388.465,-136.711 379.103,-131.751 383.329,-141.467 388.465,-136.711"/>
</g>
<!-- Node12 -->
<g id="node12" class="node"><title>Node12</title>
<polygon fill="white" stroke="#bfbfbf" points="538.5,-0.5 538.5,-19.5 581.5,-19.5 581.5,-0.5 538.5,-0.5"/>
<text text-anchor="middle" x="560" y="-7.5" font-family="Helvetica,sans-Serif" font-size="10.00">cstdio</text>
</g>
<!-- Node9&#45;&gt;Node12 -->
<g id="edge12" class="edge"><title>Node9&#45;&gt;Node12</title>
<path fill="none" stroke="midnightblue" d="M431.418,-168.171C441.488,-159.427 456.948,-145.434 469,-132 500.301,-97.11 532.151,-52.1139 548.597,-28.0215"/>
<polygon fill="midnightblue" stroke="midnightblue" points="551.587,-29.8479 554.294,-19.6048 545.79,-25.9239 551.587,-29.8479"/>
</g>
<!-- Node13 -->
<g id="node13" class="node"><title>Node13</title>
<polygon fill="white" stroke="#bfbfbf" points="241.5,-56.5 241.5,-75.5 286.5,-75.5 286.5,-56.5 241.5,-56.5"/>
<text text-anchor="middle" x="264" y="-63.5" font-family="Helvetica,sans-Serif" font-size="10.00">cstdlib</text>
</g>
<!-- Node9&#45;&gt;Node13 -->
<g id="edge13" class="edge"><title>Node9&#45;&gt;Node13</title>
<path fill="none" stroke="midnightblue" d="M420.755,-168.147C419.891,-154.301 416.216,-127.506 401,-112 393.475,-104.332 334.442,-86.7138 296.361,-75.9376"/>
<polygon fill="midnightblue" stroke="midnightblue" points="297.28,-72.5603 286.706,-73.2245 295.387,-79.2993 297.28,-72.5603"/>
</g>
<!-- Node14 -->
<g id="node14" class="node"><title>Node14</title>
<polygon fill="white" stroke="#bfbfbf" points="131,-0.5 131,-19.5 177,-19.5 177,-0.5 131,-0.5"/>
<text text-anchor="middle" x="154" y="-7.5" font-family="Helvetica,sans-Serif" font-size="10.00">cstring</text>
</g>
<!-- Node9&#45;&gt;Node14 -->
<g id="edge14" class="edge"><title>Node9&#45;&gt;Node14</title>
<path fill="none" stroke="midnightblue" d="M380.757,-175.748C315.863,-172.82 192.48,-163.194 164,-132 138.507,-104.078 143.829,-55.8789 149.3,-29.5271"/>
<polygon fill="midnightblue" stroke="midnightblue" points="152.731,-30.2243 151.564,-19.6939 145.909,-28.6536 152.731,-30.2243"/>
</g>
<!-- Node15 -->
<g id="node15" class="node"><title>Node15</title>
<polygon fill="white" stroke="#bfbfbf" points="474,-0.5 474,-19.5 520,-19.5 520,-0.5 474,-0.5"/>
<text text-anchor="middle" x="497" y="-7.5" font-family="Helvetica,sans-Serif" font-size="10.00">cctype</text>
</g>
<!-- Node9&#45;&gt;Node15 -->
<g id="edge15" class="edge"><title>Node9&#45;&gt;Node15</title>
<path fill="none" stroke="midnightblue" d="M427.59,-168.396C434.122,-159.595 444.121,-145.356 451,-132 468.938,-97.1755 483.774,-53.6785 491.416,-29.4633"/>
<polygon fill="midnightblue" stroke="midnightblue" points="494.796,-30.3823 494.407,-19.7946 488.108,-28.3139 494.796,-30.3823"/>
</g>
<!-- Node16 -->
<g id="node16" class="node"><title>Node16</title>
<g id="a_node16"><a xlink:href="_i_plug_platform_8h.html" target="_top" xlink:title="Include to get consistently named preprocessor macros for different platforms and logging functionali...">
<polygon fill="white" stroke="black" points="173,-112.5 173,-131.5 257,-131.5 257,-112.5 173,-112.5"/>
<text text-anchor="middle" x="215" y="-119.5" font-family="Helvetica,sans-Serif" font-size="10.00">IPlugPlatform.h</text>
</a>
</g>
</g>
<!-- Node9&#45;&gt;Node16 -->
<g id="edge17" class="edge"><title>Node9&#45;&gt;Node16</title>
<path fill="none" stroke="midnightblue" d="M388.359,-168.444C352.95,-159.162 296.291,-144.309 257.447,-134.127"/>
<polygon fill="midnightblue" stroke="midnightblue" points="258.049,-130.667 247.489,-131.516 256.274,-137.438 258.049,-130.667"/>
</g>
<!-- Node16&#45;&gt;Node13 -->
<g id="edge19" class="edge"><title>Node16&#45;&gt;Node13</title>
<path fill="none" stroke="midnightblue" d="M223.091,-112.083C230.155,-104.298 240.588,-92.8015 249.149,-83.3665"/>
<polygon fill="midnightblue" stroke="midnightblue" points="251.931,-85.5087 256.059,-75.7511 246.747,-80.8047 251.931,-85.5087"/>
</g>
<!-- Node16&#45;&gt;Node14 -->
<g id="edge18" class="edge"><title>Node16&#45;&gt;Node14</title>
<path fill="none" stroke="midnightblue" d="M210.213,-112.368C200.236,-94.376 177.042,-52.5503 163.775,-28.6267"/>
<polygon fill="midnightblue" stroke="midnightblue" points="166.675,-26.6393 158.764,-19.5914 160.553,-30.0342 166.675,-26.6393"/>
</g>
<!-- Node17 -->
<g id="node17" class="node"><title>Node17</title>
<g id="a_node17"><a xlink:href="_i_plug_logger_8h.html" target="_top" xlink:title="IPlug logging a.k.a tracing functionailty. ">
<polygon fill="white" stroke="black" points="309.5,-56.5 309.5,-75.5 386.5,-75.5 386.5,-56.5 309.5,-56.5"/>
<text text-anchor="middle" x="348" y="-63.5" font-family="Helvetica,sans-Serif" font-size="10.00">IPlugLogger.h</text>
</a>
</g>
</g>
<!-- Node16&#45;&gt;Node17 -->
<g id="edge20" class="edge"><title>Node16&#45;&gt;Node17</title>
<path fill="none" stroke="midnightblue" d="M236.074,-112.444C258.06,-103.517 292.734,-89.4387 317.664,-79.3168"/>
<polygon fill="midnightblue" stroke="midnightblue" points="319.076,-82.5213 327.024,-75.5164 316.442,-76.0355 319.076,-82.5213"/>
</g>
<!-- Node17&#45;&gt;Node5 -->
<g id="edge30" class="edge"><title>Node17&#45;&gt;Node5</title>
<path fill="none" stroke="midnightblue" d="M386.653,-57.9958C438.385,-48.6214 530.494,-31.9307 589.873,-21.1707"/>
<polygon fill="midnightblue" stroke="midnightblue" points="590.62,-24.5924 599.836,-19.3654 589.372,-17.7046 590.62,-24.5924"/>
</g>
<!-- Node17&#45;&gt;Node7 -->
<g id="edge27" class="edge"><title>Node17&#45;&gt;Node7</title>
<path fill="none" stroke="midnightblue" d="M309.226,-58.3354C304.437,-57.536 299.607,-56.7411 295,-56 192.995,-39.5932 164.052,-41.5247 58.8856,-19.9854"/>
<polygon fill="midnightblue" stroke="midnightblue" points="59.3109,-16.4993 48.8088,-17.8982 57.8911,-23.3538 59.3109,-16.4993"/>
</g>
<!-- Node17&#45;&gt;Node8 -->
<g id="edge24" class="edge"><title>Node17&#45;&gt;Node8</title>
<path fill="none" stroke="midnightblue" d="M309.413,-58.2594C266.292,-50.519 194.203,-36.9611 123.047,-20.104"/>
<polygon fill="midnightblue" stroke="midnightblue" points="123.556,-16.627 113.016,-17.7037 121.927,-23.4348 123.556,-16.627"/>
</g>
<!-- Node17&#45;&gt;Node9 -->
<g id="edge31" class="edge"><title>Node17&#45;&gt;Node9</title>
<path fill="none" stroke="midnightblue" d="M383.013,-75.5548C401.934,-82.1564 423.684,-93.4064 435,-112 443.789,-126.441 437.94,-145.633 431.325,-159.413"/>
<polygon fill="midnightblue" stroke="midnightblue" points="428.18,-157.873 426.571,-168.345 434.359,-161.162 428.18,-157.873"/>
</g>
<!-- Node17&#45;&gt;Node12 -->
<g id="edge21" class="edge"><title>Node17&#45;&gt;Node12</title>
<path fill="none" stroke="midnightblue" d="M384.165,-56.4464C418.776,-48.1635 472.674,-35.0128 528.623,-20.0215"/>
<polygon fill="midnightblue" stroke="midnightblue" points="529.604,-23.3819 538.35,-17.4018 527.784,-16.6228 529.604,-23.3819"/>
</g>
<!-- Node17&#45;&gt;Node14 -->
<g id="edge25" class="edge"><title>Node17&#45;&gt;Node14</title>
<path fill="none" stroke="midnightblue" d="M317.237,-56.4864C286.617,-48.0056 238.021,-34.527 186.967,-20.2642"/>
<polygon fill="midnightblue" stroke="midnightblue" points="187.643,-16.8189 177.07,-17.4979 185.758,-23.5605 187.643,-16.8189"/>
</g>
<!-- Node17&#45;&gt;Node15 -->
<g id="edge22" class="edge"><title>Node17&#45;&gt;Node15</title>
<path fill="none" stroke="midnightblue" d="M371.609,-56.4435C396.604,-47.3851 436.237,-33.0213 464.246,-22.8705"/>
<polygon fill="midnightblue" stroke="midnightblue" points="465.782,-26.0369 473.991,-19.339 463.396,-19.4558 465.782,-26.0369"/>
</g>
<!-- Node18 -->
<g id="node18" class="node"><title>Node18</title>
<polygon fill="white" stroke="#bfbfbf" points="265.5,-0.5 265.5,-19.5 314.5,-19.5 314.5,-0.5 265.5,-0.5"/>
<text text-anchor="middle" x="290" y="-7.5" font-family="Helvetica,sans-Serif" font-size="10.00">cstdarg</text>
</g>
<!-- Node17&#45;&gt;Node18 -->
<g id="edge23" class="edge"><title>Node17&#45;&gt;Node18</title>
<path fill="none" stroke="midnightblue" d="M338.681,-56.324C330.107,-48.3414 317.188,-36.3128 306.812,-26.6529"/>
<polygon fill="midnightblue" stroke="midnightblue" points="309.192,-24.0865 299.488,-19.8339 304.422,-29.2098 309.192,-24.0865"/>
</g>
<!-- Node19 -->
<g id="node19" class="node"><title>Node19</title>
<polygon fill="white" stroke="#bfbfbf" points="332.5,-0.5 332.5,-19.5 373.5,-19.5 373.5,-0.5 332.5,-0.5"/>
<text text-anchor="middle" x="353" y="-7.5" font-family="Helvetica,sans-Serif" font-size="10.00">ctime</text>
</g>
<!-- Node17&#45;&gt;Node19 -->
<g id="edge26" class="edge"><title>Node17&#45;&gt;Node19</title>
<path fill="none" stroke="midnightblue" d="M348.826,-56.083C349.481,-49.0059 350.42,-38.8611 351.242,-29.9865"/>
<polygon fill="midnightblue" stroke="midnightblue" points="354.753,-30.0312 352.19,-19.7511 347.783,-29.3858 354.753,-30.0312"/>
</g>
<!-- Node20 -->
<g id="node20" class="node"><title>Node20</title>
<polygon fill="white" stroke="#bfbfbf" points="392,-0.5 392,-19.5 456,-19.5 456,-0.5 392,-0.5"/>
<text text-anchor="middle" x="424" y="-7.5" font-family="Helvetica,sans-Serif" font-size="10.00">wdlstring.h</text>
</g>
<!-- Node17&#45;&gt;Node20 -->
<g id="edge28" class="edge"><title>Node17&#45;&gt;Node20</title>
<path fill="none" stroke="midnightblue" d="M360.211,-56.324C371.776,-48.1066 389.375,-35.6017 403.161,-25.8069"/>
<polygon fill="midnightblue" stroke="midnightblue" points="405.443,-28.4791 411.567,-19.8339 401.388,-22.7729 405.443,-28.4791"/>
</g>
<!-- Node21 -->
<g id="node21" class="node"><title>Node21</title>
<polygon fill="white" stroke="#bfbfbf" points="195,-0.5 195,-19.5 247,-19.5 247,-0.5 195,-0.5"/>
<text text-anchor="middle" x="221" y="-7.5" font-family="Helvetica,sans-Serif" font-size="10.00">mutex.h</text>
</g>
<!-- Node17&#45;&gt;Node21 -->
<g id="edge29" class="edge"><title>Node17&#45;&gt;Node21</title>
<path fill="none" stroke="midnightblue" d="M327.876,-56.4435C306.976,-47.5566 274.065,-33.5632 250.284,-23.4514"/>
<polygon fill="midnightblue" stroke="midnightblue" points="251.602,-20.2085 241.029,-19.5164 248.862,-26.6504 251.602,-20.2085"/>
</g>
</g>
</svg>
        <g id="navigator" transform="translate(0 0)" fill="#404254">
                <rect fill="#f2f5e9" fill-opacity="0.5" stroke="#606060" stroke-width=".5" x="0" y="0" width="60" height="60"/>
                <use id="zoomplus" xlink:href="#zoomPlus" x="17" y="9" onmousedown="handleZoom(evt,'in')"/>
                <use id="zoomminus" xlink:href="#zoomMin" x="42" y="9" onmousedown="handleZoom(evt,'out')"/>
                <use id="reset" xlink:href="#resetDef" x="30" y="36" onmousedown="handleReset()"/>
                <g id="arrowUp" xlink:href="#dirArrow" transform="translate(30 24)" onmousedown="handlePan(0,-1)">
                  <use xlink:href="#rim" fill="#404040">
                        <set attributeName="fill" to="#808080" begin="arrowUp.mouseover" end="arrowUp.mouseout"/>
                  </use>
                  <path fill="none" stroke="white" stroke-width="1.5" d="M0,-3.0v7 M-2.5,-0.5L0,-3.0L2.5,-0.5"/>
                </g>
                <g id="arrowRight" xlink:href="#dirArrow" transform="rotate(90) translate(36 -43)" onmousedown="handlePan(1,0)">
                  <use xlink:href="#rim" fill="#404040">
                        <set attributeName="fill" to="#808080" begin="arrowRight.mouseover" end="arrowRight.mouseout"/>
                  </use>
                  <path fill="none" stroke="white" stroke-width="1.5" d="M0,-3.0v7 M-2.5,-0.5L0,-3.0L2.5,-0.5"/>
                </g>
                <g id="arrowDown" xlink:href="#dirArrow" transform="rotate(180) translate(-30 -48)" onmousedown="handlePan(0,1)">
                  <use xlink:href="#rim" fill="#404040">
                        <set attributeName="fill" to="#808080" begin="arrowDown.mouseover" end="arrowDown.mouseout"/>
                  </use>
                  <path fill="none" stroke="white" stroke-width="1.5" d="M0,-3.0v7 M-2.5,-0.5L0,-3.0L2.5,-0.5"/>
                </g>
                <g id="arrowLeft" xlink:href="#dirArrow" transform="rotate(270) translate(-36 17)" onmousedown="handlePan(-1,0)">
                  <use xlink:href="#rim" fill="#404040">
                        <set attributeName="fill" to="#808080" begin="arrowLeft.mouseover" end="arrowLeft.mouseout"/>
                  </use>
                  <path fill="none" stroke="white" stroke-width="1.5" d="M0,-3.0v7 M-2.5,-0.5L0,-3.0L2.5,-0.5"/>
                </g>
        </g>
        <svg viewBox="0 0 15 15" width="100%" height="30px" preserveAspectRatio="xMaxYMin meet">
         <g id="arrow_out" transform="scale(0.3 0.3)">
          <a xlink:href="_midi_synth_8h__incl_org.svg" target="_base">
           <rect id="button" ry="5" rx="5" y="6" x="6" height="38" width="38"
                fill="#f2f5e9" fill-opacity="0.5" stroke="#606060" stroke-width="1.0"/>
           <path id="arrow"
             d="M 11.500037,31.436501 C 11.940474,20.09759 22.043105,11.32322 32.158766,21.979434 L 37.068811,17.246167 C 37.068811,17.246167 37.088388,32 37.088388,32 L 22.160133,31.978069 C 22.160133,31.978069 26.997745,27.140456 26.997745,27.140456 C 18.528582,18.264221 13.291696,25.230495 11.500037,31.436501 z"
             style="fill:#404040;"/>
          </a>
         </g>
        </svg>
</svg>
