<?xml version="1.0" encoding="UTF-8" standalone="no"?>
<!DOCTYPE svg PUBLIC "-//W3C//DTD SVG 1.1//EN"
 "http://www.w3.org/Graphics/SVG/1.1/DTD/svg11.dtd">
<!-- Generated by graphviz version 2.36.0 (20140111.2315)
 -->
<!-- Title: IPlugBaseGraphics Pages: 1 -->
<svg width="236pt" height="140pt"
 viewBox="0.00 0.00 236.00 140.00" xmlns="http://www.w3.org/2000/svg" xmlns:xlink="http://www.w3.org/1999/xlink">
<g id="graph0" class="graph" transform="scale(1 1) rotate(0) translate(4 136)">
<title>IPlugBaseGraphics</title>
<polygon fill="white" stroke="none" points="-4,4 -4,-136 232,-136 232,4 -4,4"/>
<!-- Node1 -->
<g id="node1" class="node"><title>Node1</title>
<polygon fill="#bfbfbf" stroke="black" points="63.5,-56.5 63.5,-75.5 164.5,-75.5 164.5,-56.5 63.5,-56.5"/>
<text text-anchor="middle" x="114" y="-63.5" font-family="Helvetica,sans-Serif" font-size="10.00">IPlugBaseGraphics</text>
</g>
<!-- Node4 -->
<g id="node4" class="node"><title>Node4</title>
<g id="a_node4"><a xlink:href="class_i_plug_v_s_t2.html" target="_top" xlink:title="VST2.4 API base class for an IPlug plug&#45;in, inherits from IPlugBase or IPlugBaseGraphics. ">
<polygon fill="white" stroke="black" points="0,-0.5 0,-19.5 64,-19.5 64,-0.5 0,-0.5"/>
<text text-anchor="middle" x="32" y="-7.5" font-family="Helvetica,sans-Serif" font-size="10.00">IPlugVST2</text>
</a>
</g>
</g>
<!-- Node1&#45;&gt;Node4 -->
<g id="edge3" class="edge"><title>Node1&#45;&gt;Node4</title>
<path fill="none" stroke="midnightblue" d="M92.1669,-50.6221C77.1871,-40.7574 57.8025,-27.9919 45.142,-19.6545"/>
<polygon fill="midnightblue" stroke="midnightblue" points="90.5486,-53.7471 100.825,-56.324 94.3985,-47.9009 90.5486,-53.7471"/>
</g>
<!-- Node5 -->
<g id="node5" class="node"><title>Node5</title>
<g id="a_node5"><a xlink:href="class_i_plug_v_s_t3.html" target="_top" xlink:title="VST3 base class for an IPlug plug&#45;in, inherits from IPlugBase or IPlugBaseGraphics. ">
<polygon fill="white" stroke="black" points="82,-0.5 82,-19.5 146,-19.5 146,-0.5 82,-0.5"/>
<text text-anchor="middle" x="114" y="-7.5" font-family="Helvetica,sans-Serif" font-size="10.00">IPlugVST3</text>
</a>
</g>
</g>
<!-- Node1&#45;&gt;Node5 -->
<g id="edge4" class="edge"><title>Node1&#45;&gt;Node5</title>
<path fill="none" stroke="midnightblue" d="M114,-45.8045C114,-36.9102 114,-26.7798 114,-19.7511"/>
<polygon fill="midnightblue" stroke="midnightblue" points="110.5,-46.083 114,-56.083 117.5,-46.083 110.5,-46.083"/>
</g>
<!-- Node6 -->
<g id="node6" class="node"><title>Node6</title>
<g id="a_node6"><a xlink:href="class_i_plug_w_a_m.html" target="_top" xlink:title="Web Audio Module (WAM) API base class for an IPlug plug&#45;in, inherits from IPlugBase or IPlugBaseGraph...">
<polygon fill="white" stroke="black" points="164,-0.5 164,-19.5 228,-19.5 228,-0.5 164,-0.5"/>
<text text-anchor="middle" x="196" y="-7.5" font-family="Helvetica,sans-Serif" font-size="10.00">IPlugWAM</text>
</a>
</g>
</g>
<!-- Node1&#45;&gt;Node6 -->
<g id="edge5" class="edge"><title>Node1&#45;&gt;Node6</title>
<path fill="none" stroke="midnightblue" d="M135.833,-50.6221C150.813,-40.7574 170.197,-27.9919 182.858,-19.6545"/>
<polygon fill="midnightblue" stroke="midnightblue" points="133.601,-47.9009 127.175,-56.324 137.451,-53.7471 133.601,-47.9009"/>
</g>
<!-- Node2 -->
<g id="node2" class="node"><title>Node2</title>
<g id="a_node2"><a xlink:href="class_i_plug_base.html" target="_top" xlink:title="The lowest level base class of an IPlug plug&#45;in. ">
<polygon fill="white" stroke="black" points="44,-112.5 44,-131.5 106,-131.5 106,-112.5 44,-112.5"/>
<text text-anchor="middle" x="75" y="-119.5" font-family="Helvetica,sans-Serif" font-size="10.00">IPlugBase</text>
</a>
</g>
</g>
<!-- Node2&#45;&gt;Node1 -->
<g id="edge1" class="edge"><title>Node2&#45;&gt;Node1</title>
<path fill="none" stroke="midnightblue" d="M87.3822,-103.855C94.1354,-94.5048 102.209,-83.3265 107.68,-75.7511"/>
<polygon fill="midnightblue" stroke="midnightblue" points="84.4576,-101.927 81.4401,-112.083 90.1324,-106.025 84.4576,-101.927"/>
</g>
<!-- Node3 -->
<g id="node3" class="node"><title>Node3</title>
<g id="a_node3"><a xlink:href="class_i_delegate.html" target="_top" xlink:title="This pure virtual interface delegates communication in both directions between the UI and the plug&#45;in...">
<polygon fill="white" stroke="black" points="124.5,-112.5 124.5,-131.5 183.5,-131.5 183.5,-112.5 124.5,-112.5"/>
<text text-anchor="middle" x="154" y="-119.5" font-family="Helvetica,sans-Serif" font-size="10.00">IDelegate</text>
</a>
</g>
</g>
<!-- Node3&#45;&gt;Node1 -->
<g id="edge2" class="edge"><title>Node3&#45;&gt;Node1</title>
<path fill="none" stroke="midnightblue" d="M141.3,-103.855C134.374,-94.5048 126.094,-83.3265 120.482,-75.7511"/>
<polygon fill="midnightblue" stroke="midnightblue" points="138.63,-106.131 147.395,-112.083 144.255,-101.964 138.63,-106.131"/>
</g>
</g>
</svg>
