<?xml version="1.0" encoding="UTF-8" standalone="no"?>
<!DOCTYPE svg PUBLIC "-//W3C//DTD SVG 1.1//EN"
 "http://www.w3.org/Graphics/SVG/1.1/DTD/svg11.dtd">
<!-- Generated by graphviz version 2.36.0 (20140111.2315)
 -->
<!-- Title: IPlug Pages: 1 -->
<svg width="382pt" height="148pt"
 viewBox="0.00 0.00 382.00 148.00" xmlns="http://www.w3.org/2000/svg" xmlns:xlink="http://www.w3.org/1999/xlink">
<g id="graph0" class="graph" transform="scale(1 1) rotate(0) translate(4 144)">
<title>IPlug</title>
<polygon fill="white" stroke="none" points="-4,4 -4,-144 378,-144 378,4 -4,4"/>
<g id="clust1" class="cluster"><title>clusterdir_a8a4892678035c62db3a4af7d9811050</title>
<g id="a_clust1"><a xlink:href="dir_a8a4892678035c62db3a4af7d9811050.html" target="_top">
<polygon fill="#eeeeff" stroke="black" points="8,-8 8,-132 366,-132 366,-8 8,-8"/>
</a>
</g>
</g>
<!-- dir_a8a4892678035c62db3a4af7d9811050 -->
<g id="node1" class="node"><title>dir_a8a4892678035c62db3a4af7d9811050</title>
<text text-anchor="middle" x="331" y="-103.5" font-family="Helvetica,sans-Serif" font-size="10.00">IPlug</text>
</g>
<!-- dir_02b921c665a2b7698f690c5b6b11d065 -->
<g id="node3" class="node"><title>dir_02b921c665a2b7698f690c5b6b11d065</title>
<g id="a_node3"><a xlink:href="dir_02b921c665a2b7698f690c5b6b11d065.html" target="_top" xlink:title="IGraphics">
<polygon fill="white" stroke="black" points="357.25,-52 298.75,-52 298.75,-16 357.25,-16 357.25,-52"/>
<text text-anchor="middle" x="328" y="-31.5" font-family="Helvetica,sans-Serif" font-size="10.00">IGraphics</text>
</a>
</g>
</g>
<!-- dir_a8a4892678035c62db3a4af7d9811050&#45;&gt;dir_02b921c665a2b7698f690c5b6b11d065 -->
<g id="edge1" class="edge"><title>dir_a8a4892678035c62db3a4af7d9811050&#45;&gt;dir_02b921c665a2b7698f690c5b6b11d065</title>
<path fill="none" stroke="black" d="M330.258,-87.6966C329.928,-79.9827 329.531,-70.7125 329.162,-62.1124"/>
<polygon fill="black" stroke="black" points="332.658,-61.9453 328.733,-52.1043 325.665,-62.2451 332.658,-61.9453"/>
<g id="a_edge1&#45;headlabel"><a xlink:href="dir_000000_000003.html" target="_top" xlink:title="2">
<text text-anchor="middle" x="335.649" y="-62.915" font-family="Helvetica,sans-Serif" font-size="10.00">2</text>
</a>
</g>
</g>
<!-- dir_91051055e54918154e7732bfb3d5e02e -->
<g id="node2" class="node"><title>dir_91051055e54918154e7732bfb3d5e02e</title>
<g id="a_node2"><a xlink:href="dir_91051055e54918154e7732bfb3d5e02e.html" target="_top" xlink:title="Extras">
<polygon fill="white" stroke="red" points="286,-124 232,-124 232,-88 286,-88 286,-124"/>
<text text-anchor="middle" x="259" y="-103.5" font-family="Helvetica,sans-Serif" font-size="10.00">Extras</text>
</a>
</g>
</g>
<!-- dir_fc0ecb49226fe1c75980931ed40843b9 -->
<g id="node4" class="node"><title>dir_fc0ecb49226fe1c75980931ed40843b9</title>
<g id="a_node4"><a xlink:href="dir_fc0ecb49226fe1c75980931ed40843b9.html" target="_top" xlink:title="VST2">
<polygon fill="white" stroke="black" points="214,-124 160,-124 160,-88 214,-88 214,-124"/>
<text text-anchor="middle" x="187" y="-103.5" font-family="Helvetica,sans-Serif" font-size="10.00">VST2</text>
</a>
</g>
</g>
<!-- dir_b8b37e024f559980bd14da047db80fdb -->
<g id="node5" class="node"><title>dir_b8b37e024f559980bd14da047db80fdb</title>
<g id="a_node5"><a xlink:href="dir_b8b37e024f559980bd14da047db80fdb.html" target="_top" xlink:title="VST3">
<polygon fill="white" stroke="black" points="142,-124 88,-124 88,-88 142,-88 142,-124"/>
<text text-anchor="middle" x="115" y="-103.5" font-family="Helvetica,sans-Serif" font-size="10.00">VST3</text>
</a>
</g>
</g>
<!-- dir_46883a40f44d30036dda07ee74674961 -->
<g id="node6" class="node"><title>dir_46883a40f44d30036dda07ee74674961</title>
<g id="a_node6"><a xlink:href="dir_46883a40f44d30036dda07ee74674961.html" target="_top" xlink:title="WAM">
<polygon fill="white" stroke="black" points="70,-124 16,-124 16,-88 70,-88 70,-124"/>
<text text-anchor="middle" x="43" y="-103.5" font-family="Helvetica,sans-Serif" font-size="10.00">WAM</text>
</a>
</g>
</g>
</g>
</svg>
