<?xml version="1.0" encoding="UTF-8" standalone="no"?>
<!DOCTYPE svg PUBLIC "-//W3C//DTD SVG 1.1//EN"
 "http://www.w3.org/Graphics/SVG/1.1/DTD/svg11.dtd">
<!-- Generated by graphviz version 2.36.0 (20140111.2315)
 -->
<!-- Title: Graphical Class Hierarchy Pages: 1 -->
<svg width="326pt" height="173pt"
 viewBox="0.00 0.00 326.00 173.00" xmlns="http://www.w3.org/2000/svg" xmlns:xlink="http://www.w3.org/1999/xlink">
<g id="graph0" class="graph" transform="scale(1 1) rotate(0) translate(4 169)">
<title>Graphical Class Hierarchy</title>
<polygon fill="white" stroke="none" points="-4,4 -4,-169 322,-169 322,4 -4,4"/>
<!-- Node1 -->
<g id="node1" class="node"><title>Node1</title>
<g id="a_node1"><a xlink:href="class_i_delegate.html" target="_top" xlink:title="This pure virtual interface delegates communication in both directions between the UI and the plug&#45;in...">
<polygon fill="white" stroke="black" points="1.5,-145.5 1.5,-164.5 60.5,-164.5 60.5,-145.5 1.5,-145.5"/>
<text text-anchor="middle" x="31" y="-152.5" font-family="Helvetica,sans-Serif" font-size="10.00">IDelegate</text>
</a>
</g>
</g>
<!-- Node2 -->
<g id="node2" class="node"><title>Node2</title>
<g id="a_node2"><a xlink:href="class_i_plug_base_graphics.html" target="_top" xlink:title="An IPlugBase class for an IPlug plug&#45;in that uses IGraphics for it&#39;s UI. ">
<polygon fill="white" stroke="black" points="107.5,-126.5 107.5,-145.5 208.5,-145.5 208.5,-126.5 107.5,-126.5"/>
<text text-anchor="middle" x="158" y="-133.5" font-family="Helvetica,sans-Serif" font-size="10.00">IPlugBaseGraphics</text>
</a>
</g>
</g>
<!-- Node1&#45;&gt;Node2 -->
<g id="edge1" class="edge"><title>Node1&#45;&gt;Node2</title>
<path fill="none" stroke="midnightblue" d="M70.8743,-149.091C82.4244,-147.335 95.2367,-145.388 107.372,-143.543"/>
<polygon fill="midnightblue" stroke="midnightblue" points="70.038,-145.678 60.6775,-150.641 71.09,-152.598 70.038,-145.678"/>
</g>
<!-- Node3 -->
<g id="node3" class="node"><title>Node3</title>
<g id="a_node3"><a xlink:href="class_i_plug_v_s_t2.html" target="_top" xlink:title="VST2.4 API base class for an IPlug plug&#45;in, inherits from IPlugBase or IPlugBaseGraphics. ">
<polygon fill="white" stroke="black" points="254,-88.5 254,-107.5 318,-107.5 318,-88.5 254,-88.5"/>
<text text-anchor="middle" x="286" y="-95.5" font-family="Helvetica,sans-Serif" font-size="10.00">IPlugVST2</text>
</a>
</g>
</g>
<!-- Node2&#45;&gt;Node3 -->
<g id="edge2" class="edge"><title>Node2&#45;&gt;Node3</title>
<path fill="none" stroke="midnightblue" d="M200.641,-123.441C217.92,-118.23 237.631,-112.286 253.652,-107.454"/>
<polygon fill="midnightblue" stroke="midnightblue" points="199.359,-120.173 190.795,-126.411 201.38,-126.874 199.359,-120.173"/>
</g>
<!-- Node4 -->
<g id="node4" class="node"><title>Node4</title>
<g id="a_node4"><a xlink:href="class_i_plug_v_s_t3.html" target="_top" xlink:title="VST3 base class for an IPlug plug&#45;in, inherits from IPlugBase or IPlugBaseGraphics. ">
<polygon fill="white" stroke="black" points="254,-47.5 254,-66.5 318,-66.5 318,-47.5 254,-47.5"/>
<text text-anchor="middle" x="286" y="-54.5" font-family="Helvetica,sans-Serif" font-size="10.00">IPlugVST3</text>
</a>
</g>
</g>
<!-- Node2&#45;&gt;Node4 -->
<g id="edge3" class="edge"><title>Node2&#45;&gt;Node4</title>
<path fill="none" stroke="midnightblue" d="M207.849,-122.464C211.382,-120.827 214.807,-119.011 218,-117 237.686,-104.603 236.43,-94.2492 254,-79 259.084,-74.5877 265.038,-70.1989 270.361,-66.5153"/>
<polygon fill="midnightblue" stroke="midnightblue" points="206.236,-119.343 198.326,-126.392 208.905,-125.815 206.236,-119.343"/>
</g>
<!-- Node5 -->
<g id="node5" class="node"><title>Node5</title>
<g id="a_node5"><a xlink:href="class_i_plug_w_a_m.html" target="_top" xlink:title="Web Audio Module (WAM) API base class for an IPlug plug&#45;in, inherits from IPlugBase or IPlugBaseGraph...">
<polygon fill="white" stroke="black" points="254,-126.5 254,-145.5 318,-145.5 318,-126.5 254,-126.5"/>
<text text-anchor="middle" x="286" y="-133.5" font-family="Helvetica,sans-Serif" font-size="10.00">IPlugWAM</text>
</a>
</g>
</g>
<!-- Node2&#45;&gt;Node5 -->
<g id="edge4" class="edge"><title>Node2&#45;&gt;Node5</title>
<path fill="none" stroke="midnightblue" d="M218.844,-136C230.892,-136 243.094,-136 253.682,-136"/>
<polygon fill="midnightblue" stroke="midnightblue" points="218.799,-132.5 208.799,-136 218.799,-139.5 218.799,-132.5"/>
</g>
<!-- Node6 -->
<g id="node6" class="node"><title>Node6</title>
<g id="a_node6"><a xlink:href="class_i_plug_base.html" target="_top" xlink:title="The lowest level base class of an IPlug plug&#45;in. ">
<polygon fill="white" stroke="black" points="0,-107.5 0,-126.5 62,-126.5 62,-107.5 0,-107.5"/>
<text text-anchor="middle" x="31" y="-114.5" font-family="Helvetica,sans-Serif" font-size="10.00">IPlugBase</text>
</a>
</g>
</g>
<!-- Node6&#45;&gt;Node2 -->
<g id="edge5" class="edge"><title>Node6&#45;&gt;Node2</title>
<path fill="none" stroke="midnightblue" d="M72.4519,-123.149C83.4744,-124.824 95.5463,-126.659 107.03,-128.405"/>
<polygon fill="midnightblue" stroke="midnightblue" points="72.6714,-119.642 62.259,-121.599 71.6195,-126.562 72.6714,-119.642"/>
</g>
<!-- Node7 -->
<g id="node7" class="node"><title>Node7</title>
<g id="a_node7"><a xlink:href="class_i_plug_preset_handler.html" target="_top" xlink:title="Everything to do with saving presets. ">
<polygon fill="white" stroke="black" points="107.5,-88.5 107.5,-107.5 208.5,-107.5 208.5,-88.5 107.5,-88.5"/>
<text text-anchor="middle" x="158" y="-95.5" font-family="Helvetica,sans-Serif" font-size="10.00">IPlugPresetHandler</text>
</a>
</g>
</g>
<!-- Node7&#45;&gt;Node3 -->
<g id="edge6" class="edge"><title>Node7&#45;&gt;Node3</title>
<path fill="none" stroke="midnightblue" d="M218.844,-98C230.892,-98 243.094,-98 253.682,-98"/>
<polygon fill="midnightblue" stroke="midnightblue" points="218.799,-94.5001 208.799,-98 218.799,-101.5 218.799,-94.5001"/>
</g>
<!-- Node7&#45;&gt;Node4 -->
<g id="edge7" class="edge"><title>Node7&#45;&gt;Node4</title>
<path fill="none" stroke="midnightblue" d="M197.872,-85.351C216.446,-79.3071 238.316,-72.1908 255.498,-66.5997"/>
<polygon fill="midnightblue" stroke="midnightblue" points="196.65,-82.0681 188.224,-88.4907 198.816,-88.7246 196.65,-82.0681"/>
</g>
<!-- Node8 -->
<g id="node8" class="node"><title>Node8</title>
<g id="a_node8"><a xlink:href="class_i_plug_processor.html" target="_top" xlink:title="IPlugProcessor\&lt; PLUG\l_SAMPLE_DST \&gt;">
<polygon fill="white" stroke="black" points="98.5,-39 98.5,-69 217.5,-69 217.5,-39 98.5,-39"/>
<text text-anchor="start" x="106.5" y="-57" font-family="Helvetica,sans-Serif" font-size="10.00">IPlugProcessor&lt; PLUG</text>
<text text-anchor="middle" x="158" y="-46" font-family="Helvetica,sans-Serif" font-size="10.00">_SAMPLE_DST &gt;</text>
</a>
</g>
</g>
<!-- Node8&#45;&gt;Node3 -->
<g id="edge8" class="edge"><title>Node8&#45;&gt;Node3</title>
<path fill="none" stroke="midnightblue" d="M211.682,-72.3968C227.459,-77.9062 244.123,-83.7256 257.571,-88.4217"/>
<polygon fill="midnightblue" stroke="midnightblue" points="212.604,-69.0118 202.01,-69.0192 210.297,-75.6205 212.604,-69.0118"/>
</g>
<!-- Node8&#45;&gt;Node4 -->
<g id="edge9" class="edge"><title>Node8&#45;&gt;Node4</title>
<path fill="none" stroke="midnightblue" d="M227.813,-55.6384C236.857,-55.8537 245.74,-56.0652 253.707,-56.2549"/>
<polygon fill="midnightblue" stroke="midnightblue" points="227.654,-52.1337 217.574,-55.3946 227.487,-59.1317 227.654,-52.1337"/>
</g>
<!-- Node9 -->
<g id="node9" class="node"><title>Node9</title>
<polygon fill="white" stroke="#bfbfbf" points="98,-0.5 98,-19.5 218,-19.5 218,-0.5 98,-0.5"/>
<text text-anchor="middle" x="158" y="-7.5" font-family="Helvetica,sans-Serif" font-size="10.00">SingleComponentEffect</text>
</g>
<!-- Node9&#45;&gt;Node4 -->
<g id="edge10" class="edge"><title>Node9&#45;&gt;Node4</title>
<path fill="none" stroke="midnightblue" d="M200.295,-22.8085C206.263,-24.8015 212.309,-26.8987 218,-29 233.374,-34.6766 250.412,-41.8084 263.458,-47.4536"/>
<polygon fill="midnightblue" stroke="midnightblue" points="200.993,-19.3543 190.4,-19.5704 198.816,-26.0071 200.993,-19.3543"/>
</g>
</g>
</svg>
