<?xml version="1.0" encoding="UTF-8" standalone="no"?>
<!DOCTYPE svg PUBLIC "-//W3C//DTD SVG 1.1//EN"
 "http://www.w3.org/Graphics/SVG/1.1/DTD/svg11.dtd">
<!-- Generated by graphviz version 2.36.0 (20140111.2315)
 -->
<!-- Title: Graphical Class Hierarchy Pages: 1 -->
<svg width="338pt" height="104pt"
 viewBox="0.00 0.00 338.00 104.00" xmlns="http://www.w3.org/2000/svg" xmlns:xlink="http://www.w3.org/1999/xlink">
<g id="graph0" class="graph" transform="scale(1 1) rotate(0) translate(4 100)">
<title>Graphical Class Hierarchy</title>
<polygon fill="white" stroke="none" points="-4,4 -4,-100 334,-100 334,4 -4,4"/>
<!-- Node1 -->
<g id="node1" class="node"><title>Node1</title>
<g id="a_node1"><a xlink:href="class_i_graphics.html" target="_top" xlink:title="The lowest level base class of an IGraphics context. ">
<polygon fill="white" stroke="black" points="0.5,-57.5 0.5,-76.5 59.5,-76.5 59.5,-57.5 0.5,-57.5"/>
<text text-anchor="middle" x="30" y="-64.5" font-family="Helvetica,sans-Serif" font-size="10.00">IGraphics</text>
</a>
</g>
</g>
<!-- Node2 -->
<g id="node2" class="node"><title>Node2</title>
<g id="a_node2"><a xlink:href="class_i_graphics_lice.html" target="_top" xlink:title="IGraphics draw class using Cockos&#39; LICE. ">
<polygon fill="white" stroke="black" points="108.5,-76.5 108.5,-95.5 185.5,-95.5 185.5,-76.5 108.5,-76.5"/>
<text text-anchor="middle" x="147" y="-83.5" font-family="Helvetica,sans-Serif" font-size="10.00">IGraphicsLice</text>
</a>
</g>
</g>
<!-- Node1&#45;&gt;Node2 -->
<g id="edge1" class="edge"><title>Node1&#45;&gt;Node2</title>
<path fill="none" stroke="midnightblue" d="M69.7503,-73.4022C82.1217,-75.4462 95.7933,-77.705 108.103,-79.7388"/>
<polygon fill="midnightblue" stroke="midnightblue" points="70.1595,-69.9225 59.7227,-71.7455 69.0184,-76.8288 70.1595,-69.9225"/>
</g>
<!-- Node3 -->
<g id="node3" class="node"><title>Node3</title>
<g id="a_node3"><a xlink:href="class_i_graphics_path_base.html" target="_top" xlink:title="IGraphicsPathBase">
<polygon fill="white" stroke="black" points="96.5,-38.5 96.5,-57.5 197.5,-57.5 197.5,-38.5 96.5,-38.5"/>
<text text-anchor="middle" x="147" y="-45.5" font-family="Helvetica,sans-Serif" font-size="10.00">IGraphicsPathBase</text>
</a>
</g>
</g>
<!-- Node1&#45;&gt;Node3 -->
<g id="edge2" class="edge"><title>Node1&#45;&gt;Node3</title>
<path fill="none" stroke="midnightblue" d="M69.72,-60.6028C78.2131,-59.1996 87.3203,-57.6949 96.1799,-56.2312"/>
<polygon fill="midnightblue" stroke="midnightblue" points="69.0184,-57.1712 59.7227,-62.2545 70.1595,-64.0775 69.0184,-57.1712"/>
</g>
<!-- Node4 -->
<g id="node4" class="node"><title>Node4</title>
<g id="a_node4"><a xlink:href="class_i_graphics_a_g_g.html" target="_top" xlink:title="IGraphics draw class using Antigrain Geometry. ">
<polygon fill="white" stroke="black" points="242,-76.5 242,-95.5 322,-95.5 322,-76.5 242,-76.5"/>
<text text-anchor="middle" x="282" y="-83.5" font-family="Helvetica,sans-Serif" font-size="10.00">IGraphicsAGG</text>
</a>
</g>
</g>
<!-- Node3&#45;&gt;Node4 -->
<g id="edge3" class="edge"><title>Node3&#45;&gt;Node4</title>
<path fill="none" stroke="midnightblue" d="M191.367,-60.3906C209.581,-65.5945 230.439,-71.5541 247.449,-76.4141"/>
<polygon fill="midnightblue" stroke="midnightblue" points="192.138,-56.971 181.562,-57.589 190.215,-63.7016 192.138,-56.971"/>
</g>
<!-- Node5 -->
<g id="node5" class="node"><title>Node5</title>
<g id="a_node5"><a xlink:href="class_i_graphics_cairo.html" target="_top" xlink:title="IGraphics draw class using Cairo. ">
<polygon fill="white" stroke="black" points="241,-38.5 241,-57.5 323,-57.5 323,-38.5 241,-38.5"/>
<text text-anchor="middle" x="282" y="-45.5" font-family="Helvetica,sans-Serif" font-size="10.00">IGraphicsCairo</text>
</a>
</g>
</g>
<!-- Node3&#45;&gt;Node5 -->
<g id="edge4" class="edge"><title>Node3&#45;&gt;Node5</title>
<path fill="none" stroke="midnightblue" d="M207.747,-48C218.999,-48 230.511,-48 240.977,-48"/>
<polygon fill="midnightblue" stroke="midnightblue" points="207.524,-44.5001 197.524,-48 207.524,-51.5001 207.524,-44.5001"/>
</g>
<!-- Node6 -->
<g id="node6" class="node"><title>Node6</title>
<g id="a_node6"><a xlink:href="class_i_graphics_nano_v_g.html" target="_top" xlink:title="IGraphics draw class using NanoVG. ">
<polygon fill="white" stroke="black" points="234,-0.5 234,-19.5 330,-19.5 330,-0.5 234,-0.5"/>
<text text-anchor="middle" x="282" y="-7.5" font-family="Helvetica,sans-Serif" font-size="10.00">IGraphicsNanoVG</text>
</a>
</g>
</g>
<!-- Node3&#45;&gt;Node6 -->
<g id="edge5" class="edge"><title>Node3&#45;&gt;Node6</title>
<path fill="none" stroke="midnightblue" d="M191.367,-35.6094C209.581,-30.4055 230.439,-24.4459 247.449,-19.5859"/>
<polygon fill="midnightblue" stroke="midnightblue" points="190.215,-32.2984 181.562,-38.411 192.138,-39.029 190.215,-32.2984"/>
</g>
</g>
</svg>
