<?xml version="1.0" encoding="UTF-8" standalone="no"?>
<!DOCTYPE svg PUBLIC "-//W3C//DTD SVG 1.1//EN"
 "http://www.w3.org/Graphics/SVG/1.1/DTD/svg11.dtd">
<!-- Generated by graphviz version 2.36.0 (20140111.2315)
 -->
<!-- Title: Graphical Class Hierarchy Pages: 1 -->
<svg width="246pt" height="66pt"
 viewBox="0.00 0.00 246.00 66.00" xmlns="http://www.w3.org/2000/svg" xmlns:xlink="http://www.w3.org/1999/xlink">
<g id="graph0" class="graph" transform="scale(1 1) rotate(0) translate(4 62)">
<title>Graphical Class Hierarchy</title>
<polygon fill="white" stroke="none" points="-4,4 -4,-62 242,-62 242,4 -4,4"/>
<!-- Node1 -->
<g id="node1" class="node"><title>Node1</title>
<g id="a_node1"><a xlink:href="class_i_oscillator.html" target="_top" xlink:title="IOscillator\&lt; T \&gt;">
<polygon fill="white" stroke="black" points="0.5,-19.5 0.5,-38.5 85.5,-38.5 85.5,-19.5 0.5,-19.5"/>
<text text-anchor="middle" x="43" y="-26.5" font-family="Helvetica,sans-Serif" font-size="10.00">IOscillator&lt; T &gt;</text>
</a>
</g>
</g>
<!-- Node2 -->
<g id="node2" class="node"><title>Node2</title>
<g id="a_node2"><a xlink:href="class_fast_sin_oscillator.html" target="_top" xlink:title="FastSinOscillator\&lt; T \&gt;">
<polygon fill="white" stroke="black" points="122,-38.5 122,-57.5 238,-57.5 238,-38.5 122,-38.5"/>
<text text-anchor="middle" x="180" y="-45.5" font-family="Helvetica,sans-Serif" font-size="10.00">FastSinOscillator&lt; T &gt;</text>
</a>
</g>
</g>
<!-- Node1&#45;&gt;Node2 -->
<g id="edge1" class="edge"><title>Node1&#45;&gt;Node2</title>
<path fill="none" stroke="midnightblue" d="M95.5229,-36.2514C104.146,-37.465 113.138,-38.7306 121.892,-39.9625"/>
<polygon fill="midnightblue" stroke="midnightblue" points="95.9962,-32.7836 85.606,-34.8557 95.0206,-39.7153 95.9962,-32.7836"/>
</g>
<!-- Node3 -->
<g id="node3" class="node"><title>Node3</title>
<g id="a_node3"><a xlink:href="class_sin_oscillator.html" target="_top" xlink:title="SinOscillator\&lt; T \&gt;">
<polygon fill="white" stroke="black" points="132,-0.5 132,-19.5 228,-19.5 228,-0.5 132,-0.5"/>
<text text-anchor="middle" x="180" y="-7.5" font-family="Helvetica,sans-Serif" font-size="10.00">SinOscillator&lt; T &gt;</text>
</a>
</g>
</g>
<!-- Node1&#45;&gt;Node3 -->
<g id="edge2" class="edge"><title>Node1&#45;&gt;Node3</title>
<path fill="none" stroke="midnightblue" d="M95.7585,-21.7155C107.555,-20.0553 120.03,-18.2994 131.632,-16.6665"/>
<polygon fill="midnightblue" stroke="midnightblue" points="95.0206,-18.2847 85.606,-23.1443 95.9962,-25.2164 95.0206,-18.2847"/>
</g>
</g>
</svg>
